<svg width="94" height="94" viewBox="0 0 94 94" fill="none" xmlns="http://www.w3.org/2000/svg">
<path d="M88.6936 3.03262C87.5413 3.03262 86.4814 3.41151 85.6097 4.03777C84.6727 2.53085 83.0142 1.51646 81.1128 1.51646C79.9605 1.51646 78.9006 1.89535 78.0289 2.52161C77.0922 1.01469 75.4337 0.000305176 73.5323 0.000305176C70.6063 0.000305176 68.2257 2.38057 68.2257 5.30686V22.6981C64.5703 20.7136 60.6634 19.7097 56.5743 19.7097C48.1463 19.7097 42.0256 23.497 38.3763 26.6748C37.027 27.8484 36.3052 29.5495 36.3946 31.3414C36.4857 33.1457 37.3832 34.7831 38.8599 35.8275C41.0612 37.3844 44.0359 37.2239 46.0918 35.4393C48.2129 33.5987 51.7514 31.4063 56.5743 31.4063C62.6737 31.4063 66.7627 35.8561 68.2257 37.7499V53.219C66.7627 55.1128 62.6737 59.561 56.5743 59.561C51.7501 59.561 48.2113 57.3686 46.0918 55.5312C44.0343 53.7421 41.0581 53.5874 38.8599 55.1415C37.3832 56.1861 36.4841 57.8236 36.3946 59.6275C36.3052 61.4197 37.027 63.1206 38.3763 64.2941C42.0272 67.4704 48.1463 71.2576 56.5743 71.2576C58.988 71.2576 61.3683 70.8969 63.6776 70.1843V93.9997H89.4516V64.7822C92.2776 62.8022 94.0001 59.5502 94.0001 56.0963V8.33823C94.0001 5.41289 91.6199 3.03262 88.6936 3.03262ZM90.9678 56.0969C90.9678 58.7746 89.5137 61.2835 87.173 62.6452L86.4193 63.0833V90.968H66.7096V65.7699L64.6187 66.6279C62.0337 67.6891 59.3274 68.2259 56.574 68.2259C49.0843 68.2259 43.6249 64.8449 40.3665 62.0068C39.7237 61.4458 39.3795 60.6346 39.4219 59.7781C39.4658 58.908 39.8979 58.1181 40.6104 57.6147C41.6655 56.8658 43.1031 56.9493 44.1034 57.8194C46.6126 59.9965 50.8138 62.5908 56.5737 62.5908C64.5745 62.5908 69.6155 56.4822 70.9693 54.6085L71.2574 54.2143V36.7546L70.9693 36.3573C69.6155 34.4848 64.5741 28.3734 56.5737 28.3734C50.8169 28.3734 46.6142 30.9689 44.1034 33.1476C43.1043 34.0149 41.6684 34.0983 40.6104 33.3507C39.8979 32.8474 39.4658 32.0574 39.4219 31.1873C39.3795 30.3321 39.7237 29.5196 40.3665 28.9586C43.6262 26.1233 49.0843 22.7424 56.574 22.7424C60.9391 22.7424 65.081 24.057 68.888 26.6509L71.2577 28.267V5.30686C71.2577 4.05306 72.2782 3.03262 73.532 3.03262C74.7858 3.03262 75.8062 4.05306 75.8062 5.30686V6.82302V36.3875H78.8385V6.82302C78.8385 5.56922 79.859 4.54878 81.1128 4.54878C82.3666 4.54878 83.387 5.56922 83.387 6.82302V8.33918V36.3875H86.4193V8.33887C86.4193 7.08506 87.4398 6.06463 88.6936 6.06463C89.9474 6.06463 90.9678 7.08506 90.9678 8.33887V56.0969Z" fill="#333333"/>
<path d="M31.8387 63.6777H22.8163L23.7456 61.5538C24.0866 60.7775 24.2582 59.9618 24.2582 59.1296C24.2582 55.7849 21.5383 53.0649 18.1936 53.0649C14.8489 53.0649 12.129 55.7849 12.129 59.1296C12.129 59.9618 12.3003 60.7775 12.6416 61.5538L13.5709 63.6777H4.54848C2.04086 63.6777 0 61.6369 0 59.1293V50.1068L2.12396 51.0362C2.90019 51.3772 3.7159 51.5488 4.54816 51.5488C7.89282 51.5488 10.6128 48.8288 10.6128 45.4841C10.6128 42.1395 7.89282 39.4195 4.54816 39.4195C3.7159 39.4195 2.90019 39.5908 2.12396 39.9321L0 40.8615V31.839C0 29.3314 2.04086 27.2905 4.54848 27.2905H9.22559C9.1393 26.7916 9.09664 26.2854 9.09664 25.7744C9.09664 20.7575 13.1765 16.6777 18.1933 16.6777C23.2101 16.6777 27.2899 20.7575 27.2899 25.7744C27.2899 26.2854 27.2476 26.7916 27.161 27.2905H31.8387C34.3463 27.2905 36.3872 29.3314 36.3872 31.839V36.5161C36.8861 36.4298 37.3923 36.3872 37.9034 36.3872C42.9202 36.3872 47 40.467 47 45.4838C47 50.5006 42.9202 54.5805 37.9034 54.5805C37.3923 54.5805 36.8861 54.5381 36.3872 54.4515V59.1286C36.3872 61.6369 34.3463 63.6777 31.8387 63.6777Z" fill="#EEB125"/>
</svg>
