<svg width="94" height="94" viewBox="0 0 94 94" fill="none" xmlns="http://www.w3.org/2000/svg">
<path d="M93.9997 51.5481H81.8708V37.9136L57.9191 37.7528L48.5162 33.858V28.8062H45.4839V33.858L36.081 37.7528L12.1292 37.9136V51.5481H0.000366211V69.7416H27.2904V51.5481H15.1615V40.9246L36.0718 40.7851L45.4839 44.9544V51.5481H33.355V69.7416H60.6451V51.5481H48.5162V44.9544L57.9283 40.7851L78.8385 40.9246V51.5481H66.7097V69.7416H78.8385V74.2901H45.4839V81.8708H39.4196C36.075 81.8708 33.355 84.5908 33.355 87.9354C33.355 91.2801 36.075 94 39.4196 94H54.5808C57.9254 94 60.6454 91.2801 60.6454 87.9354C60.6454 84.5908 57.9254 81.8708 54.5808 81.8708H48.5162V77.3224H81.8708V69.7416H93.9997V51.5481ZM24.2581 66.7093H3.03267V54.5804H24.2581V66.7093ZM57.6128 66.7093H36.387V54.5804H57.6128V66.7093ZM47 42.3089L40.2366 39.3129L47 36.5127L53.7635 39.3145L47 42.3089ZM57.6128 87.9348C57.6128 89.607 56.2529 90.9671 54.5805 90.9671H39.4196C37.7475 90.9671 36.3873 89.6073 36.3873 87.9348C36.3873 86.2626 37.7471 84.9025 39.4196 84.9025H54.5808C56.2529 84.9028 57.6128 86.2626 57.6128 87.9348ZM90.9674 66.7093H69.7417V54.5804H90.9674V66.7093Z" fill="#333333"/>
<path d="M54.5808 30.3224H39.4197V21.5897C36.5574 19.2913 34.8712 15.8132 34.8712 12.1292C34.8712 5.4412 40.3124 0 47.0001 0C53.6878 0 59.129 5.4412 59.129 12.1289C59.129 15.8145 57.4431 19.2925 54.5805 21.5894L54.5808 30.3224Z" fill="#EEB125"/>
<path d="M56.0966 22.7419H48.5159V16.3984C50.2762 15.7709 51.5482 14.1029 51.5482 12.1289C51.5482 9.62129 49.5073 7.58044 46.9997 7.58044C44.4921 7.58044 42.4513 9.62129 42.4513 12.1289C42.4513 14.1029 43.7232 15.7706 45.4836 16.3984V22.7419H37.9028V25.7742H56.0963L56.0966 22.7419ZM47 10.6127C47.8355 10.6127 48.5162 11.2935 48.5162 12.1289C48.5162 12.9643 47.8355 13.645 47 13.645C46.1646 13.645 45.4839 12.9643 45.4839 12.1289C45.4839 11.2935 46.1646 10.6127 47 10.6127Z" fill="#333333"/>
<path d="M30.3231 10.6127H22.7423V13.645H30.3231V10.6127Z" fill="#333333"/>
<path d="M31.0091 17.1098L24.0066 20.0115L25.1674 22.8127L32.1699 19.911L31.0091 17.1098Z" fill="#333333"/>
<path d="M62.9883 17.1091L61.8279 19.9106L68.832 22.8119L69.9925 20.0104L62.9883 17.1091Z" fill="#333333"/>
<path d="M71.2581 10.6127H63.6774V13.645H71.2581V10.6127Z" fill="#333333"/>
<path d="M68.8279 1.44617L61.8254 4.34784L62.9862 7.14908L69.9887 4.24741L68.8279 1.44617Z" fill="#333333"/>
<path d="M25.1695 1.44394L24.009 4.24548L31.0132 7.14676L32.1736 4.34522L25.1695 1.44394Z" fill="#333333"/>
</svg>
