<svg width="94" height="94" viewBox="0 0 94 94" fill="none" xmlns="http://www.w3.org/2000/svg">
<path d="M50.0322 48.516H89.4512C91.9588 48.516 93.9997 46.4751 93.9997 43.9675C93.9997 41.4599 91.9588 39.4191 89.4512 39.4191H4.54846C3.71143 39.4191 3.03231 38.7383 3.03231 37.9029C3.03231 37.0675 3.71143 36.3867 4.54846 36.3867H43.9675C46.4751 36.3867 48.516 34.3459 48.516 31.8383V28.806H45.4837V31.8386C45.4837 32.674 44.8046 33.3548 43.9675 33.3548H4.54846C2.04086 33.3548 0 35.3953 0 37.9032C0 40.4111 2.04086 42.4517 4.54846 42.4517H89.4515C90.2886 42.4517 90.9677 43.1324 90.9677 43.9678C90.9677 44.8033 90.2886 45.484 89.4515 45.484H50.0322C47.5245 45.484 45.4837 47.5248 45.4837 50.0325V53.0648H3.03231V94H90.9674V53.0644H48.516V50.0321C48.516 49.1967 49.1951 48.516 50.0322 48.516ZM87.9351 90.9674H6.06462V56.0964H87.9351V90.9674Z" fill="#333333"/>
<path d="M18.1935 60.6449H12.1289V63.6772H18.1935V60.6449Z" fill="#333333"/>
<path d="M28.8066 60.6449H22.7419V63.6772H28.8066V60.6449Z" fill="#333333"/>
<path d="M39.4194 60.6449H33.3547V63.6772H39.4194V60.6449Z" fill="#333333"/>
<path d="M50.0319 60.6449H43.9673V63.6772H50.0319V60.6449Z" fill="#333333"/>
<path d="M60.6452 60.6449H54.5806V63.6772H60.6452V60.6449Z" fill="#333333"/>
<path d="M71.258 60.6449H65.1934V63.6772H71.258V60.6449Z" fill="#333333"/>
<path d="M81.8705 60.6449H75.8059V63.6772H81.8705V60.6449Z" fill="#333333"/>
<path d="M54.5808 30.3225H39.4196V21.5898C36.5573 19.2913 34.8711 15.8133 34.8711 12.1292C34.8711 5.44122 40.3123 0 47 0C53.6877 0 59.1289 5.44122 59.1289 12.1289C59.1289 15.8146 57.4431 19.2926 54.5805 21.5894L54.5808 30.3225Z" fill="#EEB125"/>
<path d="M56.0964 22.742H48.5157V16.3985C50.276 15.7709 51.548 14.1029 51.548 12.1289C51.548 9.6213 49.5071 7.58044 46.9995 7.58044C44.4919 7.58044 42.4511 9.6213 42.4511 12.1289C42.4511 14.1029 43.723 15.7706 45.4834 16.3985V22.742H37.9026V25.7743H56.0961L56.0964 22.742ZM46.9998 10.6128C47.8369 10.6128 48.516 11.2935 48.516 12.1289C48.516 12.9644 47.8369 13.6451 46.9998 13.6451C46.1628 13.6451 45.4837 12.9644 45.4837 12.1289C45.4837 11.2935 46.1628 10.6128 46.9998 10.6128Z" fill="#333333"/>
<path d="M30.3227 10.6127H22.7419V13.645H30.3227V10.6127Z" fill="#333333"/>
<path d="M31.0091 17.1095L24.0066 20.0112L25.1674 22.8124L32.1699 19.9107L31.0091 17.1095Z" fill="#333333"/>
<path d="M62.9871 17.1067L61.8267 19.9082L68.8308 22.8095L69.9913 20.0079L62.9871 17.1067Z" fill="#333333"/>
<path d="M71.258 10.6127H63.6772V13.645H71.258V10.6127Z" fill="#333333"/>
<path d="M68.8297 1.44543L61.8271 4.34711L62.9879 7.14835L69.9905 4.24668L68.8297 1.44543Z" fill="#333333"/>
<path d="M25.1675 1.44418L24.0071 4.24573L31.0113 7.14701L32.1717 4.34546L25.1675 1.44418Z" fill="#333333"/>
<path d="M18.1935 68.2257H12.1289V71.258H18.1935V68.2257Z" fill="#333333"/>
<path d="M28.8066 68.2257H22.7419V71.258H28.8066V68.2257Z" fill="#333333"/>
<path d="M39.4194 68.2257H33.3547V71.258H39.4194V68.2257Z" fill="#333333"/>
<path d="M50.0319 68.2257H43.9673V71.258H50.0319V68.2257Z" fill="#333333"/>
<path d="M60.6452 68.2257H54.5806V71.258H60.6452V68.2257Z" fill="#333333"/>
<path d="M71.258 68.2257H65.1934V71.258H71.258V68.2257Z" fill="#333333"/>
<path d="M81.8705 68.2257H75.8059V71.258H81.8705V68.2257Z" fill="#333333"/>
<path d="M18.1935 75.8062H12.1289V78.8385H18.1935V75.8062Z" fill="#333333"/>
<path d="M28.8066 75.8062H22.7419V78.8385H28.8066V75.8062Z" fill="#333333"/>
<path d="M39.4194 75.8062H33.3547V78.8385H39.4194V75.8062Z" fill="#333333"/>
<path d="M50.0319 75.8062H43.9673V78.8385H50.0319V75.8062Z" fill="#333333"/>
<path d="M60.6452 75.8062H54.5806V78.8385H60.6452V75.8062Z" fill="#333333"/>
<path d="M71.258 75.8062H65.1934V78.8385H71.258V75.8062Z" fill="#333333"/>
<path d="M81.8705 75.8062H75.8059V78.8385H81.8705V75.8062Z" fill="#333333"/>
<path d="M18.1935 83.3869H12.1289V86.4192H18.1935V83.3869Z" fill="#333333"/>
<path d="M71.2579 83.3869H22.7419V86.4192H71.2579V83.3869Z" fill="#333333"/>
<path d="M81.8705 83.3869H75.8059V86.4192H81.8705V83.3869Z" fill="#333333"/>
</svg>
