<svg width="93" height="94" viewBox="0 0 93 94" fill="none" xmlns="http://www.w3.org/2000/svg">
<path d="M62.9997 83.3864H30V86.4186H62.9997V83.3864Z" fill="#EEB125"/>
<path d="M57.4916 62.1606H58.4996V59.1284H57.1347C57.0554 58.1277 56.9996 57.1194 56.9996 56.0961H58.4996V53.0638H56.9996V50.0315H58.4996C62.6352 50.0315 65.9997 46.6308 65.9997 42.4508C65.9997 38.9212 63.5997 35.9465 60.3628 35.1066L63.4214 22.7412H52.5002V15.1605H58.5002V4.54843H52.5002V0H40.5004V4.54843H34.5003V15.1611H40.5004V22.7418H29.5785L32.6371 35.1072C29.4002 35.9471 27.0002 38.9218 27.0002 42.4514C27.0002 46.6315 30.3647 50.0321 34.5003 50.0321H36.0003V53.0644H34.5003V56.0967H36.0003C36.0003 57.1187 35.9433 58.1283 35.8639 59.129H34.5003V62.1613H35.5039C33.8914 72.6285 28.7913 80.9657 28.7315 81.0628L28.4376 81.5359L30.2 94H62.8006L64.5614 81.5314L64.266 81.0583C64.2058 80.9606 59.0997 72.6689 57.4916 62.1606ZM37.5 12.1288V7.58072H43.5001V3.03229H49.5002V7.58072H55.5002V12.1292H49.5002V22.7418H43.5001V12.1288H37.5ZM34.5 46.9995C32.0191 46.9995 30 44.9587 30 42.4511C30 39.9435 32.0191 37.9027 34.5 37.9027H36.4215H50.9999V34.8704H35.6715L33.4215 25.7738H40.4998H52.4996H59.5779L56.5778 37.9027H58.4993C60.9802 37.9027 62.9994 39.9435 62.9994 42.4511C62.9994 44.9587 60.9802 46.9995 58.4993 46.9995H56.9993H35.9994H34.5ZM39.0001 50.0318H53.9999V53.0641H39.0001V50.0318ZM39.0001 56.0961H53.9999C53.9999 57.1209 54.0509 58.1293 54.1243 59.1284H38.8741C38.9474 58.1293 39.0001 57.1213 39.0001 56.0961ZM60.1993 90.9668H32.8006L31.7296 83.386H52.4999V80.3537H32.571C34.3441 76.9636 37.4068 70.1941 38.5468 62.1603H54.4481C55.8565 72.1484 60.2381 80.1567 61.4379 82.1943L60.1993 90.9668Z" fill="#333333"/>
<path d="M53.9998 56.0961H39V59.1284H53.9998V56.0961Z" fill="#EEB125"/>
</svg>
