<svg width="94" height="94" viewBox="0 0 94 94" fill="none" xmlns="http://www.w3.org/2000/svg">
<g clip-path="url(#clip0)">
<path d="M54.581 30.3225H39.4198V21.5898C36.5575 19.2913 34.8713 15.8133 34.8713 12.1292C34.8713 5.44122 40.3126 0 47.0002 0C53.6879 0 59.1292 5.44122 59.1292 12.1289C59.1292 15.8146 57.4433 19.2926 54.5807 21.5894L54.581 30.3225Z" fill="#EEB125"/>
<path d="M56.0967 22.742H48.5159V16.3985C50.2763 15.7709 51.5482 14.1029 51.5482 12.1289C51.5482 9.6213 49.5074 7.58044 46.9998 7.58044C44.4922 7.58044 42.4513 9.6213 42.4513 12.1289C42.4513 14.1029 43.7232 15.7706 45.4836 16.3985V22.742H37.9028V25.7743H56.0964L56.0967 22.742ZM47.0001 10.6128C47.8371 10.6128 48.5162 11.2935 48.5162 12.1289C48.5162 12.9644 47.8371 13.6451 47.0001 13.6451C46.163 13.6451 45.4839 12.9644 45.4839 12.1289C45.4836 11.2935 46.163 10.6128 47.0001 10.6128Z" fill="#333333"/>
<path d="M60.3312 65.4344L58.6877 67.9847C63.7106 71.223 66.7094 76.71 66.7094 82.6607V90.9674H47.8702L58.9227 72.0218L56.3014 70.4935L47.0001 86.4431L37.6971 70.4939L35.0759 72.0221L46.1299 90.9677H27.2904V82.661C27.2904 76.7088 30.2892 71.2217 35.3121 67.9834L33.6686 65.4331C27.7753 69.2356 24.2581 75.6746 24.2581 82.661V94H69.7417V82.661C69.7421 75.6743 66.2245 69.2353 60.3312 65.4344Z" fill="#333333"/>
<path d="M30.1816 51.6088C30.1816 60.8388 37.6895 68.3467 46.9195 68.3467C56.1495 68.3467 63.6574 60.8388 63.6574 51.6088C63.6574 42.38 56.1495 34.8709 46.9195 34.8709C37.6895 34.8709 30.1816 42.3804 30.1816 51.6088ZM60.6254 51.6088C60.6254 59.1651 54.4761 65.3147 46.9195 65.3147C39.3629 65.3147 33.2136 59.1654 33.2136 51.6088C33.2136 44.0509 39.3629 37.9029 46.9195 37.9029C54.4761 37.9029 60.6254 44.0509 60.6254 51.6088Z" fill="#333333"/>
<path d="M26.4384 57.1942C25.1846 57.5521 23.9139 57.7339 22.6633 57.7339C15.107 57.7339 8.95741 51.5846 8.95741 44.028C8.95741 36.4701 15.1067 30.3221 22.6633 30.3221C26.7886 30.3221 30.6548 32.1566 33.2732 35.3571L35.6216 33.4362C32.4241 29.5306 27.7014 27.2898 22.6617 27.2898C13.4317 27.2898 5.92383 34.7993 5.92383 44.0277C5.92383 53.2577 13.4317 60.7656 22.6617 60.7656C24.1944 60.7656 25.744 60.5443 27.2691 60.1091L26.4384 57.1942Z" fill="#333333"/>
<path d="M3.03255 75.0799C3.03255 69.1277 6.03143 63.6406 11.0543 60.4023L9.41078 57.8521C3.51777 61.6549 0.000244141 68.0936 0.000244141 75.0799V86.4189H19.7099V83.3866H3.03255V75.0799Z" fill="#333333"/>
<path d="M87.9159 44.0283C87.9159 34.7996 80.408 27.2905 71.178 27.2905C66.1399 27.2905 61.4173 29.5313 58.2197 33.4369L60.5681 35.3577C63.1865 32.1573 67.054 30.3228 71.178 30.3228C78.7343 30.3228 84.8839 36.4708 84.8839 44.0287C84.8839 51.5849 78.7346 57.7345 71.178 57.7345C69.9271 57.7345 68.6567 57.5527 67.4029 57.1949L66.5675 60.1088C68.0926 60.5453 69.6437 60.7681 71.178 60.7681C80.408 60.7662 87.9159 53.2584 87.9159 44.0283Z" fill="#333333"/>
<path d="M84.5895 57.8539L82.946 60.4042C87.9688 63.6425 90.9677 69.1296 90.9677 75.0802V83.3869H75.8065H72.7742V86.4192H94V75.0802C94 68.0936 90.4821 61.6548 84.5895 57.8539Z" fill="#333333"/>
</g>
<defs>
<clipPath id="clip0">
<rect width="94" height="94" fill="white"/>
</clipPath>
</defs>
</svg>
