<svg width="156" height="52" viewBox="0 0 156 52" fill="none" xmlns="http://www.w3.org/2000/svg">
<path d="M69.3762 8.75005H66.6625V12.9568H65.5713V2.73404H69.3762C71.2712 2.73404 72.5348 3.94009 72.5348 5.73478C72.5348 7.54401 71.2712 8.75005 69.3762 8.75005ZM69.2755 3.71063H66.6625V7.77345H69.2755C70.6395 7.77345 71.4436 7.01267 71.4436 5.73478C71.4436 4.45689 70.6395 3.71063 69.2755 3.71063Z" fill="#313E79"/>
<path d="M75.6522 9.69731C75.681 10.3432 75.7241 10.6305 75.8674 10.9752C76.1978 11.7648 76.8295 12.1382 77.7915 12.1382C78.1219 12.1382 78.4378 12.0661 78.6963 11.9657C79.0121 11.8366 79.1986 11.7072 79.5859 11.3337L80.2897 11.9512C79.7729 12.454 79.5286 12.6262 79.0979 12.7984C78.7106 12.9566 78.2511 13.0427 77.734 13.0427C75.6953 13.0427 74.6187 11.779 74.6187 9.38148C74.6187 7.15578 75.7241 5.80634 77.5187 5.80634C79.3134 5.80634 80.4189 7.11301 80.4189 9.22353V9.69731H75.6522ZM79.2558 7.9887C79.0121 7.17032 78.3514 6.68201 77.5187 6.68201C76.7722 6.68201 76.1548 7.08423 75.8674 7.7447C75.7241 8.06053 75.681 8.29029 75.6522 8.92197H79.3853C79.3565 8.37638 79.3422 8.24695 79.2558 7.9887Z" fill="#313E79"/>
<path d="M87.3122 12.8272C86.9678 12.9708 86.5802 13.0427 86.1206 13.0427C84.1392 13.0427 82.9478 11.6787 82.9478 9.42452C82.9478 7.17033 84.1392 5.80634 86.1206 5.80634C86.5802 5.80634 86.9678 5.87818 87.3122 6.02185C87.7001 6.19402 87.9296 6.36617 88.4036 6.85447L87.7001 7.51464C87.3412 7.14152 87.1688 6.99784 86.896 6.88296C86.6662 6.78264 86.4077 6.72505 86.1064 6.72505C84.7136 6.72505 83.9816 7.64408 83.9816 9.42452C83.9816 11.205 84.6991 12.124 86.0919 12.124C86.3934 12.124 86.6374 12.0806 86.8675 11.9803C87.1542 11.8508 87.3264 11.7072 87.7001 11.3195L88.4036 11.9945C87.9296 12.4825 87.7001 12.655 87.3122 12.8272Z" fill="#313E79"/>
<path d="M92.8419 14.6649C92.5118 15.5694 91.9229 15.9858 90.9612 15.9858H90.5162V15.0671H90.832C91.5064 15.0671 91.7365 14.895 91.9947 14.1912L92.4973 12.813L89.9561 5.89246H91.0757L93.0141 11.5639L94.9382 5.89246H96.0578L92.8419 14.6649Z" fill="#313E79"/>
<path d="M101.214 13.0427C100.783 13.0427 100.41 12.9708 100.079 12.8129C99.778 12.6693 99.6056 12.5256 99.261 12.124V16.1152H98.2271V5.89243H99.261V6.72505C99.591 6.33768 99.7632 6.19401 100.065 6.03609C100.381 5.87817 100.754 5.80634 101.199 5.80634C103.023 5.80634 103.841 6.94056 103.841 9.43875C103.841 11.8939 103.008 13.0427 101.214 13.0427ZM101.027 6.72505C99.7923 6.72505 99.261 7.54375 99.261 9.42452C99.261 11.3195 99.7923 12.124 101.041 12.124C102.276 12.124 102.807 11.3195 102.807 9.43875C102.807 7.51464 102.29 6.72505 101.027 6.72505Z" fill="#313E79"/>
<path d="M110.749 12.8272C110.404 12.9708 110.017 13.0427 109.557 13.0427C107.576 13.0427 106.384 11.6787 106.384 9.42452C106.384 7.17033 107.576 5.80634 109.557 5.80634C110.017 5.80634 110.404 5.87818 110.749 6.02185C111.137 6.19402 111.366 6.36617 111.84 6.85447L111.137 7.51464C110.778 7.14152 110.605 6.99784 110.333 6.88296C110.103 6.78264 109.844 6.72505 109.543 6.72505C108.15 6.72505 107.418 7.64408 107.418 9.42452C107.418 11.205 108.136 12.124 109.528 12.124C109.83 12.124 110.074 12.0806 110.304 11.9803C110.591 11.8508 110.763 11.7072 111.137 11.3195L111.84 11.9945C111.366 12.4825 111.137 12.655 110.749 12.8272Z" fill="#313E79"/>
<path d="M118.978 12.9566V9.75461H115.56V12.9566H114.541V5.89246H115.56V8.86439H118.978V5.89246H120.011V12.9566H118.978Z" fill="#313E79"/>
<path d="M126.474 12.9566H123.33V5.89246H124.349V8.69224H126.474C127.824 8.69224 128.714 9.53942 128.714 10.8316C128.714 12.1091 127.824 12.9566 126.474 12.9566ZM126.359 9.5967H124.349V12.0661H126.359C127.221 12.0661 127.68 11.6211 127.68 10.8316C127.68 10.0417 127.221 9.5967 126.359 9.5967ZM129.848 12.9566V5.89246H130.882V12.9566H129.848Z" fill="#313E79"/>
<path d="M139.011 12.957V7.48662L135.378 12.957H134.359V5.8929H135.378V11.3342L139.011 5.8929H140.045V12.957H139.011ZM137.202 4.65835C136.01 4.65835 135.192 4.14126 135.106 2.84912H136.024C136.082 3.56718 136.499 3.92605 137.202 3.92605C137.905 3.92605 138.322 3.56718 138.379 2.84912H139.298C139.212 4.14126 138.394 4.65835 137.202 4.65835Z" fill="#313E79"/>
<path d="M73.2383 29.1907V21.4233L70.4382 27.5827H69.5053L66.6625 21.4233V29.1907H65.5713V18.9682H66.6625L69.9936 26.2187L73.2383 18.9682H74.3295V29.1907H73.2383Z" fill="#313E79"/>
<path d="M82.3577 28.4724C81.8412 28.9895 81.1374 29.2765 80.3336 29.2765C79.5295 29.2765 78.826 28.9895 78.3092 28.4724C77.7063 27.855 77.4478 27.0227 77.4478 25.6584C77.4478 24.2944 77.7063 23.4618 78.3092 22.8447C78.826 22.3276 79.5295 22.0402 80.3336 22.0402C81.1232 22.0402 81.8412 22.3276 82.3577 22.8447C82.9609 23.4472 83.2195 24.2944 83.2195 25.6156C83.2195 27.0227 82.9752 27.8407 82.3577 28.4724ZM81.6254 23.4763C81.3096 23.1462 80.8359 22.9592 80.3336 22.9592C79.8453 22.9592 79.3716 23.1462 79.0557 23.4763C78.6393 23.8925 78.4816 24.5096 78.4816 25.6584C78.4816 26.8072 78.6393 27.41 79.0557 27.8407C79.3716 28.1708 79.8311 28.3578 80.3336 28.3578C80.8359 28.3578 81.3096 28.1708 81.6254 27.8407C82.0277 27.4243 82.1856 26.8217 82.1856 25.7014C82.1856 24.4954 82.0419 23.8925 81.6254 23.4763Z" fill="#313E79"/>
<path d="M90.2275 29.1902V23.0166H87.7293V25.4575C87.7293 28.4149 86.7818 29.1902 85.4894 29.1902H85.0156V28.3H85.2454C85.8773 28.3 86.7385 28.099 86.7385 25.1559V22.1263H91.2614V29.1902H90.2275Z" fill="#313E79"/>
<path d="M99.1027 28.4724C98.5859 28.9895 97.8821 29.2765 97.0782 29.2765C96.2744 29.2765 95.5706 28.9895 95.0538 28.4724C94.4509 27.855 94.1924 27.0227 94.1924 25.6584C94.1924 24.2944 94.4509 23.4618 95.0538 22.8447C95.5706 22.3276 96.2744 22.0402 97.0782 22.0402C97.8678 22.0402 98.5859 22.3276 99.1027 22.8447C99.7059 23.4472 99.9641 24.2944 99.9641 25.6156C99.9641 27.0227 99.7201 27.8407 99.1027 28.4724ZM98.3704 23.4763C98.0545 23.1462 97.5808 22.9592 97.0782 22.9592C96.5902 22.9592 96.1165 23.1462 95.8003 23.4763C95.3842 23.8925 95.2263 24.5096 95.2263 25.6584C95.2263 26.8072 95.3842 27.41 95.8003 27.8407C96.1165 28.1708 96.5757 28.3578 97.0782 28.3578C97.5808 28.3578 98.0545 28.1708 98.3704 27.8407C98.7723 27.4243 98.9305 26.8217 98.9305 25.7014C98.9305 24.4954 98.7868 23.8925 98.3704 23.4763Z" fill="#313E79"/>
<path d="M107.962 31.3007V29.1902H102.708V31.3007H101.717V28.3H102.55C103.081 27.1227 103.483 26.0458 103.483 23.4761V22.1263H107.919V28.3H108.968V31.3007H107.962ZM106.886 23.0166H104.474V24.3517C104.459 26.2183 104.129 27.2518 103.67 28.3H106.886V23.0166Z" fill="#313E79"/>
<path d="M112.1 25.9315C112.128 26.5774 112.171 26.8647 112.315 27.209C112.645 27.9986 113.277 28.3721 114.239 28.3721C114.569 28.3721 114.885 28.3002 115.144 28.1999C115.459 28.0705 115.646 27.9414 116.033 27.5679L116.737 28.1853C116.22 28.6879 115.976 28.8604 115.545 29.0325C115.158 29.1904 114.698 29.2765 114.181 29.2765C112.143 29.2765 111.066 28.0129 111.066 25.6156C111.066 23.3899 112.171 22.0402 113.966 22.0402C115.761 22.0402 116.866 23.3469 116.866 25.4577V25.9315H112.1ZM115.703 24.2229C115.459 23.4042 114.799 22.9162 113.966 22.9162C113.219 22.9162 112.602 23.3184 112.315 23.9786C112.171 24.2944 112.128 24.5245 112.1 25.1561H115.833C115.804 24.6102 115.79 24.4811 115.703 24.2229Z" fill="#313E79"/>
<path d="M118.29 29.1902L121.607 25.4575L118.577 22.1263H119.841L122.827 25.5148V22.1263H123.846V25.5148L126.847 22.1263H128.096L125.067 25.4575L128.383 29.1902H127.077L123.846 25.5433V29.1902H122.827V25.5433L119.596 29.1902H118.29Z" fill="#313E79"/>
<path d="M134.933 29.1902V25.9885H131.516V29.1902H130.497V22.1263H131.516V25.0983H134.933V22.1263H135.967V29.1902H134.933Z" fill="#313E79"/>
<path d="M142.429 29.1902H139.285V22.1263H140.304V24.9261H142.429C143.779 24.9261 144.669 25.7733 144.669 27.0651C144.669 28.343 143.779 29.1902 142.429 29.1902ZM142.314 25.8306H140.304V28.3H142.314C143.176 28.3 143.635 27.8547 143.635 27.0651C143.635 26.2756 143.176 25.8306 142.314 25.8306ZM145.803 29.1902V22.1263H146.837V29.1902H145.803Z" fill="#313E79"/>
<path d="M154.966 29.1903V23.7198L151.333 29.1903H150.314V22.1264H151.333V27.5678L154.966 22.1264H156V29.1903H154.966ZM153.156 20.8916C151.965 20.8916 151.147 20.3745 151.06 19.0826H151.979C152.037 19.8004 152.453 20.1593 153.156 20.1593C153.86 20.1593 154.276 19.8004 154.334 19.0826H155.253C155.167 20.3745 154.348 20.8916 153.156 20.8916Z" fill="#313E79"/>
<path d="M72.7358 47.8939V45.4242H65.5713V35.2017H66.6625V44.4482H71.5009V35.2017H72.5921V44.4482H73.8124V47.8939H72.7358Z" fill="#313E79"/>
<path d="M77.0593 42.1654C77.0881 42.8117 77.1311 43.0987 77.2745 43.4433C77.6049 44.2329 78.2365 44.6063 79.1986 44.6063C79.5287 44.6063 79.8445 44.5342 80.1031 44.4342C80.4189 44.3047 80.6056 44.1756 80.993 43.8019L81.6968 44.4193C81.18 44.9222 80.9357 45.0943 80.505 45.2668C80.1173 45.4244 79.6581 45.5108 79.141 45.5108C77.1023 45.5108 76.0254 44.2472 76.0254 41.8496C76.0254 39.6242 77.1311 38.2745 78.9258 38.2745C80.7205 38.2745 81.8259 39.5812 81.8259 41.6917V42.1654H77.0593ZM80.6629 40.4571C80.4189 39.6384 79.7584 39.1501 78.9258 39.1501C78.1793 39.1501 77.5618 39.5524 77.2745 40.2128C77.1311 40.5287 77.0881 40.7584 77.0593 41.3901H80.792C80.7635 40.8445 80.7493 40.7151 80.6629 40.4571Z" fill="#313E79"/>
<path d="M89.1934 45.424V42.2224H85.7762V45.424H84.7568V38.3602H85.7762V41.3321H89.1934V38.3602H90.227V45.424H89.1934Z" fill="#313E79"/>
<path d="M95.8575 39.2504V45.424H94.8236V39.2504H92.397V38.3602H98.169V39.2504H95.8575Z" fill="#313E79"/>
<path d="M103.31 45.5108C102.88 45.5108 102.506 45.439 102.176 45.281C101.875 45.1374 101.702 44.9937 101.358 44.5921V48.5834H100.324V38.3606H101.358V39.1932C101.688 38.8058 101.86 38.6621 102.161 38.5042C102.478 38.3463 102.851 38.2745 103.296 38.2745C105.119 38.2745 105.938 39.4087 105.938 41.9069C105.938 44.362 105.105 45.5108 103.31 45.5108ZM103.124 39.1932C101.889 39.1932 101.358 40.0119 101.358 41.8926C101.358 43.7877 101.889 44.5921 103.138 44.5921C104.373 44.5921 104.904 43.7876 104.904 41.9069C104.904 39.9828 104.387 39.1932 103.124 39.1932Z" fill="#313E79"/>
<path d="M28.239 22.6915C26.7302 21.1827 24.2987 21.1827 22.7901 22.6915C21.281 24.2007 21.2809 26.6319 22.7898 28.1405C24.2987 29.6496 26.7302 29.6499 28.2393 28.1408C29.7482 26.6319 29.7464 24.1992 28.239 22.6915Z" fill="#EEA010"/>
<path d="M8.44339 21.4701C9.16993 20.7435 9.16357 19.5551 8.44339 18.8349C7.71776 18.1092 6.53443 18.108 5.80789 18.8346C5.08741 19.5551 5.08104 20.7435 5.80789 21.4704C6.52806 22.1906 7.722 22.1914 8.44339 21.4701Z" fill="#313E79"/>
<path d="M3.18017 24.0987C2.45453 23.373 1.26607 23.377 0.544679 24.0987C-0.180953 24.824 -0.182166 26.0076 0.544679 26.7345C1.26486 27.4547 2.45362 27.4607 3.18017 26.7342C3.90034 26.0137 3.90034 24.8188 3.18017 24.0987Z" fill="#313E79"/>
<path d="M21.4692 8.44444C22.1906 7.72305 22.1894 6.52941 21.4692 5.80923C20.7436 5.0836 19.5551 5.08755 18.8337 5.80894C18.1081 6.53457 18.1069 7.71819 18.8337 8.44473C19.5539 9.16521 20.7424 9.17128 21.4692 8.44444Z" fill="#313E79"/>
<path d="M15.1914 15.0925C15.9128 14.3708 15.9116 13.1772 15.1914 12.457C14.4658 11.7314 13.2773 11.7353 12.5559 12.457C11.8303 13.1824 11.8291 14.366 12.5559 15.0925C13.2761 15.813 14.4646 15.8191 15.1914 15.0925Z" fill="#313E79"/>
<path d="M16.8582 3.83387C17.2262 3.46559 17.2252 2.88333 16.8582 2.51597C16.4899 2.148 15.9083 2.148 15.5403 2.51597C15.1723 2.88424 15.172 3.4659 15.54 3.83387C15.9083 4.20214 16.4899 4.20184 16.8582 3.83387Z" fill="#313E79"/>
<path d="M10.3956 10.297C10.7636 9.929 10.7627 9.34644 10.3956 8.97938C10.0276 8.61141 9.44597 8.61141 9.078 8.97938C8.70973 9.34735 8.70972 9.92929 9.07769 10.2973C9.44566 10.6652 10.0276 10.6652 10.3956 10.297Z" fill="#313E79"/>
<path d="M26.7336 3.18025C27.4593 2.45462 27.4541 1.26493 26.7339 0.544452C26.0083 -0.180878 24.825 -0.18209 24.0982 0.544452C23.378 1.26493 23.3716 2.4534 24.0984 3.18025C24.8186 3.90043 26.0122 3.90164 26.7336 3.18025Z" fill="#313E79"/>
<path d="M47.3231 34.2962C46.9548 34.6645 46.9561 35.2471 47.3231 35.6142C47.6911 35.9821 48.2727 35.9821 48.6407 35.6142C49.0087 35.2462 49.0087 34.6645 48.6407 34.2962C48.2727 33.9283 47.6911 33.9283 47.3231 34.2962Z" fill="#313E79"/>
<path d="M40.8588 40.76C40.4905 41.1283 40.4917 41.7109 40.8588 42.0779C41.2267 42.4459 41.8084 42.4459 42.1763 42.0779C42.5443 41.7097 42.5443 41.1283 42.1763 40.76C41.8084 40.392 41.2267 40.392 40.8588 40.76Z" fill="#313E79"/>
<path d="M42.7105 19.157C41.9916 19.8784 41.9852 21.0669 42.7108 21.7925C43.431 22.5127 44.6246 22.5139 45.346 21.7925C46.0717 21.0669 46.0677 19.8784 45.3463 19.157C44.6207 18.4314 43.4374 18.4302 42.7105 19.157Z" fill="#313E79"/>
<path d="M48.6393 17.1812C49.0073 16.8133 49.0073 16.2316 48.6393 15.8637C48.2714 15.4957 47.6897 15.4957 47.3218 15.8637C46.9535 16.2316 46.9544 16.8142 47.3218 17.1812C47.6897 17.5495 48.2714 17.5492 48.6393 17.1812Z" fill="#313E79"/>
<path d="M3.83346 16.8583C4.20143 16.4903 4.19962 15.9086 3.83256 15.5416C3.46459 15.1736 2.88293 15.1736 2.51587 15.5406C2.14881 15.9074 2.1479 16.4903 2.51587 16.8583C2.88384 17.2262 3.46549 17.2262 3.83346 16.8583Z" fill="#313E79"/>
<path d="M3.83331 33.9737C3.46534 33.6057 2.88369 33.6057 2.51572 33.9737C2.14775 34.342 2.14775 34.9236 2.51572 35.2916C2.88369 35.6596 3.46535 35.6599 3.83362 35.2916C4.20159 34.9236 4.20037 34.3408 3.83331 33.9737Z" fill="#313E79"/>
<path d="M9.08359 40.529C8.71562 40.8969 8.71562 41.4786 9.08359 41.8466C9.45156 42.2146 10.0332 42.2149 10.4015 41.8469C10.7695 41.4789 10.7683 40.896 10.4012 40.529C10.0332 40.161 9.45156 40.161 9.08359 40.529Z" fill="#313E79"/>
<path d="M35.2921 3.83407C35.6601 3.4658 35.6589 2.88324 35.2918 2.51588C34.9251 2.14912 34.3422 2.14791 33.9742 2.51588C33.6062 2.88415 33.6062 3.46581 33.9742 3.83378C34.3422 4.20175 34.9241 4.20204 35.2921 3.83407Z" fill="#313E79"/>
<path d="M41.8532 10.3956C42.2214 10.0273 42.2199 9.44476 41.8528 9.0777C41.4861 8.71064 40.9035 8.70973 40.5353 9.0777C40.1673 9.44567 40.1673 10.0273 40.5353 10.3953C40.9032 10.7633 41.4852 10.7636 41.8532 10.3956Z" fill="#313E79"/>
<path d="M31.9983 8.44473C32.724 7.7191 32.7252 6.53578 31.9983 5.80894C31.2782 5.08876 30.0897 5.08239 29.3629 5.80923C28.6427 6.52941 28.6415 7.72305 29.3629 8.44444C30.0885 9.17007 31.277 9.16612 31.9983 8.44473Z" fill="#313E79"/>
<path d="M35.9245 15.0061C36.6498 15.732 37.8386 15.728 38.56 15.0064C39.2853 14.281 39.2865 13.0974 38.56 12.3706C37.8395 11.6504 36.651 11.6443 35.9245 12.3709C35.204 13.091 35.2031 14.285 35.9245 15.0061Z" fill="#313E79"/>
<path d="M10.4146 23.4407C9.31952 24.5355 9.31952 26.2992 10.4143 27.3938C11.5088 28.4886 13.2729 28.4886 14.3677 27.3938C15.4622 26.2992 15.461 24.5343 14.3674 23.4407C13.2729 22.3462 11.5092 22.3462 10.4146 23.4407Z" fill="#313E79"/>
<path d="M20.929 33.955C22.0235 32.8605 22.0223 31.0955 20.9287 30.0019C19.8342 28.9071 18.0704 28.9071 16.9759 30.0019C15.8811 31.0967 15.8811 32.8605 16.9756 33.955C18.0701 35.0498 19.8342 35.0498 20.929 33.955Z" fill="#313E79"/>
<path d="M29.6849 42.7115C28.9644 43.432 28.9632 44.6256 29.6849 45.347C30.4102 46.0726 31.599 46.0684 32.3207 45.347C33.0469 44.6205 33.0457 43.4371 32.3204 42.7115C31.5999 41.9913 30.4114 41.985 29.6849 42.7115Z" fill="#313E79"/>
<path d="M24.4222 47.9749C23.6966 48.7006 23.7005 49.8891 24.4219 50.6104C25.1475 51.3361 26.3308 51.3373 27.0577 50.6104C27.7778 49.8903 27.783 48.7006 27.0574 47.9749C26.3372 47.2548 25.1436 47.2536 24.4222 47.9749Z" fill="#313E79"/>
<path d="M42.7108 29.6862C41.9851 30.4119 41.9891 31.6003 42.7104 32.3217C43.4361 33.0474 44.6194 33.0486 45.3462 32.3217C46.0676 31.6003 46.0716 30.4119 45.3459 29.6862C44.6258 28.966 43.4321 28.9648 42.7108 29.6862Z" fill="#313E79"/>
<path d="M36.2477 36.1493C35.5221 36.8749 35.5264 38.0634 36.2475 38.7848C36.9731 39.5104 38.1567 39.5116 38.8832 38.7848C39.6046 38.0634 39.6089 36.8749 38.883 36.1493C38.1628 35.4291 36.9691 35.4279 36.2477 36.1493Z" fill="#313E79"/>
<path d="M50.6112 24.4212C49.8911 23.701 48.7023 23.6949 47.9758 24.4215C47.2553 25.1417 47.2544 26.3353 47.9758 27.057C48.7011 27.7823 49.8899 27.7784 50.6112 27.057C51.3366 26.3314 51.3369 25.1468 50.6112 24.4212Z" fill="#313E79"/>
<path d="M34.2965 47.3228C33.9285 47.6908 33.9285 48.2724 34.2965 48.6404C34.6645 49.0084 35.247 49.0075 35.615 48.6395C35.983 48.2715 35.9821 47.6908 35.6141 47.3228C35.2461 46.9549 34.6648 46.9549 34.2965 47.3228Z" fill="#313E79"/>
<path d="M19.157 42.7107C18.4314 43.436 18.4301 44.6196 19.157 45.3461C19.8772 46.0666 21.0659 46.0727 21.7925 45.3461C22.5127 44.6256 22.5139 43.432 21.7925 42.7107C21.0669 41.985 19.8784 41.989 19.157 42.7107Z" fill="#313E79"/>
<path d="M15.8635 47.3218C15.4956 47.6897 15.4965 48.2723 15.8635 48.6393C16.2306 49.0064 16.8132 49.0073 17.1814 48.6393C17.5494 48.2714 17.5494 47.6897 17.1814 47.3218C16.8132 46.9538 16.2315 46.9538 15.8635 47.3218Z" fill="#313E79"/>
<path d="M27.3929 14.3686C28.4874 13.2738 28.4865 11.5088 27.3929 10.4152C26.2981 9.32067 24.5343 9.32067 23.4398 10.4152C22.345 11.51 22.345 13.2738 23.4395 14.3683C24.5343 15.4631 26.2981 15.4634 27.3929 14.3686Z" fill="#313E79"/>
<path d="M8.44474 29.3631C7.72426 28.6426 6.53063 28.6417 5.80924 29.3631C5.0836 30.0887 5.08785 31.2772 5.80924 31.9986C6.53487 32.7242 7.7182 32.7251 8.44474 31.9986C9.16401 31.2772 9.17037 30.0887 8.44474 29.3631Z" fill="#313E79"/>
<path d="M12.3709 35.9247C11.6453 36.6503 11.6492 37.8388 12.3706 38.5602C13.0962 39.2858 14.2796 39.287 15.0064 38.5602C15.7254 37.8388 15.7317 36.6503 15.0061 35.9247C14.2859 35.2045 13.092 35.2033 12.3709 35.9247Z" fill="#313E79"/>
<path d="M23.7615 36.788C22.6667 37.8828 22.6667 39.6469 23.7615 40.7414C24.8561 41.8359 26.6201 41.8359 27.7149 40.7411C28.8095 39.6466 28.8095 37.8828 27.7149 36.7883C26.6201 35.6935 24.8561 35.6935 23.7615 36.788Z" fill="#313E79"/>
<path d="M36.7869 23.7628C35.6921 24.8576 35.6921 26.6214 36.7869 27.7162C37.8814 28.8107 39.6452 28.8107 40.74 27.7159C41.8345 26.6214 41.8345 24.8576 40.74 23.7631C39.6452 22.6683 37.8814 22.6683 36.7869 23.7628Z" fill="#313E79"/>
<path d="M34.2771 34.1786C35.3716 33.0841 35.3716 31.3204 34.2771 30.2258C33.1823 29.131 31.4186 29.131 30.324 30.2255C29.2292 31.3204 29.2292 33.0841 30.324 34.1789C31.4186 35.2734 33.1823 35.2734 34.2771 34.1786Z" fill="#313E79"/>
<path d="M20.7049 20.6063C21.7994 19.5118 21.7994 17.748 20.7049 16.6535C19.6101 15.5587 17.8463 15.5587 16.7515 16.6532C15.657 17.748 15.657 19.5118 16.7518 20.6066C17.8463 21.7011 19.6101 21.7011 20.7049 20.6063Z" fill="#313E79"/>
<path d="M33.9539 20.9296C35.0484 19.8351 35.0475 18.0701 33.9539 16.9762C32.8591 15.8817 31.0953 15.8817 30.0008 16.9762C28.906 18.0713 28.906 19.8351 30.0005 20.9296C31.0954 22.0241 32.8591 22.0244 33.9539 20.9296Z" fill="#313E79"/>
<path d="M46.9561 4.63341C47.1401 4.44943 47.1395 4.15815 46.9561 3.97477C46.7727 3.79139 46.4815 3.79078 46.2972 3.97477C46.1132 4.15875 46.1132 4.44943 46.2972 4.63341C46.4812 4.8174 46.7721 4.8174 46.9561 4.63341Z" fill="#313E79"/>
<path d="M4.07647 46.195C3.89248 46.379 3.89248 46.67 4.07647 46.854C4.26045 47.0377 4.55113 47.038 4.73511 46.854C4.9191 46.67 4.91849 46.3787 4.73511 46.195C4.55173 46.0117 4.26045 46.0111 4.07647 46.195Z" fill="#313E79"/>
<path d="M46.1951 46.0966C46.0111 46.2806 46.0111 46.5716 46.1951 46.7556C46.3791 46.9395 46.6698 46.9395 46.8541 46.7556C47.0377 46.5716 47.0371 46.2803 46.8538 46.0966C46.6704 45.9136 46.3791 45.9126 46.1951 46.0966Z" fill="#313E79"/>
<path d="M4.3958 4.29731C4.21182 4.48129 4.21182 4.77227 4.3958 4.95595C4.57979 5.13994 4.87076 5.14025 5.05474 4.95626C5.23873 4.77228 5.23813 4.48099 5.05445 4.29731C4.87107 4.11393 4.57979 4.11332 4.3958 4.29731Z" fill="#313E79"/>
</svg>
