<svg width="203" height="49" viewBox="0 0 203 49" fill="none" xmlns="http://www.w3.org/2000/svg">
<path d="M202.104 48.2068H0.245605V36.7754H202.104V48.2068Z" fill="#F6A508"/>
<path d="M0.345215 20.8935V0.85791H9.10244C11.2497 0.85791 12.9668 1.43085 14.1976 2.54673C15.4572 3.66262 16.0859 5.09413 16.0859 6.89703C16.0859 8.69994 15.4572 10.1606 14.1976 11.2769C12.9668 12.3924 11.2497 12.9649 9.10244 12.9649H4.46651V20.8935H0.345215ZM4.46651 9.44443H8.81681C10.7917 9.44443 11.9646 8.55798 11.9646 6.95492C11.9646 5.35187 10.7917 4.46499 8.81681 4.46499H4.46651V9.44443Z" fill="#F6A508"/>
<path d="M19.6966 8.41398C21.1856 6.95458 23.0743 6.23883 25.3926 6.23883C27.7115 6.23883 29.6005 6.95458 31.0891 8.41398C32.5768 9.87338 33.3209 11.6484 33.3209 13.7374C33.3209 15.8846 32.5768 17.6584 31.0891 19.1195C29.6005 20.5497 27.7115 21.2655 25.3926 21.2655C23.0743 21.2655 21.1856 20.5497 19.6966 19.1195C18.2089 17.6584 17.4648 15.8846 17.4648 13.7374C17.4648 11.6197 18.2089 9.84422 19.6966 8.41398ZM25.3926 17.7454C26.5373 17.7454 27.4824 17.3732 28.2265 16.6008C28.9706 15.8267 29.3432 14.882 29.3432 13.7374C29.3432 12.5919 28.9706 11.6484 28.2265 10.9039C27.4824 10.1315 26.5373 9.75888 25.3926 9.75888C24.2476 9.75888 23.3037 10.1315 22.5596 10.9039C21.8151 11.6484 21.4437 12.5919 21.4437 13.7374C21.4437 14.882 21.8151 15.8267 22.5596 16.6008C23.3037 17.3732 24.2476 17.7454 25.3926 17.7454Z" fill="#F6A508"/>
<path d="M38.3639 19.2047C36.8474 17.8019 36.0742 15.9703 36.0742 13.7094C36.0742 11.4472 36.8474 9.64428 38.3639 8.29981C39.9095 6.92577 41.7415 6.23917 43.8875 6.23917C45.4623 6.23917 46.8642 6.55311 48.1237 7.18351V10.6178C46.8934 10.0457 45.663 9.75879 44.4888 9.75879C43.2296 9.75879 42.1708 10.131 41.3123 10.8764C40.482 11.5908 40.0531 12.5644 40.0531 13.7369C40.0531 14.911 40.482 15.885 41.3406 16.6278C42.1995 17.3727 43.2584 17.7453 44.4888 17.7453C45.9486 17.7453 47.2369 17.4297 48.3528 16.7714V20.2061C47.0079 20.9223 45.5193 21.2658 43.8313 21.2658C41.7124 21.2658 39.8807 20.5788 38.3639 19.2047Z" fill="#F6A508"/>
<path d="M52.5068 20.8932V6.61105H56.4845L60.6349 11.934L64.8137 6.61105H68.7921V20.8932H64.9856V12.0772L61.4364 16.5137H59.8338L56.3129 12.0772V20.8932H52.5068Z" fill="#F6A508"/>
<path d="M74.6071 8.41398C76.0952 6.95458 77.9843 6.23883 80.3027 6.23883C82.6211 6.23883 84.5102 6.95458 85.9988 8.41398C87.4869 9.87338 88.231 11.6484 88.231 13.7374C88.231 15.8846 87.4869 17.6584 85.9988 19.1195C84.5102 20.5497 82.6211 21.2655 80.3027 21.2655C77.9843 21.2655 76.0952 20.5497 74.6071 19.1195C73.1186 17.6584 72.3745 15.8846 72.3745 13.7374C72.3745 11.6197 73.1186 9.84422 74.6071 8.41398ZM80.3027 17.7454C81.4473 17.7454 82.3921 17.3732 83.1362 16.6008C83.8802 15.8267 84.2529 14.882 84.2529 13.7374C84.2529 12.5919 83.8802 11.6484 83.1362 10.9039C82.3921 10.1315 81.4473 9.75888 80.3027 9.75888C79.1577 9.75888 78.2134 10.1315 77.4693 10.9039C76.7252 11.6484 76.3534 12.5919 76.3534 13.7374C76.3534 14.882 76.7252 15.8267 77.4693 16.6008C78.2134 17.3732 79.1577 17.7454 80.3027 17.7454Z" fill="#F6A508"/>
<path d="M97.2235 9.98786L97.1673 11.9919C97.0806 13.9655 96.9944 15.2834 96.5081 17.0005C95.8215 19.4046 94.4475 20.9219 91.6136 21.0077C90.9262 21.0077 90.4124 20.9219 90.0972 20.7495V17.4585C90.3258 17.5438 90.6122 17.573 90.9262 17.573C91.8713 17.573 92.473 17.0296 92.7874 15.7414C93.1309 14.3961 93.2166 13.1931 93.2454 10.8185L93.3303 6.61105H105.668V20.8932H101.632V9.98786H97.2235Z" fill="#F6A508"/>
<path d="M111.624 8.41398C113.113 6.95458 115.002 6.23883 117.32 6.23883C119.639 6.23883 121.527 6.95458 123.016 8.41398C124.504 9.87338 125.248 11.6484 125.248 13.7374C125.248 15.8846 124.504 17.6584 123.016 19.1195C121.527 20.5497 119.639 21.2655 117.32 21.2655C115.002 21.2655 113.113 20.5497 111.624 19.1195C110.137 17.6584 109.392 15.8846 109.392 13.7374C109.392 11.6197 110.137 9.84422 111.624 8.41398ZM117.32 17.7454C118.465 17.7454 119.41 17.3732 120.154 16.6008C120.898 15.8267 121.27 14.882 121.27 13.7374C121.27 12.5919 120.898 11.6484 120.154 10.9039C119.41 10.1315 118.465 9.75888 117.32 9.75888C116.175 9.75888 115.23 10.1315 114.487 10.9039C113.742 11.6484 113.37 12.5919 113.37 13.7374C113.37 14.882 113.742 15.8267 114.487 16.6008C115.23 17.3732 116.175 17.7454 117.32 17.7454Z" fill="#F6A508"/>
<path d="M127.2 24.5273V17.5163H129.031C130.12 15.8267 130.693 13.1369 130.749 9.38655L130.807 6.61142H142.828V17.5163H145.174V24.5273H141.367V20.8927H131.063V24.5273H127.2ZM138.877 17.5163V9.98739H134.412C134.412 12.9645 133.983 15.4831 133.153 17.5163H138.877Z" fill="#F6A508"/>
<path d="M150.017 19.2048C148.499 17.8312 147.727 15.9991 147.727 13.7369C147.727 11.6197 148.413 9.84465 149.787 8.4144C151.161 6.95458 152.964 6.23883 155.169 6.23883C157.257 6.23883 158.888 6.98332 160.119 8.44314C161.351 9.90212 161.98 11.6767 161.98 13.7952V14.8545H151.734C152.163 16.8007 153.995 17.8312 156.513 17.8312C158.116 17.8312 159.634 17.4006 161.093 16.5712V19.8065C159.805 20.7783 158.001 21.2655 155.654 21.2655C153.422 21.2655 151.532 20.5789 150.017 19.2048ZM158.002 12.2775C157.916 10.7036 156.799 9.41537 154.996 9.41537C153.164 9.41537 151.934 10.5891 151.734 12.2775H158.002Z" fill="#F6A508"/>
<path d="M163.472 20.8932L169.625 13.2789L164.1 6.61105H168.653L173.003 11.9919V6.61105H176.981V11.9919L181.303 6.61105H185.854L180.33 13.2789L186.513 20.8932H181.704L176.981 14.7962V20.8932H173.003V14.7962L168.252 20.8932H163.472Z" fill="#F6A508"/>
<path d="M189.58 20.8927V6.61142H193.616V10.7893H197.051C200.629 10.7893 202.947 12.7646 202.947 15.8267C202.947 17.2873 202.46 18.4886 201.459 19.4612C200.456 20.406 199.055 20.8927 197.251 20.8927H189.58ZM193.616 17.7732H196.422C197.995 17.7732 198.912 17.0583 198.912 15.7975C198.912 14.5396 197.995 13.7943 196.422 13.7943H193.616V17.7732Z" fill="#F6A508"/>
</svg>
