<svg width="142" height="44" viewBox="0 0 142 44" fill="none" xmlns="http://www.w3.org/2000/svg">
<path d="M52.9833 8.22951V7.44554C50.6164 7.24674 49.2097 6.13268 49.2097 4.32843C49.2097 2.52418 50.6164 1.42138 52.9833 1.20757V0.412354H54.6487V1.20757C57.0156 1.41763 58.4223 2.52043 58.4223 4.32468C58.4223 6.12893 57.0156 7.24299 54.6487 7.44179V8.22576L52.9833 8.22951ZM52.9833 5.95638V2.70799C51.6329 2.87303 50.9202 3.45819 50.9202 4.33969C50.9202 5.22118 51.6329 5.79133 52.9833 5.95638ZM54.6487 2.70799V5.96763C55.9953 5.81759 56.723 5.21743 56.723 4.33969C56.723 3.46194 55.9953 2.86178 54.6487 2.70799Z" fill="#333333"/>
<path d="M59.2327 4.32853C59.2327 3.24515 59.663 2.20615 60.4291 1.44008C61.1952 0.674022 62.2342 0.243652 63.3175 0.243652C64.4009 0.243652 65.4399 0.674022 66.206 1.44008C66.972 2.20615 67.4024 3.24515 67.4024 4.32853C67.4024 5.4119 66.972 6.45091 66.206 7.21697C65.4399 7.98303 64.4009 8.4134 63.3175 8.4134C62.2342 8.4134 61.1952 7.98303 60.4291 7.21697C59.663 6.45091 59.2327 5.4119 59.2327 4.32853ZM65.6882 4.32853C65.6882 2.86187 64.7504 1.75907 63.31 1.75907C61.8696 1.75907 60.9431 2.86187 60.9431 4.32853C60.9431 5.79518 61.8696 6.89423 63.31 6.89423C64.7504 6.89423 65.6882 5.78018 65.6882 4.32853Z" fill="#333333"/>
<path d="M68.5728 8.22951V0.412354H72.23C73.9292 0.412354 74.8557 1.56017 74.8557 2.93305C74.8557 4.30593 73.918 5.45374 72.23 5.45374H70.2382V8.22951H68.5728ZM73.1565 2.93305C73.1583 2.78603 73.129 2.6403 73.0707 2.50534C73.0123 2.37039 72.9262 2.24924 72.8179 2.14979C72.7096 2.05035 72.5816 1.97484 72.4422 1.92818C72.3027 1.88152 72.155 1.86477 72.0087 1.87901H70.2382V3.98709H72.0087C72.1548 4.00014 72.302 3.98255 72.4409 3.93546C72.5798 3.88836 72.7074 3.81279 72.8154 3.71359C72.9234 3.61438 73.0096 3.49371 73.0683 3.35931C73.1271 3.22491 73.1571 3.07972 73.1565 2.93305Z" fill="#333333"/>
<path d="M75.1706 7.80939L75.8045 6.45902C76.0844 6.70808 76.4397 6.85602 76.8136 6.87914C77.3875 6.87914 77.6463 6.64657 77.9389 6.07266L75.0693 0.412354H76.9449L78.8766 4.561L80.8347 0.412354H82.7102L79.4881 6.72909C79.0079 7.68186 78.3252 8.37205 76.9336 8.37205C76.2996 8.38634 75.6791 8.18829 75.1706 7.80939Z" fill="#333333"/>
<path d="M90.2461 8.22951V2.75675L88.0442 8.22951H87.3165L85.1147 2.75675V8.22951H83.4492V0.412354H85.7824L87.6804 5.1349L89.5784 0.412354H91.9228V8.22951H90.2461Z" fill="#333333"/>
<path d="M49.2097 16.0168C49.2097 13.6123 51.0252 11.9731 53.3696 11.9731C54.0388 11.954 54.6999 12.1227 55.278 12.4602C55.8562 12.7976 56.3282 13.2903 56.6405 13.8824L55.2114 14.5876C55.033 14.2525 54.7681 13.9714 54.4442 13.7735C54.1202 13.5755 53.7492 13.4681 53.3696 13.4623C53.037 13.4597 52.7073 13.5254 52.4011 13.6552C52.0948 13.785 51.8183 13.9761 51.5888 14.2169C51.3593 14.4577 51.1815 14.7429 51.0665 15.0551C50.9515 15.3672 50.9017 15.6996 50.9202 16.0318C50.9023 16.3636 50.9525 16.6956 51.0677 17.0073C51.1829 17.319 51.3608 17.6038 51.5902 17.8442C51.8197 18.0845 52.096 18.2754 52.402 18.4049C52.708 18.5345 53.0373 18.6 53.3696 18.5975C53.7498 18.5945 54.122 18.4882 54.4464 18.29C54.7708 18.0918 55.0352 17.8091 55.2114 17.4722L56.6405 18.1624C56.3285 18.7558 55.857 19.2504 55.2791 19.5903C54.7012 19.9303 54.0399 20.1022 53.3696 20.0866C51.0252 20.0604 49.2097 18.4174 49.2097 16.0168Z" fill="#333333"/>
<path d="M59.4427 19.9179V13.5861H57.1658V12.0857H63.3925V13.5861H61.1194V19.9179H59.4427Z" fill="#333333"/>
<path d="M63.7452 19.4977L64.3753 18.1624C64.6552 18.4114 65.0105 18.5594 65.3844 18.5825C65.9583 18.5825 66.2171 18.3499 66.5097 17.776L63.6401 12.0857H65.5157L67.4474 16.2343L69.4055 12.0857H71.281L68.0589 18.4024C67.5787 19.3552 66.896 20.0454 65.5044 20.0454C64.8735 20.0632 64.2545 19.8705 63.7452 19.4977Z" fill="#333333"/>
<path d="M71.551 18.5825C72.3462 18.4775 72.7926 18.1624 73.0514 16.0993L73.4978 12.0857H79.0531V18.4625H79.7545V21.3695H78.0928V19.9179H73.2165V21.362H71.551V18.5825ZM73.7416 18.4549H77.3764V13.5861H74.9982L74.6906 16.2118C74.5744 17.2696 74.2368 17.9973 73.7416 18.4625V18.4549Z" fill="#333333"/>
<path d="M80.7297 19.9179V12.0857H86.2625V13.5861H82.3952V15.2366H86.18V16.7032H82.3952V18.4625H86.2625V19.9254L80.7297 19.9179Z" fill="#333333"/>
<path d="M92.9206 19.9179V16.6357H89.2295V19.9179H87.5491V12.0857H89.2145V15.1578H92.9055V12.0857H94.5823V19.9179H92.9206Z" fill="#333333"/>
<path d="M97.6093 14.2913C97.6093 15.3116 98.1382 15.7129 99.0385 15.7129C99.5505 15.7223 100.06 15.6345 100.539 15.4541V12.0857H102.178V19.9179H100.528V16.917C99.9806 17.0851 99.4119 17.1723 98.8397 17.1758C96.8479 17.1758 95.9326 16.028 95.9326 14.2913V12.0857H97.6093V14.2913Z" fill="#333333"/>
<path d="M103.739 19.9179V12.0857H109.271V13.5861H105.404V15.2366H109.189V16.7032H105.404V18.4625H109.271V19.9254L103.739 19.9179Z" fill="#333333"/>
<path d="M110.198 16.0168C110.198 13.6124 112.017 11.9732 114.361 11.9732C115.03 11.9538 115.691 12.1225 116.268 12.46C116.846 12.7976 117.317 13.2904 117.629 13.8824L116.199 14.5876C116.022 14.2526 115.758 13.9714 115.434 13.7734C115.111 13.5754 114.74 13.468 114.361 13.4623C114.029 13.4598 113.699 13.5254 113.392 13.6552C113.086 13.7849 112.809 13.976 112.579 14.2168C112.35 14.4575 112.171 14.7427 112.056 15.0548C111.941 15.367 111.89 15.6995 111.908 16.0318C111.89 16.3639 111.941 16.6962 112.056 17.0082C112.172 17.3202 112.35 17.6051 112.58 17.8456C112.809 18.086 113.086 18.2767 113.393 18.4061C113.699 18.5354 114.029 18.6005 114.361 18.5975C114.741 18.5942 115.113 18.4878 115.436 18.2896C115.76 18.0914 116.024 17.8088 116.199 17.4722L117.629 18.1624C117.318 18.7558 116.847 19.2505 116.269 19.5905C115.692 19.9305 115.031 20.1024 114.361 20.0867C112.017 20.0604 110.198 18.4174 110.198 16.0168Z" fill="#333333"/>
<path d="M123.27 19.9179L120.9 16.7895L120.292 17.5172V19.9179H118.626V12.0857H120.292V15.5779L123.056 12.0857H125.108L122.002 15.7542L125.322 19.9028L123.27 19.9179Z" fill="#333333"/>
<path d="M126.083 19.9179V12.0857H127.745V17.1533L131.369 12.0857H133.079V19.9179H131.436V14.6664L127.708 19.9179H126.083Z" fill="#333333"/>
<path d="M139.726 19.9179L137.768 17.0596L135.799 19.9179H133.818L136.658 15.9117L133.994 12.0857H135.975L137.768 14.7602L139.538 12.0857H141.564L138.901 15.8855L141.74 19.9028L139.726 19.9179Z" fill="#333333"/>
<path d="M49.2097 27.705C49.2015 26.8951 49.4343 26.101 49.8785 25.4236C50.3227 24.7463 50.9582 24.2163 51.7043 23.901C52.4504 23.5857 53.2734 23.4994 54.0687 23.6529C54.864 23.8065 55.5957 24.193 56.1708 24.7633C56.7459 25.3337 57.1385 26.0621 57.2986 26.8561C57.4587 27.6501 57.3792 28.4738 57.0701 29.2225C56.7611 29.9712 56.2364 30.6111 55.5628 31.0609C54.8892 31.5107 54.097 31.75 53.2871 31.7486C52.7488 31.77 52.2118 31.6803 51.7097 31.4851C51.2076 31.2899 50.751 30.9934 50.3685 30.614C49.986 30.2347 49.6857 29.7806 49.4863 29.2801C49.287 28.7796 49.1928 28.2435 49.2097 27.705ZM55.6652 27.705C55.6652 26.2383 54.7275 25.1355 53.2871 25.1355C51.8467 25.1355 50.9202 26.2383 50.9202 27.705C50.9202 29.1716 51.8467 30.2707 53.2871 30.2707C54.7275 30.2707 55.6652 29.1566 55.6652 27.705Z" fill="#333333"/>
<path d="M64.2589 23.7891V25.2557H60.2153V26.6361H62.2446C63.9063 26.6361 64.8328 27.7614 64.8328 29.123C64.8328 30.4847 63.9175 31.5912 62.2446 31.5912H58.5498V23.7891H64.2589ZM60.2153 28.1027V30.1433H62.0195C62.1608 30.1554 62.3032 30.1381 62.4374 30.0923C62.5717 30.0465 62.695 29.9734 62.7995 29.8775C62.904 29.7815 62.9875 29.6649 63.0446 29.5351C63.1016 29.4052 63.1311 29.2649 63.1311 29.123C63.1311 28.9812 63.1016 28.8409 63.0446 28.711C62.9875 28.5811 62.904 28.4645 62.7995 28.3686C62.695 28.2727 62.5717 28.1995 62.4374 28.1538C62.3032 28.108 62.1608 28.0906 62.0195 28.1027H60.2153Z" fill="#333333"/>
<path d="M67.6687 31.5912V25.2557H65.3806V23.7891H69.3417V26.5686H71.326C73.014 26.5686 73.9517 27.7276 73.9517 29.0855C73.9517 30.4434 73.014 31.6062 71.326 31.6062L67.6687 31.5912ZM69.3417 28.0165V30.1283H71.1009C71.2449 30.1369 71.3891 30.1159 71.5247 30.0668C71.6602 30.0176 71.7843 29.9412 71.8893 29.8423C71.9942 29.7434 72.0779 29.6241 72.135 29.4917C72.1922 29.3593 72.2217 29.2166 72.2217 29.0724C72.2217 28.9282 72.1922 28.7855 72.135 28.6531C72.0779 28.5207 71.9942 28.4014 71.8893 28.3025C71.7843 28.2036 71.6602 28.1272 71.5247 28.078C71.3891 28.0288 71.2449 28.0079 71.1009 28.0165H69.3417Z" fill="#333333"/>
<path d="M74.9868 31.5912V23.7891H80.5196V25.2557H76.6485V26.9062H80.4221V28.3728H76.6335V30.1433H80.5046V31.5912H74.9868Z" fill="#333333"/>
<path d="M81.3523 30.2708C82.1475 30.1658 82.5939 29.8507 82.8527 27.7877L83.3103 23.7891H88.8694V30.1433H89.5708V33.0504H87.9054V31.5912H83.029V33.0354H81.3673L81.3523 30.2708ZM83.5429 30.1433H87.1739V25.267H84.792L84.4882 27.9152C84.4507 28.7473 84.1152 29.5381 83.5429 30.1433Z" fill="#333333"/>
<path d="M90.5273 31.5912V23.7891H92.1928V28.8417L95.8013 23.7891H97.5118V31.5912H95.8463V26.3398L92.1215 31.5912H90.5273Z" fill="#333333"/>
<path d="M104.429 31.5912V28.3241H100.734V31.5912H99.0723V23.7891H100.734V26.8612H104.429V23.7891H106.105V31.5912H104.429Z" fill="#333333"/>
<path d="M107.644 31.5912V23.7891H113.176V25.2557H109.305V26.9062H113.094V28.3728H109.305V30.1433H113.173V31.5912H107.644Z" fill="#333333"/>
<path d="M119.834 31.5912V28.3241H116.143V31.5912H114.478V23.7891H116.143V26.8612H119.834V23.7891H121.511V31.5912H119.834Z" fill="#333333"/>
<path d="M123.045 31.5912V23.7891H124.711V28.8417L128.334 23.7891H130.045V31.5912H128.379V26.3398L124.654 31.5912H123.045Z" fill="#333333"/>
<path d="M131.594 31.5908V23.7887H133.255V28.8413L136.879 23.7887H138.589V31.5908H136.924V26.3394L133.199 31.5908H131.594ZM135.097 23.4098C134.697 23.4094 134.302 23.316 133.944 23.137C133.586 22.958 133.275 22.6982 133.034 22.3783L133.687 21.8381C133.845 22.0626 134.055 22.2457 134.299 22.3722C134.543 22.4986 134.813 22.5646 135.088 22.5646C135.362 22.5646 135.633 22.4986 135.877 22.3722C136.121 22.2457 136.331 22.0626 136.489 21.8381L137.145 22.3895C136.91 22.7114 136.601 22.973 136.245 23.1529C135.89 23.3329 135.496 23.426 135.097 23.4248V23.4098Z" fill="#333333"/>
<path d="M48.8685 42.8741L49.5024 41.5387C49.7807 41.7878 50.1349 41.9358 50.5077 41.9588C51.0853 41.9588 51.3404 41.7263 51.633 41.1486L48.7634 35.4771H50.6389L52.5745 39.6257L54.54 35.4771H56.4155L53.1934 41.7938C52.7133 42.7428 52.0343 43.4367 50.6389 43.4367C50.0025 43.4521 49.3792 43.2541 48.8685 42.8741Z" fill="#333333"/>
<path d="M60.5416 43.2942V42.5102C58.1747 42.3114 56.7681 41.1974 56.7681 39.3931C56.7681 37.5889 58.1747 36.4861 60.5416 36.2723V35.4771H62.2071V36.2723C64.574 36.4861 65.9806 37.5851 65.9806 39.3931C65.9806 41.2011 64.574 42.3114 62.2071 42.5102V43.2942H60.5416ZM60.5416 41.0211V37.7614C59.195 37.9265 58.4785 38.5116 58.4785 39.3931C58.4785 40.2746 59.195 40.856 60.5416 41.0211ZM62.2071 37.7614V41.0211C63.5574 40.8673 64.2814 40.2709 64.2814 39.3931C64.2814 38.5154 63.5424 37.9265 62.2071 37.7614Z" fill="#333333"/>
<path d="M66.7909 39.3932C66.7827 38.5835 67.0154 37.7895 67.4594 37.1123C67.9034 36.435 68.5387 35.905 69.2846 35.5896C70.0305 35.2742 70.8533 35.1877 71.6485 35.3409C72.4436 35.4941 73.1754 35.8802 73.7506 36.4502C74.3259 37.0202 74.7188 37.7483 74.8793 38.542C75.0399 39.3358 74.9609 40.1593 74.6524 40.9081C74.3439 41.6569 73.8198 42.297 73.1467 42.7473C72.4736 43.1975 71.6818 43.4375 70.872 43.4368C70.3335 43.4582 69.7964 43.3685 69.2941 43.1733C68.7918 42.9782 68.335 42.6817 67.9522 42.3024C67.5694 41.9231 67.2687 41.4691 67.0689 40.9686C66.8692 40.4681 66.7745 39.9319 66.7909 39.3932ZM73.2502 39.3932C73.2502 37.9266 72.3124 36.8238 70.872 36.8238C69.4316 36.8238 68.5013 37.9266 68.5013 39.3932C68.5013 40.8599 69.4278 41.9589 70.872 41.9589C72.3161 41.9589 73.2502 40.8449 73.2502 39.3932Z" fill="#333333"/>
<path d="M78.9217 43.2943V41.9927C82.1213 39.6258 83.0478 38.8193 83.0478 37.8666C83.0478 37.1876 82.4251 36.8463 81.78 36.8463C81.3865 36.8406 80.9962 36.9182 80.6349 37.074C80.2735 37.2298 79.9492 37.4603 79.6831 37.7503L78.7341 36.6475C79.1159 36.2351 79.5807 35.9082 80.0979 35.6884C80.6152 35.4686 81.1731 35.3608 81.735 35.3721C83.4004 35.3721 84.7358 36.3099 84.7358 37.8666C84.7358 39.2057 83.633 40.3648 81.6037 41.8427H84.792V43.3056L78.9217 43.2943Z" fill="#333333"/>
<path d="M85.7937 39.393C85.7937 37.3749 86.7915 35.3606 89.0271 35.3606C91.2627 35.3606 92.2642 37.3749 92.2642 39.393C92.2642 41.411 91.2552 43.4366 89.0271 43.4366C86.799 43.4366 85.7937 41.4073 85.7937 39.393ZM90.565 39.393C90.565 37.9488 90.1411 36.8348 89.0271 36.8348C87.913 36.8348 87.4817 37.9601 87.4817 39.393C87.4817 40.8259 87.9018 41.9587 89.0271 41.9587C90.1524 41.9587 90.55 40.8334 90.55 39.393H90.565Z" fill="#333333"/>
<path d="M93.2132 43.2943V41.9927C96.4128 39.6258 97.3393 38.8193 97.3393 37.8665C97.3393 37.1876 96.7204 36.8462 96.0752 36.8462C95.6812 36.8405 95.2904 36.9181 94.9284 37.0739C94.5664 37.2296 94.2414 37.4601 93.9746 37.7502L93.0256 36.6474C93.4077 36.2354 93.8726 35.9088 94.3897 35.689C94.9069 35.4692 95.4646 35.3612 96.0265 35.3721C97.6919 35.3721 99.0273 36.3098 99.0273 37.8665C99.0273 39.2056 97.9245 40.3647 95.8989 41.8426H99.0873V43.3055L93.2132 43.2943Z" fill="#333333"/>
<path d="M100.093 39.393C100.093 37.3749 101.09 35.3606 103.33 35.3606C105.569 35.3606 106.563 37.3749 106.563 39.393C106.563 41.411 105.558 43.4366 103.33 43.4366C101.102 43.4366 100.093 41.4073 100.093 39.393ZM104.864 39.393C104.864 37.9488 104.444 36.8348 103.33 36.8348C102.216 36.8348 101.78 37.9601 101.78 39.393C101.78 40.8259 102.204 41.9587 103.33 41.9587C104.455 41.9587 104.864 40.8334 104.864 39.393Z" fill="#333333"/>
<g clip-path="url(#clip0)">
<path d="M40.6089 5.35016V38.6125C40.6089 39.2104 40.3715 39.7838 39.949 40.2066C39.5264 40.6293 38.9532 40.8669 38.3556 40.8669H5.12259C4.52823 40.8619 3.9599 40.6222 3.54137 40.2C3.12283 39.7777 2.88801 39.2072 2.88803 38.6125V5.35016C2.89298 4.75554 3.13257 4.18696 3.55462 3.76825C3.97667 3.34954 4.54699 3.11461 5.14137 3.11463H38.3894C38.9779 3.12344 39.5396 3.36227 39.9544 3.78004C40.3692 4.1978 40.6041 4.76135 40.6089 5.35016ZM0 2.47967V41.5018C0 42.0997 0.237405 42.6731 0.659988 43.0959C1.08257 43.5186 1.65572 43.7561 2.25334 43.7561H41.2587C41.8563 43.7561 42.4294 43.5186 42.852 43.0959C43.2746 42.6731 43.512 42.0997 43.512 41.5018V2.47967C43.507 1.88505 43.2674 1.31647 42.8454 0.897758C42.4234 0.479047 41.853 0.24412 41.2587 0.244141H2.25334C1.65896 0.24412 1.08864 0.479047 0.66659 0.897758C0.244543 1.31647 0.0049532 1.88505 0 2.47967H0Z" fill="#333333"/>
<path d="M16.5659 24.6264L25.385 40.0107C25.4558 40.1289 25.4938 40.264 25.495 40.4018C25.4962 40.5397 25.4606 40.6754 25.3918 40.7948C25.323 40.9142 25.2236 41.0131 25.1039 41.081C24.9842 41.149 24.8485 41.1837 24.7109 41.1814H7.73562C7.60387 41.1806 7.47453 41.1459 7.35993 41.0808C7.24533 41.0157 7.14928 40.9222 7.08094 40.8094C7.0126 40.6965 6.97426 40.568 6.96955 40.4361C6.96485 40.3041 6.99394 40.1732 7.05406 40.0557L15.2178 24.6714C15.2797 24.5477 15.3737 24.4431 15.49 24.3684C15.6063 24.2938 15.7405 24.252 15.8785 24.2474C16.0165 24.2427 16.1532 24.2755 16.2742 24.3422C16.3952 24.4089 16.496 24.5071 16.5659 24.6264ZM2.94599 44.0669H29.6878C29.823 44.0674 29.9559 44.0321 30.0731 43.9646C30.1903 43.8972 30.2877 43.7999 30.3553 43.6826C30.423 43.5653 30.4585 43.4322 30.4583 43.2968C30.4582 43.1613 30.4223 43.0283 30.3544 42.9112L16.4723 18.6565C16.4035 18.5373 16.3041 18.4386 16.1844 18.3707C16.0647 18.3029 15.9291 18.2683 15.7916 18.2706C15.6541 18.2729 15.5198 18.312 15.4024 18.3838C15.2851 18.4556 15.189 18.5575 15.1242 18.6791L2.26443 42.9337C2.20254 43.0514 2.17203 43.1832 2.17586 43.3162C2.17968 43.4492 2.2177 43.579 2.28625 43.6929C2.35479 43.8069 2.45153 43.9012 2.56711 43.9667C2.68269 44.0322 2.81319 44.0667 2.94599 44.0669Z" fill="#333333"/>
<path d="M33.7112 12.8317L49.5748 40.3354C49.6489 40.4515 49.6896 40.5857 49.6924 40.7232C49.6952 40.8608 49.66 40.9965 49.5906 41.1155C49.5213 41.2346 49.4205 41.3324 49.2991 41.3983C49.1778 41.4643 49.0406 41.4958 48.9025 41.4895H18.3613C18.2288 41.488 18.0988 41.4529 17.9837 41.3873C17.8686 41.3218 17.7723 41.2281 17.7038 41.1152C17.6353 41.0022 17.5969 40.8737 17.5924 40.7418C17.5878 40.6099 17.6172 40.4791 17.6777 40.3617L32.3515 12.8505C32.4172 12.7289 32.5144 12.6271 32.633 12.5555C32.7515 12.4839 32.8871 12.4451 33.0258 12.4432C33.1645 12.4413 33.3011 12.4763 33.4217 12.5446C33.5422 12.6129 33.6421 12.712 33.7112 12.8317ZM13.5342 44.3767H53.9109C54.049 44.383 54.1862 44.3515 54.3075 44.2855C54.4288 44.2196 54.5297 44.1218 54.599 44.0027C54.6683 43.8837 54.7035 43.748 54.7008 43.6105C54.698 43.4729 54.6573 43.3387 54.5832 43.2226L33.613 6.84672C33.5436 6.72722 33.4433 6.62836 33.3226 6.56038C33.2019 6.4924 33.0652 6.45777 32.9265 6.46007C32.7878 6.46237 32.6523 6.50152 32.5339 6.57347C32.4156 6.64541 32.3187 6.74754 32.2533 6.86928L12.8468 43.2451C12.7779 43.362 12.742 43.4951 12.7429 43.6306C12.7438 43.7661 12.7815 43.8988 12.8519 44.0147C12.9223 44.1306 13.0229 44.2255 13.143 44.2892C13.2631 44.3529 13.3983 44.3831 13.5342 44.3767Z" fill="#333333"/>
<path d="M15.0607 5.70301L34.983 40.3276C35.0513 40.4449 35.0874 40.5782 35.0876 40.7139C35.0877 40.8497 35.052 40.983 34.9839 41.1005C34.9158 41.218 34.8179 41.3155 34.7 41.3832C34.582 41.4508 34.4483 41.4861 34.3123 41.4856H-4.04005C-4.1727 41.4852 -4.30301 41.4507 -4.41842 41.3854C-4.53383 41.3202 -4.63045 41.2264 -4.69898 41.113C-4.76751 40.9997 -4.80563 40.8707 -4.80968 40.7384C-4.81372 40.6061 -4.78356 40.475 -4.72208 40.3577L13.708 5.72557C13.7679 5.59837 13.8624 5.49049 13.9808 5.41418C14.0991 5.33786 14.2365 5.29616 14.3773 5.29381C14.5182 5.29147 14.6569 5.32856 14.7777 5.40089C14.8985 5.47322 14.9965 5.57788 15.0607 5.70301ZM-8.85952 44.377H39.3051C39.4428 44.3833 39.5797 44.3517 39.7007 44.2858C39.8218 44.2198 39.9224 44.122 39.9916 44.003C40.0607 43.8839 40.0958 43.7482 40.0931 43.6106C40.0903 43.473 40.0497 43.3389 39.9758 43.2227L14.9628 -0.278932C14.8986 -0.404059 14.8005 -0.508725 14.6797 -0.581054C14.5589 -0.653382 14.4202 -0.690476 14.2793 -0.688127C14.1385 -0.685778 14.0011 -0.64408 13.8828 -0.567764C13.7645 -0.491448 13.67 -0.38357 13.61 -0.256373L-9.54532 43.2415C-9.60759 43.3594 -9.63829 43.4915 -9.63444 43.6247C-9.6306 43.758 -9.59234 43.888 -9.52337 44.0022C-9.4544 44.1164 -9.35705 44.2109 -9.24075 44.2766C-9.12445 44.3422 -8.99314 44.3768 -8.85952 44.377Z" fill="#333333"/>
</g>
<defs>
<clipPath id="clip0">
<rect y="0.244141" width="43.512" height="43.512" rx="3" fill="white"/>
</clipPath>
</defs>
</svg>
