<svg width="135" height="52" viewBox="0 0 135 52" fill="none" xmlns="http://www.w3.org/2000/svg">
<path d="M58.4768 11.3738H56.8025V10.5923C55.7923 10.559 54.8157 10.2214 54 9.62371C53.6766 9.36425 53.4182 9.03281 53.2452 8.65575C53.0722 8.27869 52.9894 7.86641 53.0035 7.45169C52.9903 7.03816 53.0735 6.62723 53.2465 6.2515C53.4194 5.87576 53.6774 5.54554 54 5.28701C54.8161 4.68859 55.7918 4.34752 56.8025 4.30741V3.50391H58.4768V4.30741C59.4866 4.34908 60.4616 4.6886 61.2793 5.28335C61.6037 5.54129 61.8632 5.87182 62.0369 6.24841C62.2106 6.62499 62.2937 7.03712 62.2795 7.45169C62.2935 7.86641 62.2108 8.27869 62.0378 8.65575C61.8648 9.03281 61.6063 9.36425 61.283 9.62371C60.467 10.2208 59.4905 10.5583 58.4804 10.5923L58.4768 11.3738ZM55.2565 6.34C55.0904 6.47118 54.9561 6.63837 54.8637 6.82902C54.7714 7.01967 54.7234 7.2288 54.7234 7.44069C54.7234 7.65258 54.7714 7.86171 54.8637 8.05235C54.9561 8.243 55.0904 8.4102 55.2565 8.54137C55.7116 8.8625 56.2469 9.05051 56.8025 9.08438V5.78232C56.2447 5.82566 55.7097 6.02245 55.2565 6.35101V6.34ZM60.0191 8.54137C60.1871 8.41145 60.3232 8.24468 60.4168 8.05387C60.5104 7.86305 60.5591 7.65329 60.5591 7.44069C60.5591 7.22809 60.5104 7.01832 60.4168 6.82751C60.3232 6.6367 60.1871 6.46992 60.0191 6.34C59.5618 6.02063 59.0258 5.83283 58.4694 5.797V9.09905C59.0294 9.06427 59.5687 8.87367 60.0264 8.54871L60.0191 8.54137Z" fill="white"/>
<path d="M67.1925 11.5241C66.6515 11.5408 66.1128 11.4473 65.609 11.2493C65.1052 11.0512 64.6468 10.7528 64.2617 10.372C63.8756 9.99009 63.573 9.53194 63.3731 9.02666C63.1732 8.52139 63.0803 7.98001 63.1003 7.43689C63.0807 6.89381 63.1738 6.35257 63.3737 5.84736C63.5736 5.34215 63.8759 4.88396 64.2617 4.50173C64.6468 4.12098 65.1052 3.82255 65.609 3.62452C66.1128 3.42648 66.6515 3.33298 67.1925 3.34968C67.7369 3.33043 68.2796 3.42195 68.7878 3.61871C69.2959 3.81546 69.759 4.11335 70.1489 4.49439C70.5341 4.87702 70.8361 5.33528 71.0359 5.8404C71.2358 6.34551 71.3292 6.88656 71.3102 7.42955C71.3294 7.97257 71.2361 8.51368 71.0362 9.01883C70.8364 9.52397 70.5343 9.98222 70.1489 10.3647C69.7602 10.7484 69.2977 11.049 68.7895 11.2483C68.2813 11.4476 67.738 11.5414 67.1925 11.5241ZM65.467 9.30438C65.6914 9.5365 65.9601 9.72106 66.2571 9.84711C66.5542 9.97316 66.8735 10.0381 67.1961 10.0381C67.5187 10.0381 67.8381 9.97316 68.1351 9.84711C68.4322 9.72106 68.7009 9.5365 68.9253 9.30438C69.3827 8.798 69.6269 8.1341 69.6067 7.45156C69.6321 6.7704 69.3946 6.1056 68.9436 5.59508C68.7192 5.36296 68.4505 5.17839 68.1534 5.05235C67.8564 4.9263 67.5371 4.86135 67.2144 4.86135C66.8918 4.86135 66.5725 4.9263 66.2755 5.05235C65.9784 5.17839 65.7097 5.36296 65.4853 5.59508C65.0382 6.10748 64.8036 6.77162 64.8295 7.45156C64.7984 8.12796 65.0264 8.79072 65.467 9.30438Z" fill="white"/>
<path d="M74.164 11.3739H72.4897V3.50399H76.1532C76.5101 3.48405 76.8671 3.53903 77.2015 3.66539C77.5359 3.79176 77.8402 3.98672 78.0949 4.23778C78.327 4.47759 78.5088 4.7615 78.6296 5.07278C78.7504 5.38406 78.8078 5.71641 78.7983 6.05024C78.8067 6.38402 78.7481 6.7161 78.6261 7.0268C78.504 7.3375 78.3209 7.6205 78.0876 7.85903C77.8337 8.10915 77.5306 8.30357 77.1976 8.4299C76.8645 8.55624 76.5089 8.61172 76.1532 8.59282H74.1493L74.164 11.3739ZM75.9444 7.09589C76.2483 7.1085 76.5456 7.00488 76.776 6.80604C76.8841 6.70914 76.9694 6.58946 77.0258 6.4556C77.0822 6.32174 77.1082 6.17704 77.1021 6.03189C77.1082 5.88729 77.0821 5.74314 77.0257 5.60988C76.9693 5.47662 76.884 5.35759 76.776 5.26141C76.5456 5.06257 76.2483 4.95895 75.9444 4.97157H74.164V7.09589H75.9444Z" fill="white"/>
<path d="M80.9123 11.5242C80.5655 11.5258 80.2205 11.4726 79.8902 11.3665C79.6121 11.2846 79.3539 11.1459 79.1319 10.9592L79.7693 9.61271C80.0481 9.86805 80.4068 10.0185 80.7841 10.0383C81.0203 10.0506 81.2541 9.98626 81.4509 9.85486C81.6512 9.67948 81.8133 9.46466 81.9271 9.2238L79.022 3.50391H80.9233L82.8686 7.70485L84.8286 3.52225H86.7263L83.4805 9.89155C83.2553 10.3767 82.9128 10.7979 82.484 11.117C82.0162 11.4155 81.466 11.5581 80.9123 11.5242Z" fill="white"/>
<path d="M95.9837 11.3738H94.2985V5.87038L92.0784 11.3738H91.3457L89.1476 5.87038V11.3738H87.4697V3.50391H89.818L91.7304 8.27354L93.6391 3.50391H95.9837V11.3738Z" fill="white"/>
<path d="M7.90212 23.3014C7.35359 23.3184 6.80711 23.2267 6.29409 23.0315C5.78107 22.8363 5.31161 22.5415 4.91271 22.1641C4.51725 21.7874 4.20601 21.3311 3.99952 20.8251C3.79302 20.3192 3.69597 19.7752 3.71474 19.2289C3.69573 18.6826 3.79268 18.1385 3.99919 17.6326C4.2057 17.1266 4.51706 16.6703 4.91271 16.2938C5.31132 15.9156 5.78064 15.6202 6.29367 15.4244C6.80671 15.2285 7.35334 15.1362 7.90212 15.1527C8.57806 15.1246 9.24788 15.2911 9.83224 15.6325C10.4166 15.9738 10.891 16.4758 11.1993 17.0789L9.75952 17.787C9.58289 17.4513 9.3214 17.168 9.00117 16.9652C8.67463 16.7514 8.29225 16.639 7.90212 16.6423C7.57214 16.6323 7.24379 16.6925 6.93876 16.819C6.63374 16.9455 6.35899 17.1354 6.13265 17.3761C5.68361 17.8893 5.43605 18.5484 5.43605 19.2308C5.43605 19.9131 5.68361 20.5722 6.13265 21.0854C6.35913 21.3259 6.63391 21.5157 6.9389 21.6421C7.24389 21.7686 7.57217 21.829 7.90212 21.8192C8.29164 21.8218 8.6735 21.7109 9.00117 21.5C9.32492 21.2983 9.58722 21.0115 9.75952 20.6708L11.1993 21.3679C10.8875 21.9686 10.4126 22.4689 9.82919 22.811C9.24583 23.1531 8.5778 23.3231 7.90212 23.3014Z" fill="white"/>
<path d="M15.698 23.1621H14.0128V16.7598H11.7231V15.2922H17.9877V16.7598H15.698V23.1621Z" fill="white"/>
<path d="M20.1201 23.3013C19.7744 23.303 19.4307 23.2497 19.1016 23.1436C18.8227 23.0664 18.5631 22.9314 18.3396 22.7473L18.9771 21.3898C19.2556 21.6457 19.6145 21.7962 19.9919 21.8154C20.228 21.8277 20.4619 21.7634 20.6586 21.632C20.8598 21.4574 21.0221 21.2424 21.1349 21.0009L18.2334 15.281H20.1494L22.0984 19.4636L24.0547 15.281H25.9524L22.6919 21.6466C22.4642 22.1312 22.1222 22.553 21.6954 22.8757C21.2277 23.1792 20.6767 23.328 20.1201 23.3013Z" fill="white"/>
<path d="M26.1938 24.6151V21.8157C26.4679 21.8113 26.7324 21.7143 26.9445 21.5405C27.1566 21.3667 27.3039 21.1262 27.3625 20.8581C27.5361 20.3577 27.6468 19.8376 27.6922 19.3098L28.1538 15.2739H33.7443V21.6836H34.4367V24.6187H32.7772V23.1512H27.8681V24.6187L26.1938 24.6151ZM29.3554 19.4455C29.2455 20.4606 28.9268 21.2127 28.3993 21.7019H32.0628V16.7598H29.6742L29.3554 19.4455Z" fill="white"/>
<path d="M40.9982 23.1619H35.4297V15.281H40.9982V16.7486H37.1039V18.4143H40.914V19.8819H37.1039V21.6833H40.9982V23.1619Z" fill="white"/>
<path d="M49.384 23.1619H47.6952V19.8599H43.9804V23.1619H42.3062V15.281H43.9804V18.3776H47.6952V15.281H49.384V23.1619Z" fill="white"/>
<path d="M52.4136 15.281V17.4824C52.4136 18.4363 52.8936 18.9133 53.8534 18.9133C54.3648 18.9225 54.8733 18.8341 55.3518 18.6528V15.281H57.026V23.1619H55.3518V20.1387C54.8007 20.3071 54.228 20.3936 53.6519 20.3955C52.6774 20.3955 51.9484 20.1387 51.4538 19.625C50.94 19.0367 50.6769 18.2701 50.7211 17.4897V15.2883L52.4136 15.281Z" fill="white"/>
<path d="M64.1515 23.1619H58.583V15.281H64.1515V16.7486H60.2572V18.4143H64.0673V19.8819H60.2572V21.6833H64.1515V23.1619Z" fill="white"/>
<path d="M69.2693 23.3014C68.7208 23.3182 68.1744 23.2264 67.6614 23.0312C67.1484 22.836 66.6789 22.5414 66.2799 22.1641C65.8844 21.7874 65.5732 21.3311 65.3667 20.8251C65.1602 20.3192 65.0632 19.7752 65.0819 19.2289C65.0629 18.6826 65.1599 18.1385 65.3664 17.6326C65.5729 17.1266 65.8843 16.6703 66.2799 16.2938C66.6787 15.916 67.1481 15.6207 67.6611 15.4249C68.1741 15.2291 68.7206 15.1366 69.2693 15.1527C69.9452 15.1246 70.6151 15.2911 71.1994 15.6325C71.7838 15.9738 72.2582 16.4758 72.5665 17.0789L71.1267 17.787C70.9501 17.4513 70.6886 17.168 70.3684 16.9652C70.042 16.751 69.6595 16.6386 69.2693 16.6423C68.9394 16.6328 68.6112 16.6932 68.3062 16.8197C68.0013 16.9462 67.7265 17.1358 67.4998 17.3761C67.0508 17.8893 66.8032 18.5484 66.8032 19.2308C66.8032 19.9131 67.0508 20.5722 67.4998 21.0854C67.7266 21.3255 68.0014 21.515 68.3064 21.6415C68.6113 21.7679 68.9394 21.8285 69.2693 21.8192C69.6589 21.8225 70.041 21.7115 70.3684 21.5C70.6921 21.2983 70.9544 21.0115 71.1267 20.6708L72.5665 21.3679C72.2547 21.9686 71.7797 22.4689 71.1964 22.811C70.613 23.1531 69.945 23.3231 69.2693 23.3014Z" fill="white"/>
<path d="M80.2965 23.1619H78.234L75.8527 20.0066L75.2372 20.7404V23.1619H73.563V15.281H75.2372V18.8032L78.0215 15.281H80.084L76.9591 18.9793L80.2965 23.1619Z" fill="white"/>
<path d="M82.6818 23.1619H81.0625V15.281H82.7404V20.3735L86.4039 15.281H88.1257V23.1619H86.4478V17.8823L82.6818 23.1619Z" fill="white"/>
<path d="M96.797 23.1619H94.793L92.8221 20.2781L90.8548 23.1619H88.8618L91.7157 19.1261L89.023 15.281H91.016L92.8221 17.9777L94.6025 15.2847H96.6211L93.9431 19.1151L96.797 23.1619Z" fill="white"/>
<path d="M10.1552 35.0825C9.61448 35.0973 9.07632 35.0029 8.5728 34.805C8.06928 34.6071 7.6107 34.3097 7.22439 33.9305C6.47825 33.1402 6.0625 32.0939 6.0625 31.0063C6.0625 29.9187 6.47825 28.8724 7.22439 28.0822C7.6107 27.703 8.06928 27.4056 8.5728 27.2076C9.07632 27.0097 9.61448 26.9153 10.1552 26.9301C10.699 26.9114 11.2411 27.0031 11.7485 27.1999C12.256 27.3966 12.7185 27.6942 13.108 28.0748C13.8572 28.8679 14.2747 29.9182 14.2747 31.01C14.2747 32.1018 13.8572 33.1521 13.108 33.9452C12.7179 34.3244 12.2551 34.6207 11.7477 34.8162C11.2402 35.0116 10.6985 35.1022 10.1552 35.0825ZM8.42602 32.8591C8.64223 33.1018 8.90943 33.2934 9.20842 33.4203C9.5074 33.5472 9.83074 33.6061 10.1552 33.5929C10.48 33.6046 10.8034 33.545 11.1028 33.4183C11.4021 33.2915 11.6701 33.1007 11.888 32.8591C12.3144 32.3354 12.5473 31.6803 12.5473 31.0045C12.5473 30.3287 12.3144 29.6736 11.888 29.1498C11.6703 28.9081 11.4023 28.7172 11.1029 28.5904C10.8035 28.4636 10.48 28.4041 10.1552 28.416C9.83074 28.4029 9.5074 28.4618 9.20842 28.5887C8.90943 28.7156 8.64223 28.9072 8.42602 29.1498C7.99964 29.6736 7.76679 30.3287 7.76679 31.0045C7.76679 31.6803 7.99964 32.3354 8.42602 32.8591Z" fill="white"/>
<path d="M15.4487 27.0583H21.1931V28.5259H17.123V29.9201H19.1635C19.5157 29.9027 19.8676 29.959 20.1968 30.0853C20.5261 30.2117 20.8255 30.4053 21.0759 30.6539C21.5231 31.1397 21.7714 31.7763 21.7714 32.437C21.7714 33.0978 21.5231 33.7343 21.0759 34.2201C20.8253 34.4685 20.5259 34.6621 20.1967 34.7884C19.8675 34.9147 19.5157 34.9711 19.1635 34.9539H15.4487V27.0583ZM18.94 31.406H17.1083V33.4607H18.94C19.2361 33.4741 19.526 33.373 19.7497 33.1782C19.8484 33.0805 19.9267 32.9643 19.9802 32.8361C20.0337 32.708 20.0612 32.5704 20.0612 32.4315C20.0612 32.2926 20.0337 32.1551 19.9802 32.0269C19.9267 31.8987 19.8484 31.7825 19.7497 31.6849C19.5247 31.4927 19.2354 31.3931 18.94 31.406Z" fill="white"/>
<path d="M28.3077 34.9392H24.6442V28.5369H22.3252V27.0693H26.3111V29.8687H28.3077C28.6638 29.8507 29.0198 29.9065 29.3533 30.0328C29.6868 30.1591 29.9906 30.3531 30.2457 30.6025C30.7022 31.0946 30.956 31.7415 30.956 32.4132C30.956 33.0849 30.7022 33.7317 30.2457 34.2238C29.9888 34.4696 29.6842 34.66 29.3509 34.783C29.0175 34.9061 28.6624 34.9593 28.3077 34.9392ZM28.0806 31.3363H26.3111V33.4606H28.0806C28.3839 33.4735 28.6808 33.3713 28.9122 33.1745C29.0152 33.0737 29.097 32.9532 29.1529 32.8203C29.2088 32.6874 29.2376 32.5446 29.2376 32.4003C29.2376 32.2561 29.2088 32.1133 29.1529 31.9803C29.097 31.8474 29.0152 31.727 28.9122 31.6262C28.6821 31.4267 28.3846 31.323 28.0806 31.3363Z" fill="white"/>
<path d="M37.5544 34.9393H31.9858V27.0583H37.5544V28.5259H33.6601V30.1916H37.4701V31.6592H33.6601V33.4607H37.5544V34.9393Z" fill="white"/>
<path d="M38.3901 36.3921V33.5927C38.6629 33.5909 38.9272 33.4973 39.1405 33.327C39.3538 33.1566 39.5037 32.9194 39.5661 32.6535C39.7397 32.1531 39.8505 31.633 39.8958 31.1052L40.3574 27.0693H45.9406V33.4606H46.6477V36.3958H44.9734V34.9282H40.0644V36.3958L38.3901 36.3921ZM41.5517 31.2042C41.4418 32.2193 41.1231 32.9715 40.5956 33.4606H44.2591V28.5369H41.8668L41.5517 31.2042Z" fill="white"/>
<path d="M49.2411 34.9393H47.6255V27.0583H49.2997V32.1508L52.9632 27.0583H54.6851V34.9393H53.0108V29.6596L49.2411 34.9393Z" fill="white"/>
<path d="M63.3015 34.9393H61.6163V31.6372H57.8832V34.9393H56.209V27.0583H57.8832V30.1549H61.6017V27.0583H63.2869L63.3015 34.9393Z" fill="white"/>
<path d="M70.4128 34.9393H64.8442V27.0583H70.4128V28.5259H66.5221V30.1916H70.3395V31.6592H66.5295V33.4607H70.4128V34.9393Z" fill="white"/>
<path d="M78.7983 34.9393H77.1131V31.6372H73.3983V34.9393H71.7241V27.0583H73.3983V30.1549H77.1131V27.0583H78.7983V34.9393Z" fill="white"/>
<path d="M81.9598 34.9393H80.3442V27.0583H82.0185V32.1508L85.682 27.0583H87.4038V34.9393H85.7259V29.6596L81.9598 34.9393Z" fill="white"/>
<path d="M90.558 34.9395H88.9424V27.0586H90.6166V32.1511L94.2801 27.0586H95.9836V34.9395H94.3094V29.6599L90.558 34.9395ZM94.5182 25.6534C94.2876 25.9847 93.9784 26.2533 93.6183 26.4352C93.2583 26.6171 92.8588 26.7065 92.4557 26.6954C92.051 26.7038 91.6503 26.6133 91.2884 26.4317C90.9264 26.2502 90.6141 25.983 90.3785 25.6534L91.0379 25.0994C91.1972 25.3257 91.4085 25.5104 91.6539 25.6379C91.8994 25.7654 92.1718 25.832 92.4484 25.832C92.7249 25.832 92.9973 25.7654 93.2428 25.6379C93.4882 25.5104 93.6995 25.3257 93.8588 25.0994L94.5182 25.6534Z" fill="white"/>
<path d="M69.1963 48.1695V45.3701C69.4458 45.3479 69.6867 45.2675 69.8997 45.1353C70.1206 44.9394 70.2819 44.6851 70.3649 44.4015C70.5389 43.9012 70.6497 43.3811 70.6947 42.8532L71.1563 38.8174H76.7468V45.2197H77.4538V48.1549H75.7796V46.6873H70.8742V48.1549L69.1963 48.1695ZM72.3579 42.9853C72.3221 43.8278 71.9839 44.629 71.4054 45.2417H75.0689V40.3143H72.6729L72.3579 42.9853Z" fill="white"/>
<path d="M83.5279 46.7168H81.8537V45.9243C80.8436 45.8903 79.8671 45.5529 79.0511 44.9557C78.7386 44.6881 78.4878 44.3559 78.3158 43.9819C78.1438 43.6079 78.0547 43.201 78.0547 42.7892C78.0547 42.3775 78.1438 41.9706 78.3158 41.5966C78.4878 41.2226 78.7386 40.8903 79.0511 40.6227C79.868 40.0253 80.8431 39.6832 81.8537 39.6394V38.8396H83.5279V39.6248C84.5377 39.6664 85.5127 40.006 86.3305 40.6007C86.6431 40.869 86.8941 41.2019 87.0661 41.5765C87.2382 41.9511 87.3273 42.3585 87.3273 42.7709C87.3273 43.1832 87.2382 43.5907 87.0661 43.9653C86.8941 44.3399 86.6431 44.6727 86.3305 44.9411C85.5151 45.5394 84.5382 45.877 83.5279 45.9097V46.7168ZM80.3077 41.6867C80.1409 41.8175 80.006 41.9845 79.9133 42.1752C79.8205 42.3659 79.7723 42.5753 79.7723 42.7874C79.7723 42.9995 79.8205 43.2089 79.9133 43.3996C80.006 43.5903 80.1409 43.7573 80.3077 43.8881C80.762 44.2106 81.2977 44.3988 81.8537 44.4311V41.129C81.2966 41.1672 80.7612 41.3604 80.3077 41.6867ZM85.0703 43.8881C85.2383 43.7582 85.3743 43.5914 85.4679 43.4006C85.5616 43.2098 85.6102 43 85.6102 42.7874C85.6102 42.5748 85.5616 42.365 85.4679 42.1742C85.3743 41.9834 85.2383 41.8166 85.0703 41.6867C84.6124 41.3651 84.075 41.1759 83.5169 41.14V44.4421C84.0806 44.4056 84.6227 44.2111 85.0812 43.8807L85.0703 43.8881Z" fill="white"/>
<path d="M92.247 46.86C91.7063 46.8748 91.1681 46.7804 90.6646 46.5825C90.1611 46.3845 89.7025 46.0871 89.3162 45.7079C88.5701 44.9177 88.1543 43.8714 88.1543 42.7838C88.1543 41.6962 88.5701 40.6499 89.3162 39.8596C90.1214 39.1212 91.1735 38.7117 92.2653 38.7117C93.3571 38.7117 94.4092 39.1212 95.2144 39.8596C95.9637 40.6527 96.3812 41.703 96.3812 42.7948C96.3812 43.8866 95.9637 44.9369 95.2144 45.73C94.822 46.1097 94.3566 46.4057 93.8465 46.6C93.3364 46.7942 92.7922 46.8827 92.247 46.86ZM90.5178 44.6366C90.7426 44.8688 91.0116 45.0535 91.3089 45.1796C91.6063 45.3057 91.9259 45.3706 92.2488 45.3706C92.5717 45.3706 92.8914 45.3057 93.1887 45.1796C93.4861 45.0535 93.7551 44.8688 93.9798 44.6366C94.4062 44.1128 94.6391 43.4577 94.6391 42.782C94.6391 42.1062 94.4062 41.4511 93.9798 40.9273C93.7546 40.696 93.4854 40.5122 93.1881 40.3866C92.8908 40.2611 92.5714 40.1965 92.2488 40.1965C91.9262 40.1965 91.6068 40.2611 91.3096 40.3866C91.0123 40.5122 90.7431 40.696 90.5178 40.9273C90.0914 41.4511 89.8586 42.1062 89.8586 42.782C89.8586 43.4577 90.0914 44.1128 90.5178 44.6366Z" fill="white"/>
<path d="M131.97 23.0079C131.573 19.5692 130.412 16.263 128.574 13.3314C126.736 10.3999 124.266 7.91704 121.346 6.06474V6.04273H121.31C117.696 3.76712 113.522 2.54257 109.253 2.50586H109.019H100.058V48.797H103.604V6.19682H107.15V48.797H108.982C109.553 48.797 110.118 48.7676 110.678 48.7273C111.872 48.6409 113.058 48.4618 114.224 48.1916C118.868 47.1078 123.064 44.613 126.238 41.0486C129.411 37.4842 131.407 33.0245 131.952 28.2802C132.053 27.4033 132.105 26.5213 132.106 25.6386C132.11 24.7598 132.065 23.8816 131.97 23.0079ZM114.243 47.5899C113.498 47.8527 112.74 48.0744 111.971 48.254C111.55 48.353 111.125 48.4338 110.696 48.5071V6.49767C111.903 6.70182 113.089 7.00994 114.243 7.41858V47.5899ZM121.335 43.3706C120.45 44.1654 119.5 44.8857 118.496 45.5243C118.265 45.671 118.027 45.8141 117.789 45.9535V9.05493C118.012 9.18701 118.236 9.3191 118.456 9.45852H118.485V9.47686C119.489 10.1154 120.439 10.8358 121.324 11.6305L121.335 43.3706ZM128.424 27.5171C128.422 28.3286 128.376 29.1395 128.285 29.9459C127.916 33.1993 126.798 36.3226 125.021 39.0706C124.977 39.1403 124.925 39.2063 124.878 39.2761V15.7434C124.925 15.8131 124.977 15.8792 125.021 15.9489C126.798 18.6971 127.915 21.8203 128.285 25.0736C128.376 25.8812 128.422 26.6933 128.424 27.5061V27.5171Z" fill="white"/>
</svg>
