<svg width="206" height="49" viewBox="0 0 206 49" fill="none" xmlns="http://www.w3.org/2000/svg">
<g clip-path="url(#clip0)">
<path d="M46.6988 0H0V46.4182H46.6988V0Z" fill="#009A8E"/>
<path d="M15.5604 30.9634H7.78027V38.6968H15.5604V30.9634Z" fill="white"/>
<path opacity="0.15" d="M46.6927 30.9634H38.9126V38.6968H46.6927V30.9634Z" fill="white"/>
<path opacity="0.15" d="M7.78014 23.23H0V30.9634H7.78014V23.23Z" fill="white"/>
<path d="M38.9125 30.9633H31.1323V23.2299L38.9125 15.4906V30.9633Z" fill="white"/>
<path opacity="0.15" d="M15.5604 38.7027H7.78027V46.4361H15.5604V38.7027Z" fill="white"/>
<path d="M38.9125 7.7572H31.1323V15.4906H38.9125V7.7572Z" fill="white"/>
<path opacity="0.15" d="M23.3465 0.0179138H15.5664V7.75131H23.3465V0.0179138Z" fill="white"/>
<path d="M15.5604 15.4906H7.78027V23.224H15.5604V15.4906Z" fill="white"/>
<path opacity="0.15" d="M46.6927 0.0179138H38.9126V7.75131H46.6927V0.0179138Z" fill="white"/>
<path d="M15.5602 27.0967C15.5614 27.8631 15.3337 28.6127 14.9061 29.2505C14.4784 29.8882 13.87 30.3855 13.1578 30.6794C12.4457 30.9732 11.6618 31.0504 10.9055 30.9012C10.1492 30.7519 9.45443 30.383 8.9092 29.841C8.36396 29.299 7.99278 28.6085 7.84264 27.8567C7.6925 27.1049 7.77016 26.3258 8.06578 25.6179C8.36141 24.91 8.8617 24.3052 9.50332 23.8802C10.1449 23.4551 10.899 23.2288 11.6701 23.23C12.7018 23.23 13.6913 23.6374 14.4208 24.3625C15.1503 25.0877 15.5602 26.0712 15.5602 27.0967Z" fill="white"/>
<path opacity="0.15" d="M19.4565 46.4361C21.6049 46.4361 23.3465 44.7049 23.3465 42.5694C23.3465 40.4338 21.6049 38.7027 19.4565 38.7027C17.308 38.7027 15.5664 40.4338 15.5664 42.5694C15.5664 44.7049 17.308 46.4361 19.4565 46.4361Z" fill="white"/>
<path opacity="0.15" d="M3.89007 7.75717C6.03849 7.75717 7.78014 6.02599 7.78014 3.89047C7.78014 1.75495 6.03849 0.0237732 3.89007 0.0237732C1.74164 0.0237732 0 1.75495 0 3.89047C0 6.02599 1.74164 7.75717 3.89007 7.75717Z" fill="white"/>
<path opacity="0.15" d="M46.6808 11.6001C46.682 12.3665 46.4543 13.1161 46.0267 13.7538C45.599 14.3916 44.9906 14.8889 44.2784 15.1827C43.5663 15.4766 42.7824 15.5538 42.0261 15.4045C41.2698 15.2553 40.575 14.8863 40.0298 14.3444C39.4846 13.8024 39.1134 13.1118 38.9632 12.3601C38.8131 11.6083 38.8908 10.8291 39.1864 10.1213C39.482 9.4134 39.9823 8.80863 40.6239 8.38355C41.2655 7.95847 42.0196 7.7322 42.7907 7.73337C43.8224 7.73337 44.8119 8.14076 45.5414 8.8659C46.2709 9.59105 46.6808 10.5746 46.6808 11.6001Z" fill="white"/>
<path d="M19.4565 23.224C21.6049 23.224 23.3465 21.4928 23.3465 19.3573C23.3465 17.2217 21.6049 15.4906 19.4565 15.4906C17.308 15.4906 15.5664 17.2217 15.5664 19.3573C15.5664 21.4928 17.308 23.224 19.4565 23.224Z" fill="white"/>
<path opacity="0.15" d="M27.2426 38.6968C29.391 38.6968 31.1327 36.9656 31.1327 34.8301C31.1327 32.6946 29.391 30.9634 27.2426 30.9634C25.0942 30.9634 23.3525 32.6946 23.3525 34.8301C23.3525 36.9656 25.0942 38.6968 27.2426 38.6968Z" fill="white"/>
<path opacity="0.15" d="M38.9007 3.89048C38.8959 4.65472 38.6635 5.40042 38.2326 6.03341C37.8018 6.6664 37.1919 7.15829 36.48 7.44695C35.7681 7.73561 34.986 7.80809 34.2327 7.65525C33.4794 7.50241 32.7885 7.1311 32.2473 6.58821C31.7062 6.04532 31.339 5.3552 31.1922 4.60501C31.0454 3.85482 31.1255 3.07821 31.4225 2.37326C31.7194 1.66832 32.2199 1.06665 32.8606 0.644243C33.5014 0.22184 34.2537 -0.00234948 35.0226 -1.24305e-05C35.5344 0.00154343 36.041 0.103496 36.5131 0.300003C36.9853 0.496509 37.4137 0.783704 37.774 1.14513C38.1343 1.50655 38.4193 1.9351 38.6126 2.4062C38.8059 2.8773 38.9038 3.3817 38.9007 3.89048Z" fill="white"/>
<path opacity="0.15" d="M46.6808 27.0967C46.682 27.8631 46.4543 28.6127 46.0267 29.2505C45.599 29.8882 44.9906 30.3855 44.2784 30.6794C43.5663 30.9732 42.7824 31.0504 42.0261 30.9012C41.2698 30.7519 40.575 30.383 40.0298 29.841C39.4846 29.299 39.1134 28.6085 38.9632 27.8567C38.8131 27.1049 38.8908 26.3258 39.1864 25.6179C39.482 24.91 39.9823 24.3052 40.6239 23.8802C41.2655 23.4551 42.0196 23.2288 42.7907 23.23C43.8224 23.23 44.8119 23.6374 45.5414 24.3625C46.2709 25.0877 46.6808 26.0712 46.6808 27.0967Z" fill="white"/>
<path d="M7.78613 15.4906V7.7572H15.5663" fill="white"/>
<path opacity="0.15" d="M15.5664 38.7028V30.9634H23.3465" fill="white"/>
<path d="M38.9125 15.4906V23.2299H31.1323" fill="white"/>
<path opacity="0.15" d="M15.5663 0.0179138V7.75726H7.78613" fill="white"/>
<path d="M23.3462 15.4906H31.1323V23.2299" fill="#F01516"/>
<path opacity="0.15" d="M46.6987 46.4361H38.9126V38.7027" fill="white"/>
<path d="M23.3465 15.4906H15.5664V7.7572" fill="white"/>
<path opacity="0.15" d="M31.1323 7.75726H23.3462V0.0179138" fill="white"/>
<path d="M15.5664 23.23H31.1327L23.3465 30.9634" fill="white"/>
<path opacity="0.15" d="M38.9126 15.4906H46.6987V23.2299" fill="white"/>
<path opacity="0.15" d="M0 30.9634H7.78612V38.7028" fill="white"/>
<path d="M23.3462 30.9634V23.23H31.1323" fill="white"/>
<path opacity="0.15" d="M0 46.4361V38.7027H7.78612" fill="white"/>
<path opacity="0.15" d="M38.9125 38.7027H31.1323V46.4361" fill="white"/>
<path opacity="0.15" d="M7.78612 15.4906V23.2299H0" fill="white"/>
<path d="M31.1323 7.7572L38.9124 15.4906H23.3462" fill="white"/>
<path d="M35.0224 30.9634C33.9907 30.9634 33.0012 31.3708 32.2717 32.0959C31.5422 32.8211 31.1323 33.8046 31.1323 34.8301V38.7028H38.9005V34.8301C38.9005 33.8067 38.4923 32.8249 37.7653 32.1001C37.0384 31.3753 36.052 30.9666 35.0224 30.9634Z" fill="white"/>
<path opacity="0.15" d="M3.89007 7.7334C2.85836 7.7334 1.8689 8.14078 1.13937 8.86593C0.409845 9.59107 0 10.5746 0 11.6001L0 15.4668H7.78014V11.6001C7.78014 10.5746 7.37029 9.59107 6.64076 8.86593C5.91123 8.14078 4.92178 7.7334 3.89007 7.7334Z" fill="white"/>
<g opacity="0.15">
<path opacity="0.15" d="M27.2431 46.4361C29.3915 46.4361 31.1332 44.7049 31.1332 42.5694C31.1332 40.4338 29.3915 38.7027 27.2431 38.7027C25.0947 38.7027 23.353 40.4338 23.353 42.5694C23.353 44.7049 25.0947 46.4361 27.2431 46.4361Z" fill="white"/>
<path opacity="0.15" d="M31.1263 42.5694H23.3462V46.4361H31.1263V42.5694Z" fill="white"/>
</g>
<path d="M131.095 26.5374H136.403L137.451 29.1489H139.444L134.776 17.6083H132.741L128.073 29.1489H130.054L131.095 26.5374ZM133.758 19.9938L135.673 24.723H131.849L133.758 19.9938Z" fill="#292A40"/>
<path d="M131.012 11.8737V2.17127H135.021V0.345001H125.165V2.17127H129.174V11.8737H131.012Z" fill="#292A40"/>
<path d="M150.366 11.8975V7.54301H153.023C153.984 7.54301 154.905 7.16383 155.584 6.48889C156.263 5.81394 156.644 4.89852 156.644 3.94401C156.644 2.98949 156.263 2.07407 155.584 1.39913C154.905 0.724181 153.984 0.345001 153.023 0.345001H148.529V11.8975H150.366ZM150.366 2.19507H153.023C153.5 2.19507 153.956 2.38309 154.293 2.71777C154.63 3.05246 154.819 3.50638 154.819 3.9797C154.819 4.45301 154.63 4.90694 154.293 5.24162C153.956 5.57631 153.5 5.76433 153.023 5.76433H150.366V2.19507Z" fill="#292A40"/>
<path d="M143.753 17.6083H141.772V29.137H143.603V20.5529L146.326 24.3007H148.457L151.18 20.5529V29.137H153.017V17.6083H151.036L147.392 22.6588L143.753 17.6083Z" fill="#292A40"/>
<path d="M137.547 11.8737H145.13V10.0474H139.378V7.01952H145.13V5.1992H139.378V2.17127H145.13V0.345001H137.547V11.8737Z" fill="#292A40"/>
<path d="M103.362 31.7366V27.3107H101.267V17.6083H99.2863L92.1944 27.3107H90.77V31.7366H92.6073V29.1489H101.525V31.7485L103.362 31.7366ZM99.4359 27.3107H94.4626L99.4359 20.5054V27.3107Z" fill="#292A40"/>
<path d="M99.8672 0.345001V11.8737H101.848L108.06 3.26585V11.8737H109.898V0.345001H107.911L101.705 8.93502V0.345001H99.8672Z" fill="#292A40"/>
<path d="M105.541 29.137H113.129V27.3107H107.372V24.2828H113.129V22.4625H107.372V19.4346H113.129V17.6083H105.541V29.137Z" fill="#292A40"/>
<path d="M112.77 6.10939C112.771 7.29078 113.116 8.44667 113.764 9.43707C114.412 10.4275 115.335 11.2099 116.421 11.6896C117.507 12.1693 118.71 12.3257 119.883 12.1398C121.057 11.9539 122.151 11.4338 123.034 10.6423L121.735 9.35146C121.209 9.803 120.581 10.1213 119.904 10.2792C119.227 10.4371 118.522 10.4299 117.849 10.2582C117.175 10.0865 116.554 9.75543 116.037 9.29323C115.52 8.83104 115.124 8.25144 114.881 7.60389C114.639 6.95635 114.557 6.26008 114.644 5.57452C114.731 4.88895 114.983 4.23444 115.38 3.66684C115.776 3.09923 116.305 2.63539 116.921 2.31489C117.536 1.99439 118.221 1.82675 118.916 1.82627C119.954 1.82783 120.956 2.20414 121.735 2.88515L123.034 1.59427C121.91 0.569394 120.441 0.000519346 118.916 0C117.287 0.00314437 115.726 0.64782 114.574 1.79287C113.422 2.93792 112.773 4.49004 112.77 6.10939Z" fill="#292A40"/>
<path d="M124.829 29.137H126.822L122.154 17.6083H120.119L115.451 29.137H117.426L121.137 19.9819L124.829 29.137Z" fill="#292A40"/>
<path d="M86.4434 0.345001V11.8737H88.2747V7.01952H94.6364V11.8737H96.4678V0.345001H94.6364V5.1992H88.2747V0.345001H86.4434Z" fill="#292A40"/>
<path d="M188.71 0.345001H183.593V11.8975H188.656C189.416 11.8991 190.144 11.6012 190.683 11.0692C191.222 10.5373 191.526 9.81464 191.529 9.05995C191.522 8.32363 191.232 7.61792 190.717 7.08792C190.203 6.55792 189.504 6.24392 188.764 6.21049V5.61561C189.458 5.60004 190.118 5.31472 190.602 4.8209C191.087 4.32708 191.357 3.66413 191.355 2.97436C191.354 2.27749 191.075 1.60962 190.579 1.11686C190.083 0.624098 189.411 0.346573 188.71 0.345001ZM189.716 8.44722C189.716 8.87163 189.546 9.27865 189.244 9.57875C188.942 9.87885 188.533 10.0474 188.106 10.0474H185.449V6.847H188.106C188.532 6.84857 188.941 7.01767 189.242 7.31743C189.544 7.61719 189.714 8.0233 189.716 8.44722ZM188.106 5.02668H185.449V2.17127H188.106C188.294 2.17127 188.481 2.2082 188.655 2.27995C188.83 2.3517 188.988 2.45686 189.121 2.58944C189.255 2.72201 189.361 2.8794 189.433 3.05262C189.505 3.22584 189.542 3.41149 189.542 3.59898C189.542 3.78647 189.505 3.97212 189.433 4.14534C189.361 4.31855 189.255 4.47594 189.121 4.60852C188.988 4.74109 188.83 4.84626 188.655 4.918C188.481 4.98975 188.294 5.02668 188.106 5.02668Z" fill="#292A40"/>
<path d="M60.3561 0.345001H58.3691V11.8737H60.2064V3.28964L62.9295 7.03736H65.0601L67.7831 3.28964V11.8737H69.6204V0.345001H67.6395L63.9948 5.3955L60.3561 0.345001Z" fill="#292A40"/>
<path d="M184.251 38.4706C184.25 37.5166 183.868 36.6021 183.189 35.9275C182.51 35.2529 181.59 34.8732 180.631 34.8716H176.142V46.4003H177.973V42.0696H180.631C181.59 42.068 182.51 41.6884 183.189 41.0138C183.868 40.3392 184.25 39.4246 184.251 38.4706ZM177.973 36.686H180.631C181.107 36.686 181.563 36.874 181.9 37.2087C182.237 37.5434 182.426 37.9973 182.426 38.4706C182.426 38.9439 182.237 39.3979 181.9 39.7325C181.563 40.0672 181.107 40.2552 180.631 40.2552H177.973V36.686Z" fill="#292A40"/>
<path d="M67.8789 29.137V17.6083H58.3691V29.137H60.2064V19.4346H66.0415V29.137H67.8789Z" fill="#292A40"/>
<path d="M158.816 6.10939C158.817 7.29078 159.162 8.44667 159.81 9.43707C160.458 10.4275 161.381 11.2099 162.467 11.6896C163.553 12.1693 164.756 12.3257 165.93 12.1398C167.103 11.9539 168.198 11.4338 169.08 10.6423L167.782 9.35146C167.255 9.803 166.627 10.1213 165.95 10.2792C165.274 10.4371 164.568 10.4299 163.895 10.2582C163.222 10.0865 162.6 9.75543 162.083 9.29323C161.567 8.83104 161.17 8.25144 160.928 7.60389C160.685 6.95635 160.604 6.26008 160.69 5.57452C160.777 4.88895 161.03 4.23444 161.426 3.66684C161.822 3.09923 162.351 2.63539 162.967 2.31489C163.583 1.99439 164.268 1.82675 164.963 1.82627C166 1.82783 167.002 2.20414 167.782 2.88515L169.08 1.59427C167.957 0.569394 166.488 0.000519346 164.963 0C163.334 0.00314437 161.772 0.64782 160.62 1.79287C159.468 2.93792 158.82 4.49004 158.816 6.10939Z" fill="#292A40"/>
<path d="M195.629 34.8716H185.778V36.6979H189.788V46.4003H191.625V36.6979H195.629V34.8716Z" fill="#292A40"/>
<path d="M199.854 0C198.638 0 197.45 0.358309 196.439 1.02962C195.428 1.70092 194.641 2.65508 194.175 3.77142C193.71 4.88777 193.588 6.11616 193.826 7.30127C194.063 8.48637 194.648 9.57496 195.508 10.4294C196.367 11.2838 197.462 11.8656 198.655 12.1014C199.847 12.3371 201.083 12.2161 202.206 11.7537C203.329 11.2913 204.289 10.5083 204.964 9.50358C205.64 8.49889 206 7.31771 206 6.10938C205.997 4.49004 205.348 2.93792 204.196 1.79287C203.044 0.64782 201.483 0.00314437 199.854 0V0ZM199.854 10.3984C199 10.3996 198.165 10.1491 197.455 9.6785C196.745 9.20793 196.191 8.53848 195.863 7.75486C195.536 6.97124 195.449 6.10867 195.615 5.27628C195.781 4.44389 196.191 3.6791 196.795 3.07867C197.398 2.47824 198.167 2.06915 199.004 1.90318C199.841 1.7372 200.709 1.82179 201.498 2.14624C202.287 2.4707 202.961 3.02043 203.435 3.72589C203.91 4.43135 204.163 5.26084 204.163 6.10938C204.161 7.2454 203.707 8.33453 202.899 9.13837C202.092 9.94222 200.997 10.3953 199.854 10.3984Z" fill="#292A40"/>
<path d="M177.058 11.8737V2.17127H181.068V0.345001H171.211V2.17127H175.221V11.8737H177.058Z" fill="#292A40"/>
<path d="M73.0195 0.345001V11.8737H75.0005L81.2126 3.26585V11.8737H83.0439V0.345001H81.063L74.8509 8.93502V0.345001H73.0195Z" fill="#292A40"/>
<path d="M76.8978 29.4821C78.1134 29.4821 79.3017 29.1238 80.3125 28.4525C81.3232 27.7812 82.111 26.827 82.5762 25.7107C83.0414 24.5943 83.1631 23.3659 82.926 22.1808C82.6888 20.9957 82.1034 19.9071 81.2439 19.0527C80.3843 18.1983 79.2891 17.6164 78.0969 17.3807C76.9046 17.145 75.6688 17.266 74.5457 17.7284C73.4226 18.1908 72.4627 18.9738 71.7873 19.9785C71.1119 20.9832 70.7515 22.1644 70.7515 23.3727C70.7546 24.992 71.4032 26.5442 72.5552 27.6892C73.7071 28.8343 75.2686 29.4789 76.8978 29.4821ZM76.8978 19.0896C77.7517 19.0884 78.5868 19.3391 79.2973 19.8099C80.0078 20.2808 80.5618 20.9506 80.8891 21.7345C81.2165 22.5185 81.3024 23.3814 81.1361 24.2139C80.9698 25.0465 80.5587 25.8113 79.9549 26.4115C79.3511 27.0117 78.5817 27.4203 77.7441 27.5856C76.9065 27.7509 76.0384 27.6654 75.2497 27.3401C74.461 27.0147 73.7872 26.464 73.3135 25.7578C72.8398 25.0516 72.5876 24.2215 72.5888 23.3727C72.5919 22.2377 73.0469 21.1501 73.8543 20.3475C74.6618 19.545 75.7559 19.0927 76.8978 19.0896Z" fill="#292A40"/>
<path d="M128.48 46.4003H136.069V44.5741H130.317V41.5461H136.069V39.7258H130.317V36.6979H136.069V34.8716H128.48V46.4003Z" fill="#292A40"/>
<path d="M155.435 34.8716V46.4003H157.416L163.628 37.7925V46.4003H165.459V34.8716H163.479L157.266 43.4616V34.8716H155.435Z" fill="#292A40"/>
<path d="M144.83 40.8918V46.4003H146.667V40.8918L150.546 46.4003H152.802L148.744 40.636L152.802 34.8716H150.546L146.667 40.3802V34.8716H144.83V40.3802L140.958 34.8716H138.696L142.753 40.636L138.696 46.4003H140.958L144.83 40.8918Z" fill="#292A40"/>
<path d="M69.6204 46.4003V34.8716H67.6395L63.9948 39.9221L60.3561 34.8716H58.3691V46.4003H60.2064V37.8163L62.9295 41.564H65.0601L67.7831 37.8163V46.4003H69.6204Z" fill="#292A40"/>
<path d="M105.93 34.5029C104.714 34.5029 103.526 34.8612 102.515 35.5325C101.504 36.2038 100.716 37.1579 100.251 38.2743C99.7859 39.3906 99.6641 40.619 99.9013 41.8041C100.138 42.9892 100.724 44.0778 101.583 44.9322C102.443 45.7867 103.538 46.3685 104.73 46.6042C105.923 46.84 107.159 46.719 108.282 46.2566C109.405 45.7942 110.365 45.0111 111.04 44.0064C111.715 43.0018 112.076 41.8206 112.076 40.6122C112.073 38.9929 111.424 37.4408 110.272 36.2957C109.12 35.1507 107.559 34.506 105.93 34.5029ZM105.93 44.8954C105.076 44.8965 104.24 44.6458 103.53 44.175C102.819 43.7042 102.265 43.0344 101.938 42.2504C101.611 41.4664 101.525 40.6036 101.691 39.771C101.857 38.9385 102.269 38.1737 102.872 37.5735C103.476 36.9733 104.246 36.5647 105.083 36.3994C105.921 36.2341 106.789 36.3195 107.578 36.6449C108.366 36.9702 109.04 37.5209 109.514 38.2271C109.987 38.9334 110.24 39.7634 110.238 40.6122C110.24 41.1763 110.13 41.7351 109.914 42.2568C109.698 42.7785 109.382 43.2528 108.981 43.6528C108.581 44.0527 108.106 44.3704 107.582 44.5877C107.059 44.805 106.497 44.9176 105.93 44.9192V44.8954Z" fill="#292A40"/>
<path d="M78.6395 46.7454C79.8551 46.7454 81.0434 46.3871 82.0542 45.7158C83.0649 45.0445 83.8527 44.0903 84.3179 42.974C84.7831 41.8576 84.9048 40.6292 84.6677 39.4441C84.4305 38.259 83.8451 37.1704 82.9856 36.316C82.126 35.4616 81.0308 34.8797 79.8386 34.644C78.6463 34.4083 77.4105 34.5293 76.2874 34.9917C75.1643 35.4541 74.2044 36.2371 73.529 37.2418C72.8536 38.2465 72.4932 39.4277 72.4932 40.636C72.4963 42.2553 73.1449 43.8075 74.2969 44.9525C75.4488 46.0976 77.0103 46.7422 78.6395 46.7454ZM78.6395 36.3469C79.4931 36.3458 80.328 36.5963 81.0384 37.0669C81.7488 37.5375 82.3028 38.2069 82.6303 38.9905C82.9578 39.7741 83.0441 40.6367 82.8783 41.4691C82.7124 42.3015 82.302 43.0663 81.6987 43.6667C81.0955 44.2671 80.3267 44.6762 79.4895 44.8422C78.6523 45.0082 77.7844 44.9236 76.9956 44.5991C76.2068 44.2747 75.5325 43.7249 75.0581 43.0195C74.5837 42.314 74.3305 41.4845 74.3305 40.636C74.3321 39.5 74.7864 38.4109 75.5939 37.607C76.4015 36.8032 77.4966 36.3501 78.6395 36.3469Z" fill="#292A40"/>
<path d="M88.5679 46.4003L92.2784 37.2452L95.965 46.4003H97.9639L93.2898 34.8716H91.261L86.5869 46.4003H88.5679Z" fill="#292A40"/>
<path d="M113.709 44.5741V48.9999H115.547V46.4003H124.482V48.9999H126.277V44.5741H124.189V34.8716H122.202L115.134 44.5741H113.709ZM122.375 37.7687V44.5741H117.402L122.375 37.7687Z" fill="#292A40"/>
</g>
<defs>
<clipPath id="clip0">
<rect width="206" height="49" fill="white"/>
</clipPath>
</defs>
</svg>
