<svg width="97" height="126" viewBox="0 0 97 126" fill="none" xmlns="http://www.w3.org/2000/svg">
<path fill-rule="evenodd" clip-rule="evenodd" d="M48.5582 100.984V102.563H46.7459V100.984H45.8804V104.903H46.7459V103.324H48.5582V104.903H49.4235V100.984H48.5582Z" fill="#2B2A29"/>
<path fill-rule="evenodd" clip-rule="evenodd" d="M50.7658 104.903L51.0657 104.169H52.9124L53.2065 104.903H54.1011L52.4567 100.984H51.5215L49.8711 104.903H50.7658ZM51.8967 102.07C51.9313 101.992 51.9601 101.914 51.9886 101.763C52.0177 101.914 52.0465 101.992 52.0756 102.07L52.6412 103.475H51.3369L51.8967 102.07Z" fill="#2B2A29"/>
<path fill-rule="evenodd" clip-rule="evenodd" d="M58.586 105.753V104.147H58.0727V100.984H57.2069V104.147H55.4181V100.984H54.5522V104.903H57.8245V105.753H58.586Z" fill="#2B2A29"/>
<path fill-rule="evenodd" clip-rule="evenodd" d="M62.734 104.903V100.984H61.9205L60.0392 103.543C60.0509 103.38 60.0568 103.184 60.0568 103.005V100.984H59.1909V104.903H60.0045L61.8858 102.345C61.8746 102.507 61.8688 102.703 61.8688 102.882V104.903H62.734Z" fill="#2B2A29"/>
<path fill-rule="evenodd" clip-rule="evenodd" d="M63.3726 102.942C63.3726 104.006 64.088 104.98 65.5195 104.98C66.9506 104.98 67.6661 104.006 67.6661 102.942C67.6661 101.879 66.9506 100.905 65.5195 100.905C64.088 100.905 63.3726 101.879 63.3726 102.942ZM66.7773 102.942C66.7773 103.631 66.356 104.202 65.5195 104.202C64.6768 104.202 64.2555 103.631 64.2555 102.942C64.2555 102.254 64.6768 101.683 65.5195 101.683C66.356 101.683 66.7773 102.254 66.7773 102.942Z" fill="#2B2A29"/>
<path fill-rule="evenodd" clip-rule="evenodd" d="M70.9861 100.984V102.563H69.1745V100.984H68.3086V104.903H69.1745V103.324H70.9861V104.903H71.852V100.984H70.9861Z" fill="#2B2A29"/>
<path fill-rule="evenodd" clip-rule="evenodd" d="M73.1947 104.903L73.4949 104.169H75.3416L75.6357 104.903H76.53L74.8856 100.984H73.9506L72.3003 104.903H73.1947ZM74.3256 102.07C74.3602 101.992 74.389 101.914 74.4181 101.763C74.4469 101.914 74.476 101.992 74.5045 102.07L75.0701 103.475H73.7661L74.3256 102.07Z" fill="#2B2A29"/>
<path fill-rule="evenodd" clip-rule="evenodd" d="M77.6976 100.984C77.5936 102.361 77.5589 104.125 76.8781 104.169C76.7627 104.175 76.676 104.164 76.6011 104.142V104.881C76.7627 104.936 76.9125 104.953 77.0509 104.953C78.1709 104.948 78.3554 103.408 78.4938 101.74H79.6018V104.903H80.4677V100.984H77.6976Z" fill="#2B2A29"/>
<path fill-rule="evenodd" clip-rule="evenodd" d="M82.8559 104.903C83.8308 104.903 84.5986 104.6 84.5986 103.588C84.5986 102.574 83.8308 102.277 82.8559 102.272H82.1978V100.984H81.3325V104.903H82.8559ZM82.1978 103.011H82.8962C83.3407 103.011 83.7157 103.129 83.7157 103.588C83.7157 104.046 83.3407 104.164 82.8962 104.164H82.1978V103.011Z" fill="#2B2A29"/>
<path fill-rule="evenodd" clip-rule="evenodd" d="M87.8597 100.984V102.563H86.0477V100.984H85.1821V104.903H86.0477V103.324H87.8597V104.903H88.7252V100.984H87.8597Z" fill="#2B2A29"/>
<path fill-rule="evenodd" clip-rule="evenodd" d="M90.0677 104.903L90.3677 104.169H92.2143L92.5087 104.903H93.4031L91.7586 100.984H90.8237L89.1733 104.903H90.0677ZM91.1989 102.07C91.2333 101.992 91.2624 101.914 91.2912 101.763C91.3202 101.914 91.3488 101.992 91.3778 102.07L91.9431 103.475H90.6389L91.1989 102.07Z" fill="#2B2A29"/>
<path fill-rule="evenodd" clip-rule="evenodd" d="M94.5067 104.903L95.528 103.571H96.1338V104.903H96.9997V100.984H95.3549C94.5008 100.984 93.7334 101.354 93.7334 102.294C93.7334 102.933 94.1142 103.296 94.6333 103.464L93.5083 104.903H94.5067ZM94.6221 102.294C94.6221 101.903 94.9221 101.723 95.3605 101.723H96.1338V102.871H95.3605C94.9221 102.871 94.6221 102.686 94.6221 102.294Z" fill="#2B2A29"/>
<path fill-rule="evenodd" clip-rule="evenodd" d="M46.5957 107.701C46.492 109.078 46.4571 110.841 45.7763 110.886C45.6608 110.891 45.5744 110.88 45.4995 110.857V111.596C45.6608 111.652 45.8107 111.669 45.949 111.669C47.0691 111.664 47.2536 110.124 47.392 108.457H48.5V111.619H49.3658V107.701H46.5957Z" fill="#2B2A29"/>
<path fill-rule="evenodd" clip-rule="evenodd" d="M53.7743 111.619V107.701H52.961L51.0797 110.259C51.0914 110.096 51.0967 109.901 51.0967 109.721V107.701H50.2314V111.619H51.0447L52.926 109.061C52.9146 109.223 52.909 109.419 52.909 109.598V111.619H53.7743Z" fill="#2B2A29"/>
<path fill-rule="evenodd" clip-rule="evenodd" d="M55.5031 111.619V108.457H57.4593V107.701H54.6372V111.619H55.5031Z" fill="#2B2A29"/>
<path fill-rule="evenodd" clip-rule="evenodd" d="M57.8502 111.619L58.1502 110.886H59.9968L60.2913 111.619H61.1856L59.5411 107.701H58.6062L56.9556 111.619H57.8502ZM58.9814 108.786C59.0161 108.708 59.0449 108.63 59.0737 108.479C59.1028 108.63 59.1316 108.708 59.1604 108.786L59.7257 110.191H58.4214L58.9814 108.786Z" fill="#2B2A29"/>
<path fill-rule="evenodd" clip-rule="evenodd" d="M45.6548 116.421C45.6548 117.787 46.7572 118.414 47.8361 118.414C48.263 118.414 48.6614 118.324 49.0075 118.162V117.339C48.7651 117.551 48.3843 117.664 47.9689 117.664C47.2652 117.664 46.5377 117.283 46.5436 116.421C46.5436 115.475 47.2593 115.083 47.9689 115.083C48.3441 115.083 48.7193 115.195 48.979 115.391V114.59C48.6326 114.422 48.2286 114.339 47.8246 114.339C46.7454 114.339 45.6607 114.988 45.6548 116.421Z" fill="#2B2A29"/>
<path fill-rule="evenodd" clip-rule="evenodd" d="M49.2974 114.418V115.174H50.5379V118.336H51.3979V115.174H52.6386V114.418H49.2974Z" fill="#2B2A29"/>
<path fill-rule="evenodd" clip-rule="evenodd" d="M55.112 117.441L56.5778 114.418H55.6256L54.7426 116.433L53.6811 114.418H52.7227L54.3328 117.189L54.2634 117.328C54.1195 117.62 53.9056 117.681 53.6405 117.681C53.4786 117.681 53.3115 117.653 53.1731 117.608V118.319C53.3749 118.375 53.5885 118.414 53.7845 118.414C54.2981 118.414 54.7426 118.202 55.112 117.441Z" fill="#2B2A29"/>
<path fill-rule="evenodd" clip-rule="evenodd" d="M56.9926 119.187V118.336H59.8429V119.187H60.6048V117.597H60.0912V114.418H57.3443C57.3443 115.51 57.223 116.696 56.7038 117.597H56.2305V119.187H56.9926ZM58.1526 115.174H59.2256V117.597H57.6214C57.9675 116.953 58.0947 116.041 58.1526 115.174Z" fill="#2B2A29"/>
<path fill-rule="evenodd" clip-rule="evenodd" d="M61.2085 114.418V118.336H64.0879V117.597H62.0741V116.724H63.8801V115.991H62.0741V115.157H64.0535V114.418H61.2085Z" fill="#2B2A29"/>
<path fill-rule="evenodd" clip-rule="evenodd" d="M67.4477 114.418V115.997H65.6361V114.418H64.7705V118.336H65.6361V116.758H67.4477V118.336H68.3136V114.418H67.4477Z" fill="#2B2A29"/>
<path fill-rule="evenodd" clip-rule="evenodd" d="M72.3332 118.336V114.418H71.4676V116.175C71.1965 116.282 70.9197 116.332 70.6655 116.332C70.1807 116.332 69.8346 116.148 69.8346 115.722V114.418H68.9688V115.75C68.9688 116.657 69.5517 117.094 70.4463 117.099C70.7634 117.099 71.1101 117.043 71.4676 116.931V118.336H72.3332Z" fill="#2B2A29"/>
<path fill-rule="evenodd" clip-rule="evenodd" d="M73.2002 114.418V118.336H76.0802V117.597H74.0661V116.724H75.8722V115.991H74.0661V115.157H76.0455V114.418H73.2002Z" fill="#2B2A29"/>
<path fill-rule="evenodd" clip-rule="evenodd" d="M76.4863 116.421C76.4863 117.787 77.5884 118.414 78.6676 118.414C79.0945 118.414 79.4929 118.324 79.8391 118.162V117.339C79.5967 117.551 79.2159 117.664 78.8004 117.664C78.0961 117.664 77.3692 117.283 77.3751 116.421C77.3751 115.475 78.0906 115.083 78.8004 115.083C79.1753 115.083 79.5505 115.195 79.81 115.391V114.59C79.4641 114.422 79.0602 114.339 78.6559 114.339C77.577 114.339 76.4922 114.988 76.4863 116.421Z" fill="#2B2A29"/>
<path fill-rule="evenodd" clip-rule="evenodd" d="M81.3517 118.336V116.735H82.0037L83.1058 118.336H84.0639L82.6789 116.327L83.9887 114.418H83.025L82.0037 115.974H81.3517V114.418H80.4858V118.336H81.3517Z" fill="#2B2A29"/>
<path fill-rule="evenodd" clip-rule="evenodd" d="M88.0204 118.336V114.418H87.2071L85.3258 116.976C85.3369 116.813 85.3428 116.618 85.3428 116.439V114.418H84.4775V118.336H85.2908L87.1724 115.778C87.1604 115.941 87.1551 116.136 87.1551 116.315V118.336H88.0204Z" fill="#2B2A29"/>
<path fill-rule="evenodd" clip-rule="evenodd" d="M89.4265 118.336L90.4079 116.909L91.3828 118.336H92.3988L90.95 116.304L92.3121 114.418H91.2967L90.4079 115.705L89.5132 114.418H88.5034L89.8652 116.304L88.417 118.336H89.4265Z" fill="#2B2A29"/>
<path fill-rule="evenodd" clip-rule="evenodd" d="M46.746 125.052V123.451H47.3982L48.5003 125.052H49.4582L48.0731 123.042L49.3832 121.133H48.4195L47.3982 122.69H46.746V121.133H45.8804V125.052H46.746Z" fill="#2B2A29"/>
<path fill-rule="evenodd" clip-rule="evenodd" d="M50.6361 121.133C50.5321 122.51 50.4974 124.274 49.8166 124.319C49.7012 124.324 49.6145 124.313 49.5396 124.291V125.029C49.7011 125.085 49.8513 125.102 49.9897 125.102C51.1091 125.097 51.2942 123.557 51.4323 121.889H52.5403V125.052H53.4062V121.133H50.6361Z" fill="#2B2A29"/>
<path fill-rule="evenodd" clip-rule="evenodd" d="M56.2328 124.156L57.6983 121.133H56.7461L55.8631 123.149L54.8016 121.133H53.8438L55.4536 123.904L55.3845 124.044C55.24 124.336 55.0267 124.397 54.761 124.397C54.5995 124.397 54.432 124.369 54.2936 124.324V125.035C54.4954 125.091 54.709 125.13 54.9053 125.13C55.4192 125.13 55.8631 124.917 56.2328 124.156Z" fill="#2B2A29"/>
<path fill-rule="evenodd" clip-rule="evenodd" d="M58.9798 122.589V121.889H61.0859V121.133H58.1143V125.052H59.8683C60.6649 125.052 61.415 124.794 61.415 123.821C61.415 122.852 60.6649 122.589 59.8683 122.589H58.9798ZM58.9798 124.313V123.328H59.8742C60.2147 123.328 60.5321 123.4 60.5321 123.821C60.5321 124.24 60.2147 124.313 59.8742 124.313H58.9798Z" fill="#2B2A29"/>
<path fill-rule="evenodd" clip-rule="evenodd" d="M61.7832 123.093C61.7832 124.156 62.4989 125.13 63.9298 125.13C65.361 125.13 66.0764 124.156 66.0764 123.093C66.0764 122.029 65.361 121.055 63.9298 121.055C62.4989 121.055 61.7832 122.029 61.7832 123.093ZM65.1882 123.093C65.1882 123.781 64.7669 124.352 63.9298 124.352C63.0874 124.352 62.6661 123.781 62.6661 123.093C62.6661 122.404 63.0874 121.833 63.9298 121.833C64.7669 121.833 65.1882 122.404 65.1882 123.093Z" fill="#2B2A29"/>
<path fill-rule="evenodd" clip-rule="evenodd" d="M66.7197 121.133V125.052H68.4568C69.1607 125.052 70.0436 124.845 70.0436 123.955C70.0436 123.378 69.6684 123.093 69.2706 122.981C69.6282 122.863 69.8823 122.583 69.8823 122.124C69.8823 121.453 69.3455 121.133 68.4855 121.133H66.7197ZM69.1781 123.865C69.1781 124.291 68.832 124.369 68.4453 124.369H67.5797V123.361H68.4914C68.8375 123.361 69.1781 123.451 69.1781 123.865ZM69.0223 122.27C69.0223 122.572 68.7855 122.718 68.4568 122.718H67.5856V121.822H68.4106C68.7914 121.822 69.0223 121.962 69.0223 122.27Z" fill="#2B2A29"/>
<path fill-rule="evenodd" clip-rule="evenodd" d="M62.6023 0L0 61.5778H19.5631H45.9142L46.793 59.4637H29.2919H16.6202L55.4843 14.5957L62.6023 0ZM44.1671 43.944L43.2889 46.0582H55.1782H73.4617L32.9123 92.8714L42.0693 70.8318L25.1526 105.522L87.7552 43.944H59.5281H44.1671Z" fill="#2B2A29"/>
</svg>
