<svg width="148" height="148" viewBox="0 0 148 148" fill="none" xmlns="http://www.w3.org/2000/svg">
<path d="M74 0.5C33.4109 0.5 0.5 33.4109 0.5 74C0.5 114.589 33.4109 147.5 74 147.5C114.589 147.5 147.5 114.589 147.5 74C147.5 33.4109 114.589 0.5 74 0.5ZM97.6414 75.132L61.8102 101.202C61.6137 101.343 61.3822 101.427 61.141 101.445C60.8997 101.463 60.6582 101.415 60.4429 101.304C60.2275 101.194 60.0468 101.027 59.9204 100.82C59.794 100.614 59.727 100.377 59.7266 100.135V48.0289C59.7258 47.7865 59.7921 47.5487 59.9182 47.3417C60.0443 47.1347 60.2253 46.9667 60.4411 46.8562C60.6568 46.7458 60.899 46.6973 61.1406 46.716C61.3823 46.7348 61.614 46.8201 61.8102 46.9625L97.6414 73.0156C97.8107 73.1353 97.9488 73.2939 98.0441 73.4781C98.1394 73.6622 98.1891 73.8665 98.1891 74.0738C98.1891 74.2812 98.1394 74.4855 98.0441 74.6696C97.9488 74.8537 97.8107 75.0123 97.6414 75.132Z" fill="white"/>
</svg>
