<svg width="472" height="98" viewBox="0 0 472 98" fill="none" xmlns="http://www.w3.org/2000/svg">
<g clip-path="url(#clip0)">
<path fill-rule="evenodd" clip-rule="evenodd" d="M460.265 55.0067L464.594 55.807C468.885 56.6004 472 60.3439 472 64.7083V80.8948H468.2H465.151H461.351V68.2616V67.7987C461.351 66.7493 462.201 65.8987 463.251 65.8987C464.3 65.8987 465.151 66.7493 465.151 67.7987V68.2616V80.8946H466.908H468.2V64.7081C468.2 62.1761 466.392 60.004 463.903 59.5438L459.574 58.7435C459.389 58.7093 459.21 58.6603 459.034 58.6046L456.89 60.6774V66.9061C456.89 67.9555 456.039 68.8061 454.99 68.8061C453.941 68.8061 453.09 67.9555 453.09 66.9061V61.5854L450.004 58.6042C449.828 58.6601 449.649 58.7093 449.463 58.7437L445.136 59.5438C442.646 60.0042 440.839 62.1761 440.839 64.7081V64.7083V80.8948H437.039H433.99H430.19V68.2616V67.7987C430.19 66.7493 431.041 65.8987 432.09 65.8987C433.139 65.8987 433.99 66.7493 433.99 67.7987V68.2616V80.8946H434.623H437.039V64.7081C437.039 62.1761 435.232 60.004 432.742 59.5438L428.413 58.7435C428.228 58.7093 428.049 58.6603 427.874 58.6046L425.259 61.132V66.9061C425.259 67.9555 424.408 68.8061 423.359 68.8061C422.31 68.8061 421.459 67.9555 421.459 66.9061V61.1309L418.843 58.6042C418.667 58.6601 418.488 58.7093 418.303 58.7437L413.975 59.5438C411.486 60.0042 409.678 62.1761 409.678 64.7081V64.7083V80.8948H405.878H402.829H399.029V68.2616V67.7987C399.029 66.7493 399.88 65.8987 400.929 65.8987C401.978 65.8987 402.829 66.7493 402.829 67.7987V68.2616V80.8946H403.462H405.878V64.7081C405.878 62.1761 404.071 60.004 401.581 59.5438L397.252 58.7435C397.067 58.7093 396.888 58.6603 396.713 58.6046L394.099 61.1313V66.9061C394.099 67.9555 393.248 68.8061 392.199 68.8061C391.149 68.8061 390.298 67.9555 390.298 66.9061V61.1317L387.683 58.6042C387.507 58.6601 387.327 58.7093 387.142 58.7437L382.815 59.5438C380.325 60.0042 378.518 62.1761 378.518 64.7081V80.8948H374.718V64.7081C374.718 60.3439 377.832 56.6004 382.124 55.807L386.451 55.0069C386.773 54.9474 387.007 54.6669 387.007 54.3397V54.0876C384.305 52.366 382.508 49.3458 382.508 45.9119V42.6754C382.508 37.332 386.855 32.9851 392.199 32.9851C397.542 32.9851 401.889 37.332 401.889 42.6754V45.9119C401.889 49.3466 400.091 52.3673 397.388 54.0887V54.3396C397.388 54.6665 397.622 54.9472 397.943 55.0067L402.272 55.807C404.526 56.2236 406.455 57.4549 407.779 59.1617C409.103 57.4551 411.031 56.2236 413.285 55.807L417.612 55.0069C417.934 54.9474 418.167 54.6669 418.167 54.3397V54.0876C415.466 52.366 413.669 49.3458 413.669 45.9119V42.6754C413.669 37.332 418.016 32.9851 423.359 32.9851C428.702 32.9851 433.049 37.332 433.049 42.6754V45.9119C433.049 49.3466 431.251 52.3673 428.549 54.0887V54.3396C428.549 54.6665 428.782 54.9472 429.104 55.0067L433.433 55.807C435.687 56.2236 437.615 57.4549 438.939 59.1617C440.263 57.4551 442.192 56.2236 444.445 55.807L448.773 55.0069C449.094 54.9474 449.328 54.6669 449.328 54.3397V54.0876C446.627 52.366 444.829 49.3458 444.829 45.9119V42.6754C444.829 37.332 449.177 32.9851 454.52 32.9851C459.863 32.9851 464.21 37.332 464.21 42.6754V45.9119C464.21 49.3466 462.412 52.3673 459.71 54.0887V54.3396C459.71 54.6665 459.943 54.9472 460.265 55.0067ZM381.567 80.8948H385.367V68.2616V67.7987C385.367 66.7493 384.516 65.8987 383.467 65.8987C382.418 65.8987 381.567 66.7493 381.567 67.7987V68.2616V80.8948ZM412.728 80.8948H416.528V68.2616V67.7987C416.528 66.7493 415.677 65.8987 414.628 65.8987C413.578 65.8987 412.728 66.7493 412.728 67.7987V68.2616V80.8948ZM443.888 80.8948H447.688V68.2616V67.7987C447.688 66.7493 446.838 65.8987 445.788 65.8987C444.739 65.8987 443.888 66.7493 443.888 67.7987V68.2616V80.8948ZM397.876 41.1061C397.187 38.6176 394.902 36.7852 392.198 36.7852C388.958 36.7852 386.321 39.4143 386.308 42.6508H388.217C390.192 42.6508 392.052 41.7825 393.321 40.2688C393.917 39.5576 394.939 39.3807 395.739 39.8509L397.876 41.1061ZM388.217 46.4507H386.333C386.607 49.4467 389.132 51.802 392.198 51.802C395.446 51.802 398.088 49.1596 398.088 45.9119V45.6381L395.09 43.8766C393.199 45.5279 390.769 46.4507 388.217 46.4507ZM392.199 57.6831L393.919 56.0203C393.847 55.8444 393.785 55.6643 393.736 55.4786C393.235 55.5588 392.721 55.6019 392.198 55.6019C391.674 55.6019 391.16 55.5588 390.658 55.4783C390.609 55.6635 390.547 55.8431 390.476 56.0186L392.199 57.6831ZM429.037 41.1061C428.348 38.6176 426.063 36.7852 423.359 36.7852C420.119 36.7852 417.482 39.4143 417.469 42.6508H419.378C421.352 42.6508 423.213 41.7825 424.481 40.2688C425.077 39.5576 426.1 39.3807 426.9 39.8509L429.037 41.1061ZM419.377 46.4507H417.494C417.767 49.4467 420.293 51.802 423.359 51.802C426.607 51.802 429.249 49.1596 429.249 45.9119V45.6381L426.251 43.8766C424.36 45.5279 421.93 46.4507 419.377 46.4507ZM423.359 57.6831L425.08 56.0203C425.008 55.8444 424.945 55.6643 424.897 55.4786C424.396 55.5588 423.882 55.6019 423.359 55.6019C422.835 55.6019 422.321 55.5588 421.819 55.4783C421.77 55.6635 421.708 55.8431 421.637 56.0186L423.359 57.6831ZM460.197 41.1061C459.509 38.6176 457.224 36.7852 454.52 36.7852C451.28 36.7852 448.643 39.4143 448.629 42.6508H450.538C452.513 42.6508 454.374 41.7825 455.642 40.2688C456.238 39.5576 457.261 39.3807 458.061 39.8509L460.197 41.1061ZM450.538 46.4507H448.655C448.928 49.4467 451.453 51.802 454.52 51.802C457.767 51.802 460.41 49.1596 460.41 45.9119V45.6381L457.411 43.8766C455.52 45.5279 453.09 46.4507 450.538 46.4507ZM454.52 57.6831L456.24 56.0203C456.169 55.8444 456.106 55.6643 456.057 55.4786C455.556 55.5588 455.043 55.6019 454.52 55.6019C453.995 55.6019 453.481 55.5588 452.98 55.4783C452.931 55.6635 452.869 55.8431 452.797 56.0186L454.52 57.6831Z" fill="#333333"/>
<path d="M407.778 12.5876C402.435 12.5876 398.088 16.9346 398.088 22.2779V25.5144C398.088 30.8578 402.435 35.2047 407.778 35.2047C413.122 35.2047 417.469 30.8578 417.469 25.5144V22.2779C417.469 16.9346 413.122 12.5876 407.778 12.5876ZM407.778 16.3877C410.483 16.3877 412.768 18.2201 413.456 20.7086L411.32 19.4535C410.52 18.9834 409.497 19.1601 408.901 19.8713C407.632 21.3851 405.772 22.2534 403.797 22.2534H401.888C401.902 19.0168 404.539 16.3877 407.778 16.3877ZM413.669 25.5144C413.669 28.7622 411.026 31.4046 407.778 31.4046C404.712 31.4046 402.187 29.0493 401.914 26.0533H403.797C406.349 26.0533 408.779 25.1304 410.67 23.4791L413.669 25.2406V25.5144Z" fill="#333333"/>
<path d="M438.939 12.5876C433.596 12.5876 429.249 16.9346 429.249 22.2779V25.5144C429.249 30.8578 433.596 35.2047 438.939 35.2047C444.282 35.2047 448.629 30.8578 448.629 25.5144V22.2779C448.629 16.9346 444.282 12.5876 438.939 12.5876ZM438.939 16.3877C441.644 16.3877 443.929 18.2201 444.617 20.7086L442.48 19.4535C441.68 18.9834 440.658 19.1601 440.062 19.8713C438.793 21.3851 436.933 22.2534 434.958 22.2534H433.049C433.062 19.0168 435.699 16.3877 438.939 16.3877ZM444.829 25.5144C444.829 28.7622 442.187 31.4046 438.939 31.4046C435.873 31.4046 433.348 29.0493 433.075 26.0533H434.958C437.51 26.0533 439.94 25.1304 441.831 23.4791L444.829 25.2406V25.5144Z" fill="#333333"/>
<path d="M407.778 38.3878C406.729 38.3878 405.878 39.2385 405.878 40.2879V46.8839C405.878 47.9333 406.729 48.7839 407.778 48.7839C408.828 48.7839 409.679 47.9333 409.679 46.8839V40.2879C409.679 39.2385 408.828 38.3878 407.778 38.3878Z" fill="#333333"/>
<path d="M409.122 51.6113C408.768 51.256 408.278 51.0546 407.778 51.0546C407.279 51.0546 406.789 51.256 406.435 51.6113C406.082 51.9647 405.878 52.4549 405.878 52.9546C405.878 53.4543 406.082 53.9445 406.435 54.298C406.789 54.6514 407.279 54.8547 407.778 54.8547C408.278 54.8547 408.768 54.6514 409.122 54.298C409.475 53.9445 409.679 53.4543 409.679 52.9546C409.679 52.4549 409.475 51.9647 409.122 51.6113Z" fill="#333333"/>
<path d="M438.939 44.4579C437.89 44.4579 437.039 45.3085 437.039 46.3579V52.9539C437.039 54.0033 437.89 54.854 438.939 54.854C439.988 54.854 440.839 54.0033 440.839 52.9539V46.3579C440.839 45.3085 439.988 44.4579 438.939 44.4579Z" fill="#333333"/>
<path d="M440.282 38.9436C439.929 38.5902 439.439 38.3888 438.939 38.3888C438.439 38.3888 437.949 38.5902 437.596 38.9436C437.242 39.2989 437.039 39.7872 437.039 40.2869C437.039 40.7886 437.242 41.2788 437.596 41.6303C437.949 41.9856 438.439 42.187 438.939 42.187C439.439 42.187 439.929 41.9856 440.282 41.6303C440.636 41.2769 440.839 40.7886 440.839 40.2869C440.839 39.7872 440.636 39.2989 440.282 38.9436Z" fill="#333333"/>
</g>
<g clip-path="url(#clip1)">
<path fill-rule="evenodd" clip-rule="evenodd" d="M366.585 55.0067L370.914 55.807C375.206 56.6004 378.321 60.3439 378.321 64.7083V80.8948H374.52H371.471H367.671V68.2616V67.7987C367.671 66.7493 368.522 65.8987 369.571 65.8987C370.62 65.8987 371.471 66.7493 371.471 67.7987V68.2616V80.8946H373.229H374.52V64.7081C374.52 62.1761 372.713 60.004 370.223 59.5438L365.894 58.7435C365.709 58.7093 365.531 58.6603 365.355 58.6046L363.21 60.6774V66.9061C363.21 67.9555 362.36 68.8061 361.31 68.8061C360.261 68.8061 359.41 67.9555 359.41 66.9061V61.5854L356.325 58.6042C356.149 58.6601 355.97 58.7093 355.784 58.7437L351.457 59.5438C348.967 60.0042 347.16 62.1761 347.16 64.7081V64.7083V80.8948H343.359H340.31H336.51V68.2616V67.7987C336.51 66.7493 337.361 65.8987 338.41 65.8987C339.46 65.8987 340.31 66.7493 340.31 67.7987V68.2616V80.8946H340.944H343.359V64.7081C343.359 62.1761 341.552 60.004 339.062 59.5438L334.733 58.7435C334.549 58.7093 334.37 58.6603 334.194 58.6046L331.579 61.132V66.9061C331.579 67.9555 330.729 68.8061 329.679 68.8061C328.63 68.8061 327.779 67.9555 327.779 66.9061V61.1309L325.164 58.6042C324.988 58.6601 324.809 58.7093 324.623 58.7437L320.296 59.5438C317.806 60.0042 315.999 62.1761 315.999 64.7081V64.7083V80.8948H312.199H309.15H305.35V68.2616V67.7987C305.35 66.7493 306.2 65.8987 307.25 65.8987C308.299 65.8987 309.15 66.7493 309.15 67.7987V68.2616V80.8946H309.783H312.199V64.7081C312.199 62.1761 310.391 60.004 307.902 59.5438L303.573 58.7435C303.388 58.7093 303.209 58.6603 303.033 58.6046L300.419 61.1313V66.9061C300.419 67.9555 299.568 68.8061 298.519 68.8061C297.47 68.8061 296.619 67.9555 296.619 66.9061V61.1317L294.003 58.6042C293.827 58.6601 293.648 58.7093 293.462 58.7437L289.135 59.5438C286.645 60.0042 284.838 62.1761 284.838 64.7081V80.8948H281.038V64.7081C281.038 60.3439 284.153 56.6004 288.445 55.807L292.772 55.0069C293.094 54.9474 293.327 54.6669 293.327 54.3397V54.0876C290.626 52.366 288.829 49.3458 288.829 45.9119V42.6754C288.829 37.332 293.176 32.9851 298.519 32.9851C303.862 32.9851 308.209 37.332 308.209 42.6754V45.9119C308.209 49.3466 306.411 52.3673 303.709 54.0887V54.3396C303.709 54.6665 303.942 54.9472 304.264 55.0067L308.593 55.807C310.847 56.2236 312.775 57.4549 314.099 59.1617C315.423 57.4551 317.352 56.2236 319.605 55.807L323.933 55.0069C324.254 54.9474 324.488 54.6669 324.488 54.3397V54.0876C321.787 52.366 319.989 49.3458 319.989 45.9119V42.6754C319.989 37.332 324.337 32.9851 329.68 32.9851C335.023 32.9851 339.37 37.332 339.37 42.6754V45.9119C339.37 49.3466 337.572 52.3673 334.869 54.0887V54.3396C334.869 54.6665 335.103 54.9472 335.424 55.0067L339.754 55.807C342.008 56.2236 343.936 57.4549 345.26 59.1617C346.584 57.4551 348.512 56.2236 350.766 55.807L355.093 55.0069C355.415 54.9474 355.648 54.6669 355.648 54.3397V54.0876C352.947 52.366 351.15 49.3458 351.15 45.9119V42.6754C351.15 37.332 355.497 32.9851 360.84 32.9851C366.183 32.9851 370.531 37.332 370.531 42.6754V45.9119C370.531 49.3466 368.733 52.3673 366.03 54.0887V54.3396C366.03 54.6665 366.264 54.9472 366.585 55.0067ZM287.887 80.8948H291.687V68.2616V67.7987C291.687 66.7493 290.837 65.8987 289.787 65.8987C288.738 65.8987 287.887 66.7493 287.887 67.7987V68.2616V80.8948ZM319.048 80.8948H322.848V68.2616V67.7987C322.848 66.7493 321.997 65.8987 320.948 65.8987C319.899 65.8987 319.048 66.7493 319.048 67.7987V68.2616V80.8948ZM350.209 80.8948H354.009V68.2616V67.7987C354.009 66.7493 353.158 65.8987 352.109 65.8987C351.06 65.8987 350.209 66.7493 350.209 67.7987V68.2616V80.8948ZM304.196 41.1061C303.508 38.6176 301.223 36.7852 298.519 36.7852C295.279 36.7852 292.642 39.4143 292.628 42.6508H294.537C296.512 42.6508 298.373 41.7825 299.641 40.2688C300.237 39.5576 301.26 39.3807 302.06 39.8509L304.196 41.1061ZM294.537 46.4507H292.654C292.927 49.4467 295.452 51.802 298.519 51.802C301.766 51.802 304.409 49.1596 304.409 45.9119V45.6381L301.41 43.8766C299.519 45.5279 297.089 46.4507 294.537 46.4507ZM298.519 57.6831L300.239 56.0203C300.168 55.8444 300.105 55.6643 300.056 55.4786C299.555 55.5588 299.042 55.6019 298.519 55.6019C297.994 55.6019 297.48 55.5588 296.979 55.4783C296.93 55.6635 296.868 55.8431 296.796 56.0186L298.519 57.6831ZM335.357 41.1061C334.669 38.6176 332.384 36.7852 329.679 36.7852C326.44 36.7852 323.803 39.4143 323.789 42.6508H325.698C327.673 42.6508 329.533 41.7825 330.802 40.2688C331.398 39.5576 332.421 39.3807 333.221 39.8509L335.357 41.1061ZM325.698 46.4507H323.815C324.088 49.4467 326.613 51.802 329.679 51.802C332.927 51.802 335.569 49.1596 335.569 45.9119V45.6381L332.571 43.8766C330.68 45.5279 328.25 46.4507 325.698 46.4507ZM329.68 57.6831L331.4 56.0203C331.329 55.8444 331.266 55.6643 331.217 55.4786C330.716 55.5588 330.203 55.6019 329.679 55.6019C329.155 55.6019 328.641 55.5588 328.139 55.4783C328.091 55.6635 328.028 55.8431 327.957 56.0186L329.68 57.6831ZM366.518 41.1061C365.83 38.6176 363.545 36.7852 360.84 36.7852C357.601 36.7852 354.963 39.4143 354.95 42.6508H356.859C358.834 42.6508 360.694 41.7825 361.963 40.2688C362.559 39.5576 363.581 39.3807 364.381 39.8509L366.518 41.1061ZM356.859 46.4507H354.976C355.249 49.4467 357.774 51.802 360.84 51.802C364.088 51.802 366.73 49.1596 366.73 45.9119V45.6381L363.732 43.8766C361.841 45.5279 359.411 46.4507 356.859 46.4507ZM360.841 57.6831L362.561 56.0203C362.49 55.8444 362.427 55.6643 362.378 55.4786C361.877 55.5588 361.364 55.6019 360.84 55.6019C360.316 55.6019 359.802 55.5588 359.3 55.4783C359.251 55.6635 359.189 55.8431 359.118 56.0186L360.841 57.6831Z" fill="#333333"/>
<path d="M314.099 12.5876C308.756 12.5876 304.409 16.9346 304.409 22.2779V25.5144C304.409 30.8578 308.756 35.2047 314.099 35.2047C319.442 35.2047 323.789 30.8578 323.789 25.5144V22.2779C323.789 16.9346 319.442 12.5876 314.099 12.5876ZM314.099 16.3877C316.803 16.3877 319.088 18.2201 319.777 20.7086L317.64 19.4535C316.84 18.9834 315.818 19.1601 315.221 19.8713C313.953 21.3851 312.093 22.2534 310.118 22.2534H308.209C308.222 19.0168 310.859 16.3877 314.099 16.3877ZM319.989 25.5144C319.989 28.7622 317.347 31.4046 314.099 31.4046C311.033 31.4046 308.508 29.0493 308.234 26.0533H310.118C312.67 26.0533 315.1 25.1304 316.991 23.4791L319.989 25.2406V25.5144Z" fill="#333333"/>
<path d="M345.26 12.5876C339.916 12.5876 335.569 16.9346 335.569 22.2779V25.5144C335.569 30.8578 339.916 35.2047 345.26 35.2047C350.603 35.2047 354.95 30.8578 354.95 25.5144V22.2779C354.95 16.9346 350.603 12.5876 345.26 12.5876ZM345.26 16.3877C347.964 16.3877 350.249 18.2201 350.937 20.7086L348.801 19.4535C348.001 18.9834 346.978 19.1601 346.382 19.8713C345.114 21.3851 343.253 22.2534 341.278 22.2534H339.369C339.383 19.0168 342.02 16.3877 345.26 16.3877ZM351.15 25.5144C351.15 28.7622 348.508 31.4046 345.26 31.4046C342.193 31.4046 339.668 29.0493 339.395 26.0533H341.278C343.83 26.0533 346.261 25.1304 348.151 23.4791L351.15 25.2406V25.5144Z" fill="#333333"/>
<path d="M314.099 38.3878C313.05 38.3878 312.199 39.2385 312.199 40.2879V46.8839C312.199 47.9333 313.05 48.7839 314.099 48.7839C315.148 48.7839 315.999 47.9333 315.999 46.8839V40.2879C315.999 39.2385 315.148 38.3878 314.099 38.3878Z" fill="#333333"/>
<path d="M315.442 51.6112C315.089 51.2559 314.599 51.0544 314.099 51.0544C313.599 51.0544 313.109 51.2559 312.756 51.6112C312.402 51.9646 312.199 52.4548 312.199 52.9545C312.199 53.4542 312.402 53.9444 312.756 54.2978C313.109 54.6512 313.599 54.8545 314.099 54.8545C314.599 54.8545 315.089 54.6512 315.442 54.2978C315.796 53.9444 315.999 53.4542 315.999 52.9545C315.999 52.4548 315.796 51.9646 315.442 51.6112Z" fill="#333333"/>
<path d="M345.26 44.4579C344.21 44.4579 343.36 45.3085 343.36 46.3579V52.9539C343.36 54.0033 344.21 54.854 345.26 54.854C346.309 54.854 347.16 54.0033 347.16 52.9539V46.3579C347.16 45.3085 346.309 44.4579 345.26 44.4579Z" fill="#333333"/>
<path d="M346.603 38.9436C346.25 38.5902 345.759 38.3888 345.26 38.3888C344.76 38.3888 344.27 38.5902 343.916 38.9436C343.563 39.2989 343.36 39.7872 343.36 40.2869C343.36 40.7886 343.563 41.2788 343.916 41.6303C344.27 41.9856 344.76 42.187 345.26 42.187C345.759 42.187 346.25 41.9856 346.603 41.6303C346.956 41.2769 347.16 40.7886 347.16 40.2869C347.16 39.7872 346.956 39.2989 346.603 38.9436Z" fill="#333333"/>
</g>
<path d="M376.301 12.5876C370.958 12.5876 366.611 16.9346 366.611 22.2779V25.5144C366.611 30.8578 370.958 35.2047 376.301 35.2047C381.644 35.2047 385.991 30.8578 385.991 25.5144V22.2779C385.991 16.9346 381.644 12.5876 376.301 12.5876ZM376.301 16.3877C379.005 16.3877 381.29 18.2201 381.979 20.7086L379.842 19.4535C379.042 18.9834 378.019 19.1601 377.423 19.8713C376.155 21.3851 374.295 22.2534 372.32 22.2534H370.411C370.424 19.0168 373.061 16.3877 376.301 16.3877ZM382.191 25.5144C382.191 28.7622 379.549 31.4046 376.301 31.4046C373.235 31.4046 370.71 29.0493 370.436 26.0533H372.319C374.872 26.0533 377.302 25.1304 379.193 23.4791L382.191 25.2406V25.5144Z" fill="#333333"/>
<path d="M376.301 38.3878C375.252 38.3878 374.401 39.2385 374.401 40.2879V46.8839C374.401 47.9333 375.252 48.7839 376.301 48.7839C377.35 48.7839 378.201 47.9333 378.201 46.8839V40.2879C378.201 39.2385 377.35 38.3878 376.301 38.3878Z" fill="#333333"/>
<path d="M377.644 51.6113C377.291 51.256 376.801 51.0546 376.301 51.0546C375.801 51.0546 375.311 51.256 374.958 51.6113C374.604 51.9647 374.401 52.4549 374.401 52.9546C374.401 53.4543 374.604 53.9445 374.958 54.2979C375.311 54.6514 375.801 54.8547 376.301 54.8547C376.801 54.8547 377.291 54.6514 377.644 54.2979C377.997 53.9445 378.201 53.4543 378.201 52.9546C378.201 52.4549 377.998 51.9647 377.644 51.6113Z" fill="#333333"/>
<g clip-path="url(#clip2)">
<path fill-rule="evenodd" clip-rule="evenodd" d="M272.906 55.0067L277.235 55.807C281.526 56.6004 284.641 60.3439 284.641 64.7083V80.8948H280.841H277.792H273.992V68.2616V67.7987C273.992 66.7493 274.843 65.8987 275.892 65.8987C276.941 65.8987 277.792 66.7493 277.792 67.7987V68.2616V80.8946H279.549H280.841V64.7081C280.841 62.1761 279.034 60.004 276.544 59.5438L272.215 58.7435C272.03 58.7093 271.851 58.6603 271.676 58.6046L269.531 60.6774V66.9061C269.531 67.9555 268.68 68.8061 267.631 68.8061C266.582 68.8061 265.731 67.9555 265.731 66.9061V61.5854L262.645 58.6042C262.469 58.6601 262.29 58.7093 262.105 58.7437L257.778 59.5438C255.288 60.0042 253.481 62.1761 253.481 64.7081V64.7083V80.8948H249.68H246.631H242.831V68.2616V67.7987C242.831 66.7493 243.682 65.8987 244.731 65.8987C245.78 65.8987 246.631 66.7493 246.631 67.7987V68.2616V80.8946H247.264H249.68V64.7081C249.68 62.1761 247.873 60.004 245.383 59.5438L241.054 58.7435C240.869 58.7093 240.691 58.6603 240.515 58.6046L237.9 61.132V66.9061C237.9 67.9555 237.049 68.8061 236 68.8061C234.951 68.8061 234.1 67.9555 234.1 66.9061V61.1309L231.485 58.6042C231.309 58.6601 231.13 58.7093 230.944 58.7437L226.617 59.5438C224.127 60.0042 222.32 62.1761 222.32 64.7081V64.7083V80.8948H218.519H215.47H211.67V68.2616V67.7987C211.67 66.7493 212.521 65.8987 213.57 65.8987C214.62 65.8987 215.47 66.7493 215.47 67.7987V68.2616V80.8946H216.104H218.519V64.7081C218.519 62.1761 216.712 60.004 214.222 59.5438L209.893 58.7435C209.709 58.7093 209.53 58.6603 209.354 58.6046L206.74 61.1313V66.9061C206.74 67.9555 205.889 68.8061 204.84 68.8061C203.791 68.8061 202.94 67.9555 202.94 66.9061V61.1317L200.324 58.6042C200.148 58.6601 199.969 58.7093 199.783 58.7437L195.456 59.5438C192.966 60.0042 191.159 62.1761 191.159 64.7081V80.8948H187.359V64.7081C187.359 60.3439 190.474 56.6004 194.766 55.807L199.093 55.0069C199.414 54.9474 199.648 54.6669 199.648 54.3397V54.0876C196.947 52.366 195.15 49.3458 195.15 45.9119V42.6754C195.15 37.332 199.497 32.9851 204.84 32.9851C210.183 32.9851 214.53 37.332 214.53 42.6754V45.9119C214.53 49.3466 212.732 52.3673 210.03 54.0887V54.3396C210.03 54.6665 210.263 54.9472 210.585 55.0067L214.914 55.807C217.168 56.2236 219.096 57.4549 220.42 59.1617C221.744 57.4551 223.672 56.2236 225.926 55.807L230.253 55.0069C230.575 54.9474 230.809 54.6669 230.809 54.3397V54.0876C228.107 52.366 226.31 49.3458 226.31 45.9119V42.6754C226.31 37.332 230.657 32.9851 236 32.9851C241.344 32.9851 245.691 37.332 245.691 42.6754V45.9119C245.691 49.3466 243.893 52.3673 241.19 54.0887V54.3396C241.19 54.6665 241.424 54.9472 241.745 55.0067L246.074 55.807C248.328 56.2236 250.257 57.4549 251.581 59.1617C252.905 57.4551 254.833 56.2236 257.087 55.807L261.414 55.0069C261.736 54.9474 261.969 54.6669 261.969 54.3397V54.0876C259.268 52.366 257.471 49.3458 257.471 45.9119V42.6754C257.471 37.332 261.818 32.9851 267.161 32.9851C272.504 32.9851 276.851 37.332 276.851 42.6754V45.9119C276.851 49.3466 275.053 52.3673 272.351 54.0887V54.3396C272.351 54.6665 272.584 54.9472 272.906 55.0067ZM194.208 80.8948H198.008V68.2616V67.7987C198.008 66.7493 197.157 65.8987 196.108 65.8987C195.059 65.8987 194.208 66.7493 194.208 67.7987V68.2616V80.8948ZM225.369 80.8948H229.169V68.2616V67.7987C229.169 66.7493 228.318 65.8987 227.269 65.8987C226.22 65.8987 225.369 66.7493 225.369 67.7987V68.2616V80.8948ZM256.53 80.8948H260.33V68.2616V67.7987C260.33 66.7493 259.479 65.8987 258.43 65.8987C257.381 65.8987 256.53 66.7493 256.53 67.7987V68.2616V80.8948ZM210.517 41.1061C209.829 38.6176 207.544 36.7852 204.839 36.7852C201.6 36.7852 198.963 39.4143 198.949 42.6508H200.858C202.833 42.6508 204.693 41.7825 205.962 40.2688C206.558 39.5576 207.581 39.3807 208.381 39.8509L210.517 41.1061ZM200.858 46.4507H198.975C199.248 49.4467 201.773 51.802 204.839 51.802C208.087 51.802 210.729 49.1596 210.729 45.9119V45.6381L207.731 43.8766C205.84 45.5279 203.41 46.4507 200.858 46.4507ZM204.84 57.6831L206.56 56.0203C206.489 55.8444 206.426 55.6643 206.377 55.4786C205.876 55.5588 205.363 55.6019 204.839 55.6019C204.315 55.6019 203.801 55.5588 203.299 55.4783C203.251 55.6635 203.188 55.8431 203.117 56.0186L204.84 57.6831ZM241.678 41.1061C240.99 38.6176 238.705 36.7852 236 36.7852C232.761 36.7852 230.123 39.4143 230.11 42.6508H232.019C233.994 42.6508 235.854 41.7825 237.123 40.2688C237.719 39.5576 238.741 39.3807 239.541 39.8509L241.678 41.1061ZM232.019 46.4507H230.136C230.409 49.4467 232.934 51.802 236 51.802C239.248 51.802 241.89 49.1596 241.89 45.9119V45.6381L238.892 43.8766C237.001 45.5279 234.571 46.4507 232.019 46.4507ZM236.001 57.6831L237.721 56.0203C237.65 55.8444 237.587 55.6643 237.538 55.4786C237.037 55.5588 236.524 55.6019 236 55.6019C235.476 55.6019 234.962 55.5588 234.46 55.4783C234.411 55.6635 234.349 55.8431 234.278 56.0186L236.001 57.6831ZM272.839 41.1061C272.15 38.6176 269.865 36.7852 267.161 36.7852C263.921 36.7852 261.284 39.4143 261.271 42.6508H263.18C265.155 42.6508 267.015 41.7825 268.283 40.2688C268.879 39.5576 269.902 39.3807 270.702 39.8509L272.839 41.1061ZM263.18 46.4507H261.296C261.57 49.4467 264.095 51.802 267.161 51.802C270.409 51.802 273.051 49.1596 273.051 45.9119V45.6381L270.053 43.8766C268.162 45.5279 265.732 46.4507 263.18 46.4507ZM267.161 57.6831L268.882 56.0203C268.81 55.8444 268.748 55.6643 268.699 55.4786C268.198 55.5588 267.684 55.6019 267.161 55.6019C266.637 55.6019 266.123 55.5588 265.621 55.4783C265.572 55.6635 265.51 55.8431 265.439 56.0186L267.161 57.6831Z" fill="#333333"/>
<path d="M220.42 12.5876C215.077 12.5876 210.729 16.9346 210.729 22.2779V25.5144C210.729 30.8578 215.077 35.2047 220.42 35.2047C225.763 35.2047 230.11 30.8578 230.11 25.5144V22.2779C230.11 16.9346 225.763 12.5876 220.42 12.5876ZM220.42 16.3877C223.124 16.3877 225.409 18.2201 226.098 20.7086L223.961 19.4535C223.161 18.9834 222.138 19.1601 221.542 19.8713C220.274 21.3851 218.413 22.2534 216.439 22.2534H214.53C214.543 19.0168 217.18 16.3877 220.42 16.3877ZM226.31 25.5144C226.31 28.7622 223.668 31.4046 220.42 31.4046C217.354 31.4046 214.828 29.0493 214.555 26.0533H216.438C218.991 26.0533 221.421 25.1304 223.312 23.4791L226.31 25.2406V25.5144Z" fill="#333333"/>
<path d="M251.58 12.5876C246.237 12.5876 241.89 16.9346 241.89 22.2779V25.5144C241.89 30.8578 246.237 35.2047 251.58 35.2047C256.924 35.2047 261.271 30.8578 261.271 25.5144V22.2779C261.271 16.9346 256.924 12.5876 251.58 12.5876ZM251.58 16.3877C254.285 16.3877 256.57 18.2201 257.258 20.7086L255.122 19.4535C254.322 18.9834 253.299 19.1601 252.703 19.8713C251.434 21.3851 249.574 22.2534 247.599 22.2534H245.69C245.704 19.0168 248.341 16.3877 251.58 16.3877ZM257.471 25.5144C257.471 28.7622 254.828 31.4046 251.58 31.4046C248.514 31.4046 245.989 29.0493 245.716 26.0533H247.599C250.151 26.0533 252.581 25.1304 254.472 23.4791L257.471 25.2406V25.5144Z" fill="#333333"/>
<path d="M220.42 38.3878C219.371 38.3878 218.52 39.2385 218.52 40.2879V46.8839C218.52 47.9333 219.371 48.7839 220.42 48.7839C221.469 48.7839 222.32 47.9333 222.32 46.8839V40.2879C222.32 39.2385 221.469 38.3878 220.42 38.3878Z" fill="#333333"/>
<path d="M221.763 51.6112C221.41 51.2559 220.92 51.0544 220.42 51.0544C219.92 51.0544 219.43 51.2559 219.076 51.6112C218.723 51.9646 218.52 52.4548 218.52 52.9545C218.52 53.4542 218.723 53.9444 219.076 54.2978C219.43 54.6512 219.92 54.8545 220.42 54.8545C220.92 54.8545 221.41 54.6512 221.763 54.2978C222.116 53.9444 222.32 53.4542 222.32 52.9545C222.32 52.4548 222.117 51.9646 221.763 51.6112Z" fill="#333333"/>
<path d="M251.58 44.4579C250.531 44.4579 249.68 45.3085 249.68 46.3579V52.9539C249.68 54.0033 250.531 54.854 251.58 54.854C252.63 54.854 253.481 54.0033 253.481 52.9539V46.3579C253.481 45.3085 252.63 44.4579 251.58 44.4579Z" fill="#333333"/>
<path d="M252.924 38.9436C252.57 38.5902 252.08 38.3888 251.58 38.3888C251.081 38.3888 250.591 38.5902 250.237 38.9436C249.884 39.2989 249.68 39.7872 249.68 40.2869C249.68 40.7886 249.884 41.2788 250.237 41.6303C250.591 41.9856 251.081 42.187 251.58 42.187C252.08 42.187 252.57 41.9856 252.924 41.6303C253.277 41.2769 253.481 40.7886 253.481 40.2869C253.481 39.7872 253.277 39.2989 252.924 38.9436Z" fill="#333333"/>
</g>
<path d="M282.622 12.5876C277.279 12.5876 272.931 16.9346 272.931 22.2779V25.5144C272.931 30.8578 277.279 35.2047 282.622 35.2047C287.965 35.2047 292.312 30.8578 292.312 25.5144V22.2779C292.312 16.9346 287.965 12.5876 282.622 12.5876ZM282.622 16.3877C285.326 16.3877 287.611 18.2201 288.3 20.7086L286.163 19.4535C285.363 18.9834 284.34 19.1601 283.744 19.8713C282.476 21.3851 280.615 22.2534 278.64 22.2534H276.731C276.745 19.0168 279.382 16.3877 282.622 16.3877ZM288.512 25.5144C288.512 28.7622 285.87 31.4046 282.622 31.4046C279.556 31.4046 277.03 29.0493 276.757 26.0533H278.64C281.192 26.0533 283.623 25.1304 285.514 23.4791L288.512 25.2406V25.5144Z" fill="#333333"/>
<path d="M282.621 38.3878C281.572 38.3878 280.721 39.2385 280.721 40.2879V46.8839C280.721 47.9333 281.572 48.7839 282.621 48.7839C283.671 48.7839 284.522 47.9333 284.522 46.8839V40.2879C284.522 39.2385 283.671 38.3878 282.621 38.3878Z" fill="#333333"/>
<path d="M283.965 51.6113C283.611 51.256 283.121 51.0546 282.621 51.0546C282.122 51.0546 281.632 51.256 281.278 51.6113C280.925 51.9647 280.721 52.4549 280.721 52.9546C280.721 53.4543 280.925 53.9445 281.278 54.2979C281.632 54.6514 282.122 54.8547 282.621 54.8547C283.121 54.8547 283.611 54.6514 283.965 54.2979C284.318 53.9445 284.522 53.4543 284.522 52.9546C284.522 52.4549 284.318 51.9647 283.965 51.6113Z" fill="#333333"/>
<g clip-path="url(#clip3)">
<path fill-rule="evenodd" clip-rule="evenodd" d="M179.226 55.0067L183.555 55.807C187.847 56.6004 190.962 60.3439 190.962 64.7083V80.8948H187.162H184.113H180.312V68.2616V67.7987C180.312 66.7493 181.163 65.8987 182.213 65.8987C183.262 65.8987 184.113 66.7493 184.113 67.7987V68.2616V80.8946H185.87H187.162V64.7081C187.162 62.1761 185.354 60.004 182.864 59.5438L178.536 58.7435C178.351 58.7093 178.172 58.6603 177.996 58.6046L175.852 60.6774V66.9061C175.852 67.9555 175.001 68.8061 173.952 68.8061C172.903 68.8061 172.052 67.9555 172.052 66.9061V61.5854L168.966 58.6042C168.79 58.6601 168.611 58.7093 168.425 58.7437L164.098 59.5438C161.608 60.0042 159.801 62.1761 159.801 64.7081V64.7083V80.8948H156.001H152.952H149.152V68.2616V67.7987C149.152 66.7493 150.003 65.8987 151.052 65.8987C152.101 65.8987 152.952 66.7493 152.952 67.7987V68.2616V80.8946H153.585H156.001V64.7081C156.001 62.1761 154.193 60.004 151.704 59.5438L147.375 58.7435C147.19 58.7093 147.011 58.6603 146.836 58.6046L144.221 61.132V66.9061C144.221 67.9555 143.37 68.8061 142.321 68.8061C141.271 68.8061 140.421 67.9555 140.421 66.9061V61.1309L137.805 58.6042C137.629 58.6601 137.45 58.7093 137.264 58.7437L132.937 59.5438C130.447 60.0042 128.64 62.1761 128.64 64.7081V64.7083V80.8948H124.84H121.791H117.991V68.2616V67.7987C117.991 66.7493 118.842 65.8987 119.891 65.8987C120.94 65.8987 121.791 66.7493 121.791 67.7987V68.2616V80.8946H122.424H124.84V64.7081C124.84 62.1761 123.033 60.004 120.543 59.5438L116.214 58.7435C116.029 58.7093 115.85 58.6603 115.675 58.6046L113.06 61.1313V66.9061C113.06 67.9555 112.21 68.8061 111.16 68.8061C110.111 68.8061 109.26 67.9555 109.26 66.9061V61.1317L106.644 58.6042C106.468 58.6601 106.289 58.7093 106.104 58.7437L101.776 59.5438C99.2867 60.0042 97.4795 62.1761 97.4795 64.7081V80.8948H93.6794V64.7081C93.6794 60.3439 96.7942 56.6004 101.086 55.807L105.413 55.0069C105.735 54.9474 105.969 54.6669 105.969 54.3397V54.0876C103.267 52.366 101.47 49.3458 101.47 45.9119V42.6754C101.47 37.332 105.817 32.9851 111.16 32.9851C116.504 32.9851 120.851 37.332 120.851 42.6754V45.9119C120.851 49.3466 119.053 52.3673 116.35 54.0887V54.3396C116.35 54.6665 116.584 54.9472 116.905 55.0067L121.234 55.807C123.488 56.2236 125.417 57.4549 126.741 59.1617C128.065 57.4551 129.993 56.2236 132.247 55.807L136.574 55.0069C136.896 54.9474 137.129 54.6669 137.129 54.3397V54.0876C134.428 52.366 132.631 49.3458 132.631 45.9119V42.6754C132.631 37.332 136.978 32.9851 142.321 32.9851C147.664 32.9851 152.011 37.332 152.011 42.6754V45.9119C152.011 49.3466 150.213 52.3673 147.511 54.0887V54.3396C147.511 54.6665 147.744 54.9472 148.066 55.0067L152.395 55.807C154.649 56.2236 156.577 57.4549 157.901 59.1617C159.225 57.4551 161.154 56.2236 163.407 55.807L167.735 55.0069C168.056 54.9474 168.29 54.6669 168.29 54.3397V54.0876C165.588 52.366 163.791 49.3458 163.791 45.9119V42.6754C163.791 37.332 168.139 32.9851 173.482 32.9851C178.825 32.9851 183.172 37.332 183.172 42.6754V45.9119C183.172 49.3466 181.374 52.3673 178.671 54.0887V54.3396C178.671 54.6665 178.905 54.9472 179.226 55.0067ZM100.529 80.8948H104.329V68.2616V67.7987C104.329 66.7493 103.478 65.8987 102.429 65.8987C101.38 65.8987 100.529 66.7493 100.529 67.7987V68.2616V80.8948ZM131.69 80.8948H135.49V68.2616V67.7987C135.49 66.7493 134.639 65.8987 133.59 65.8987C132.54 65.8987 131.69 66.7493 131.69 67.7987V68.2616V80.8948ZM162.85 80.8948H166.65V68.2616V67.7987C166.65 66.7493 165.8 65.8987 164.75 65.8987C163.701 65.8987 162.85 66.7493 162.85 67.7987V68.2616V80.8948ZM116.838 41.1061C116.149 38.6176 113.864 36.7852 111.16 36.7852C107.92 36.7852 105.283 39.4143 105.27 42.6508H107.179C109.154 42.6508 111.014 41.7825 112.282 40.2688C112.878 39.5576 113.901 39.3807 114.701 39.8509L116.838 41.1061ZM107.179 46.4507H105.295C105.569 49.4467 108.094 51.802 111.16 51.802C114.408 51.802 117.05 49.1596 117.05 45.9119V45.6381L114.052 43.8766C112.161 45.5279 109.731 46.4507 107.179 46.4507ZM111.16 57.6831L112.881 56.0203C112.809 55.8444 112.747 55.6643 112.698 55.4786C112.197 55.5588 111.683 55.6019 111.16 55.6019C110.636 55.6019 110.122 55.5588 109.62 55.4783C109.571 55.6635 109.509 55.8431 109.438 56.0186L111.16 57.6831ZM147.999 41.1061C147.31 38.6176 145.025 36.7852 142.321 36.7852C139.081 36.7852 136.444 39.4143 136.431 42.6508H138.339C140.314 42.6508 142.175 41.7825 143.443 40.2688C144.039 39.5576 145.062 39.3807 145.862 39.8509L147.999 41.1061ZM138.339 46.4507H136.456C136.729 49.4467 139.255 51.802 142.321 51.802C145.569 51.802 148.211 49.1596 148.211 45.9119V45.6381L145.213 43.8766C143.322 45.5279 140.891 46.4507 138.339 46.4507ZM142.321 57.6831L144.042 56.0203C143.97 55.8444 143.907 55.6643 143.859 55.4786C143.358 55.5588 142.844 55.6019 142.321 55.6019C141.797 55.6019 141.282 55.5588 140.781 55.4783C140.732 55.6635 140.67 55.8431 140.598 56.0186L142.321 57.6831ZM179.159 41.1061C178.471 38.6176 176.186 36.7852 173.481 36.7852C170.242 36.7852 167.605 39.4143 167.591 42.6508H169.5C171.475 42.6508 173.336 41.7825 174.604 40.2688C175.2 39.5576 176.223 39.3807 177.023 39.8509L179.159 41.1061ZM169.5 46.4507H167.617C167.89 49.4467 170.415 51.802 173.481 51.802C176.729 51.802 179.372 49.1596 179.372 45.9119V45.6381L176.373 43.8766C174.482 45.5279 172.052 46.4507 169.5 46.4507ZM173.482 57.6831L175.202 56.0203C175.131 55.8444 175.068 55.6643 175.019 55.4786C174.518 55.5588 174.005 55.6019 173.481 55.6019C172.957 55.6019 172.443 55.5588 171.941 55.4783C171.893 55.6635 171.83 55.8431 171.759 56.0186L173.482 57.6831Z" fill="#333333"/>
<path d="M126.74 12.5876C121.397 12.5876 117.05 16.9346 117.05 22.2779V25.5144C117.05 30.8578 121.397 35.2047 126.74 35.2047C132.083 35.2047 136.431 30.8578 136.431 25.5144V22.2779C136.431 16.9346 132.083 12.5876 126.74 12.5876ZM126.74 16.3877C129.445 16.3877 131.73 18.2201 132.418 20.7086L130.282 19.4535C129.481 18.9834 128.459 19.1601 127.863 19.8713C126.594 21.3851 124.734 22.2534 122.759 22.2534H120.85C120.864 19.0168 123.501 16.3877 126.74 16.3877ZM132.63 25.5144C132.63 28.7622 129.988 31.4046 126.74 31.4046C123.674 31.4046 121.149 29.0493 120.876 26.0533H122.759C125.311 26.0533 127.741 25.1304 129.632 23.4791L132.63 25.2406V25.5144Z" fill="#333333"/>
<path d="M157.901 12.5876C152.558 12.5876 148.211 16.9346 148.211 22.2779V25.5144C148.211 30.8578 152.558 35.2047 157.901 35.2047C163.244 35.2047 167.591 30.8578 167.591 25.5144V22.2779C167.591 16.9346 163.244 12.5876 157.901 12.5876ZM157.901 16.3877C160.605 16.3877 162.89 18.2201 163.579 20.7086L161.442 19.4535C160.642 18.9834 159.62 19.1601 159.023 19.8713C157.755 21.3851 155.895 22.2534 153.92 22.2534H152.011C152.024 19.0168 154.661 16.3877 157.901 16.3877ZM163.791 25.5144C163.791 28.7622 161.149 31.4046 157.901 31.4046C154.835 31.4046 152.31 29.0493 152.036 26.0533H153.92C156.472 26.0533 158.902 25.1304 160.793 23.4791L163.791 25.2406V25.5144Z" fill="#333333"/>
<path d="M126.74 38.3878C125.691 38.3878 124.84 39.2385 124.84 40.2879V46.8839C124.84 47.9333 125.691 48.7839 126.74 48.7839C127.79 48.7839 128.64 47.9333 128.64 46.8839V40.2879C128.64 39.2385 127.79 38.3878 126.74 38.3878Z" fill="#333333"/>
<path d="M128.084 51.6112C127.73 51.2559 127.24 51.0544 126.74 51.0544C126.241 51.0544 125.75 51.2559 125.397 51.6112C125.044 51.9646 124.84 52.4548 124.84 52.9545C124.84 53.4542 125.043 53.9444 125.397 54.2978C125.75 54.6512 126.241 54.8545 126.74 54.8545C127.24 54.8545 127.73 54.6512 128.084 54.2978C128.437 53.9444 128.64 53.4542 128.64 52.9545C128.64 52.4548 128.437 51.9646 128.084 51.6112Z" fill="#333333"/>
<path d="M157.901 44.4579C156.852 44.4579 156.001 45.3085 156.001 46.3579V52.9539C156.001 54.0033 156.852 54.854 157.901 54.854C158.95 54.854 159.801 54.0033 159.801 52.9539V46.3579C159.801 45.3085 158.95 44.4579 157.901 44.4579Z" fill="#333333"/>
<path d="M159.244 38.9436C158.891 38.5902 158.401 38.3888 157.901 38.3888C157.401 38.3888 156.911 38.5902 156.558 38.9436C156.204 39.2989 156.001 39.7872 156.001 40.2869C156.001 40.7886 156.204 41.2788 156.558 41.6303C156.911 41.9856 157.401 42.187 157.901 42.187C158.401 42.187 158.891 41.9856 159.244 41.6303C159.598 41.2769 159.801 40.7886 159.801 40.2869C159.801 39.7872 159.598 39.2989 159.244 38.9436Z" fill="#333333"/>
</g>
<path d="M188.942 12.5876C183.599 12.5876 179.252 16.9346 179.252 22.2779V25.5144C179.252 30.8578 183.599 35.2047 188.942 35.2047C194.285 35.2047 198.632 30.8578 198.632 25.5144V22.2779C198.632 16.9346 194.285 12.5876 188.942 12.5876ZM188.942 16.3877C191.647 16.3877 193.932 18.2201 194.62 20.7086L192.484 19.4535C191.683 18.9834 190.661 19.1601 190.065 19.8713C188.796 21.3851 186.936 22.2534 184.961 22.2534H183.052C183.066 19.0168 185.703 16.3877 188.942 16.3877ZM194.832 25.5144C194.832 28.7622 192.19 31.4046 188.942 31.4046C185.876 31.4046 183.351 29.0493 183.078 26.0533H184.961C187.513 26.0533 189.943 25.1304 191.834 23.4791L194.832 25.2406V25.5144Z" fill="#333333"/>
<path d="M188.942 38.3878C187.893 38.3878 187.042 39.2385 187.042 40.2879V46.8839C187.042 47.9333 187.893 48.7839 188.942 48.7839C189.991 48.7839 190.842 47.9333 190.842 46.8839V40.2879C190.842 39.2385 189.991 38.3878 188.942 38.3878Z" fill="#333333"/>
<path d="M190.285 51.6113C189.932 51.256 189.442 51.0546 188.942 51.0546C188.442 51.0546 187.952 51.256 187.599 51.6113C187.245 51.9647 187.042 52.4549 187.042 52.9546C187.042 53.4543 187.245 53.9445 187.599 54.2979C187.952 54.6514 188.442 54.8547 188.942 54.8547C189.442 54.8547 189.932 54.6514 190.285 54.2979C190.639 53.9445 190.842 53.4543 190.842 52.9546C190.842 52.4549 190.639 51.9647 190.285 51.6113Z" fill="#333333"/>
<g clip-path="url(#clip4)">
<path fill-rule="evenodd" clip-rule="evenodd" d="M85.547 55.0067L89.8761 55.807C94.1675 56.6004 97.2824 60.3439 97.2824 64.7083V80.8948H93.4822H90.4332H86.633V68.2616V67.7987C86.633 66.7493 87.4839 65.8987 88.5331 65.8987C89.5823 65.8987 90.4332 66.7493 90.4332 67.7987V68.2616V80.8946H92.1905H93.4822V64.7081C93.4822 62.1761 91.6748 60.004 89.185 59.5438L84.8561 58.7435C84.6713 58.7093 84.4925 58.6603 84.3169 58.6046L82.1723 60.6774V66.9061C82.1723 67.9555 81.3215 68.8061 80.2723 68.8061C79.2231 68.8061 78.3722 67.9555 78.3722 66.9061V61.5854L75.2865 58.6042C75.1106 58.6601 74.9314 58.7093 74.7458 58.7437L70.4186 59.5438C67.9288 60.0042 66.1217 62.1761 66.1217 64.7081V64.7083V80.8948H62.3214H59.2724H55.4723V68.2616V67.7987C55.4723 66.7493 56.3231 65.8987 57.3723 65.8987C58.4215 65.8987 59.2724 66.7493 59.2724 67.7987V68.2616V80.8946H59.9055H62.3214V64.7081C62.3214 62.1761 60.514 60.004 58.0242 59.5438L53.6953 58.7435C53.5105 58.7093 53.3317 58.6603 53.1561 58.6046L50.5413 61.132V66.9061C50.5413 67.9555 49.6904 68.8061 48.6412 68.8061C47.592 68.8061 46.7412 67.9555 46.7412 66.9061V61.1309L44.1258 58.6042C43.9498 58.6601 43.7706 58.7093 43.585 58.7437L39.2578 59.5438C36.768 60.0042 34.9609 62.1761 34.9609 64.7081V64.7083V80.8948H31.1606H28.1116H24.3115V68.2616V67.7987C24.3115 66.7493 25.1623 65.8987 26.2115 65.8987C27.2607 65.8987 28.1116 66.7493 28.1116 67.7987V68.2616V80.8946H28.7447H31.1606V64.7081C31.1606 62.1761 29.3533 60.004 26.8634 59.5438L22.5346 58.7435C22.3497 58.7093 22.1709 58.6603 21.9953 58.6046L19.3811 61.1313V66.9061C19.3811 67.9555 18.5302 68.8061 17.481 68.8061C16.4318 68.8061 15.581 67.9555 15.581 66.9061V61.1317L12.965 58.6042C12.789 58.6601 12.6099 58.7093 12.4242 58.7437L8.09705 59.5438C5.60723 60.0042 3.8001 62.1761 3.8001 64.7081V80.8948H0V64.7081C0 60.3439 3.11475 56.6004 7.40677 55.807L11.7339 55.0069C12.0556 54.9474 12.2891 54.6669 12.2891 54.3397V54.0876C9.58783 52.366 7.79077 49.3458 7.79077 45.9119V42.6754C7.79077 37.332 12.1379 32.9851 17.481 32.9851C22.8241 32.9851 27.1713 37.332 27.1713 42.6754V45.9119C27.1713 49.3466 25.3732 52.3673 22.6708 54.0887V54.3396C22.6708 54.6665 22.9043 54.9472 23.2258 55.0067L27.5549 55.807C29.8089 56.2236 31.7373 57.4549 33.0612 59.1617C34.3852 57.4551 36.3135 56.2236 38.5674 55.807L42.8945 55.0069C43.2162 54.9474 43.4497 54.6669 43.4497 54.3397V54.0876C40.7484 52.366 38.9514 49.3458 38.9514 45.9119V42.6754C38.9514 37.332 43.2985 32.9851 48.6416 32.9851C53.9847 32.9851 58.3318 37.332 58.3318 42.6754V45.9119C58.3318 49.3466 56.5338 52.3673 53.8314 54.0887V54.3396C53.8314 54.6665 54.0649 54.9472 54.3864 55.0067L58.7155 55.807C60.9695 56.2236 62.8979 57.4549 64.2218 59.1617C65.5458 57.4551 67.4741 56.2236 69.728 55.807L74.0551 55.0069C74.3768 54.9474 74.6103 54.6669 74.6103 54.3397V54.0876C71.909 52.366 70.112 49.3458 70.112 45.9119V42.6754C70.112 37.332 74.4591 32.9851 79.8022 32.9851C85.1453 32.9851 89.4924 37.332 89.4924 42.6754V45.9119C89.4924 49.3466 87.6944 52.3673 84.992 54.0887V54.3396C84.992 54.6665 85.2255 54.9472 85.547 55.0067ZM6.84929 80.8948H10.6494V68.2616V67.7987C10.6494 66.7493 9.79855 65.8987 8.74934 65.8987C7.70013 65.8987 6.84929 66.7493 6.84929 67.7987V68.2616V80.8948ZM38.0101 80.8948H41.8102V68.2616V67.7987C41.8102 66.7493 40.9593 65.8987 39.9101 65.8987C38.8609 65.8987 38.0101 66.7493 38.0101 67.7987V68.2616V80.8948ZM69.1709 80.8948H72.971V68.2616V67.7987C72.971 66.7493 72.1201 65.8987 71.0709 65.8987C70.0217 65.8987 69.1709 66.7493 69.1709 67.7987V68.2616V80.8948ZM23.1584 41.1061C22.47 38.6176 20.185 36.7852 17.4804 36.7852C14.2409 36.7852 11.6038 39.4143 11.5903 42.6508H13.4993C15.4742 42.6508 17.3345 41.7825 18.603 40.2688C19.199 39.5576 20.2216 39.3807 21.0217 39.8509L23.1584 41.1061ZM13.4991 46.4507H11.6159C11.8892 49.4467 14.4143 51.802 17.4804 51.802C20.7284 51.802 23.3706 49.1596 23.3706 45.9119V45.6381L20.3723 43.8766C18.4814 45.5279 16.0512 46.4507 13.4991 46.4507ZM17.481 57.6831L19.2013 56.0203C19.1299 55.8444 19.0672 55.6643 19.0183 55.4786C18.5173 55.5588 18.0039 55.6019 17.4804 55.6019C16.9564 55.6019 16.4423 55.5588 15.9404 55.4783C15.8918 55.6635 15.8295 55.8431 15.7582 56.0186L17.481 57.6831ZM54.3191 41.1061C53.6307 38.6176 51.3457 36.7852 48.6412 36.7852C45.4016 36.7852 42.7646 39.4143 42.7511 42.6508H44.66C46.635 42.6508 48.4953 41.7825 49.7638 40.2688C50.3598 39.5576 51.3824 39.3807 52.1825 39.8509L54.3191 41.1061ZM44.6599 46.4507H42.7767C43.0499 49.4467 45.5751 51.802 48.6412 51.802C51.8892 51.802 54.5314 49.1596 54.5314 45.9119V45.6381L51.5331 43.8766C49.6422 45.5279 47.212 46.4507 44.6599 46.4507ZM48.6418 57.6831L50.3621 56.0203C50.2907 55.8444 50.2279 55.6643 50.1791 55.4786C49.6781 55.5588 49.1647 55.6019 48.6412 55.6019C48.1172 55.6019 47.603 55.5588 47.1012 55.4783C47.0526 55.6635 46.9903 55.8431 46.919 56.0186L48.6418 57.6831ZM85.4799 41.1061C84.7915 38.6176 82.5065 36.7852 79.802 36.7852C76.5624 36.7852 73.9253 39.4143 73.9119 42.6508H75.8208C77.7957 42.6508 79.6561 41.7825 80.9245 40.2688C81.5206 39.5576 82.5434 39.3807 83.3433 39.8509L85.4799 41.1061ZM75.8206 46.4507H73.9375C74.2107 49.4467 76.7359 51.802 79.802 51.802C83.0499 51.802 85.6921 49.1596 85.6921 45.9119V45.6381L82.6939 43.8766C80.8029 45.5279 78.3728 46.4507 75.8206 46.4507ZM79.8026 57.6831L81.5229 56.0203C81.4514 55.8444 81.3887 55.6643 81.3399 55.4786C80.8389 55.5588 80.3255 55.6019 79.802 55.6019C79.278 55.6019 78.7638 55.5588 78.262 55.4783C78.2134 55.6635 78.1511 55.8431 78.0798 56.0186L79.8026 57.6831Z" fill="#333333"/>
<path d="M33.0608 12.5876C27.7177 12.5876 23.3706 16.9346 23.3706 22.2779V25.5144C23.3706 30.8578 27.7177 35.2047 33.0608 35.2047C38.404 35.2047 42.7511 30.8578 42.7511 25.5144V22.2779C42.7511 16.9346 38.404 12.5876 33.0608 12.5876ZM33.0608 16.3877C35.7654 16.3877 38.0504 18.2201 38.7388 20.7086L36.6022 19.4535C35.802 18.9834 34.7794 19.1601 34.1834 19.8713C32.9149 21.3851 31.0546 22.2534 29.0797 22.2534H27.1707C27.1842 19.0168 29.8213 16.3877 33.0608 16.3877ZM38.951 25.5144C38.951 28.7622 36.3088 31.4046 33.0608 31.4046C29.9947 31.4046 27.4696 29.0493 27.1964 26.0533H29.0795C31.6316 26.0533 34.0618 25.1304 35.9527 23.4791L38.951 25.2406V25.5144Z" fill="#333333"/>
<path d="M64.2216 12.5876C58.8785 12.5876 54.5314 16.9346 54.5314 22.2779V25.5144C54.5314 30.8578 58.8785 35.2047 64.2216 35.2047C69.5647 35.2047 73.9119 30.8578 73.9119 25.5144V22.2779C73.9119 16.9346 69.5647 12.5876 64.2216 12.5876ZM64.2216 16.3877C66.9261 16.3877 69.2111 18.2201 69.8995 20.7086L67.7629 19.4535C66.963 18.9834 65.9402 19.1601 65.3442 19.8713C64.0757 21.3851 62.2154 22.2534 60.2404 22.2534H58.3315C58.345 19.0168 60.982 16.3877 64.2216 16.3877ZM70.1118 25.5144C70.1118 28.7622 67.4696 31.4046 64.2216 31.4046C61.1555 31.4046 58.6303 29.0493 58.3571 26.0533H60.2403C62.7924 26.0533 65.2226 25.1304 67.1135 23.4791L70.1118 25.2406V25.5144Z" fill="#333333"/>
<path d="M33.0608 38.3878C32.0116 38.3878 31.1608 39.2385 31.1608 40.2879V46.8839C31.1608 47.9333 32.0116 48.7839 33.0608 48.7839C34.11 48.7839 34.9609 47.9333 34.9609 46.8839V40.2879C34.9609 39.2385 34.11 38.3878 33.0608 38.3878Z" fill="#333333"/>
<path d="M34.404 51.6112C34.0507 51.2559 33.5605 51.0544 33.0608 51.0544C32.5611 51.0544 32.0709 51.2559 31.7175 51.6112C31.3641 51.9646 31.1608 52.4548 31.1608 52.9545C31.1608 53.4542 31.3639 53.9444 31.7175 54.2978C32.0709 54.6512 32.5611 54.8545 33.0608 54.8545C33.5605 54.8545 34.0507 54.6512 34.404 54.2978C34.7574 53.9444 34.9609 53.4542 34.9609 52.9545C34.9609 52.4548 34.7576 51.9646 34.404 51.6112Z" fill="#333333"/>
<path d="M64.2216 44.4579C63.1724 44.4579 62.3215 45.3085 62.3215 46.3579V52.9539C62.3215 54.0033 63.1724 54.854 64.2216 54.854C65.2708 54.854 66.1216 54.0033 66.1216 52.9539V46.3579C66.1216 45.3085 65.2708 44.4579 64.2216 44.4579Z" fill="#333333"/>
<path d="M65.5647 38.9436C65.2115 38.5902 64.7213 38.3888 64.2216 38.3888C63.7219 38.3888 63.2317 38.5902 62.8782 38.9436C62.5248 39.2989 62.3215 39.7872 62.3215 40.2869C62.3215 40.7886 62.5246 41.2788 62.8782 41.6303C63.2317 41.9856 63.7219 42.187 64.2216 42.187C64.7213 42.187 65.2115 41.9856 65.5647 41.6303C65.9181 41.2769 66.1216 40.7886 66.1216 40.2869C66.1216 39.7872 65.9183 39.2989 65.5647 38.9436Z" fill="#333333"/>
</g>
<path d="M95.2628 12.5876C89.9196 12.5876 85.5725 16.9346 85.5725 22.2779V25.5144C85.5725 30.8578 89.9196 35.2047 95.2628 35.2047C100.606 35.2047 104.953 30.8578 104.953 25.5144V22.2779C104.953 16.9346 100.606 12.5876 95.2628 12.5876ZM95.2628 16.3877C97.9673 16.3877 100.252 18.2201 100.941 20.7086L98.8041 19.4535C98.004 18.9834 96.9813 19.1601 96.3853 19.8713C95.1168 21.3851 93.2565 22.2534 91.2816 22.2534H89.3726C89.3861 19.0168 92.0232 16.3877 95.2628 16.3877ZM101.153 25.5144C101.153 28.7622 98.5107 31.4046 95.2628 31.4046C92.1966 31.4046 89.6715 29.0493 89.3983 26.0533H91.2814C93.8335 26.0533 96.2637 25.1304 98.1546 23.4791L101.153 25.2406V25.5144Z" fill="#333333"/>
<path d="M95.2627 38.3878C94.2135 38.3878 93.3627 39.2385 93.3627 40.2879V46.8839C93.3627 47.9333 94.2135 48.7839 95.2627 48.7839C96.3119 48.7839 97.1628 47.9333 97.1628 46.8839V40.2879C97.1628 39.2385 96.3119 38.3878 95.2627 38.3878Z" fill="#333333"/>
<path d="M96.6059 51.6113C96.2526 51.256 95.7624 51.0546 95.2627 51.0546C94.763 51.0546 94.2728 51.256 93.9194 51.6113C93.566 51.9647 93.3627 52.4549 93.3627 52.9546C93.3627 53.4543 93.5658 53.9445 93.9194 54.2979C94.2728 54.6514 94.763 54.8547 95.2627 54.8547C95.7624 54.8547 96.2526 54.6514 96.6059 54.2979C96.9593 53.9445 97.1628 53.4543 97.1628 52.9546C97.1628 52.4549 96.9595 51.9647 96.6059 51.6113Z" fill="#333333"/>
<defs>
<clipPath id="clip0">
<rect width="97.2824" height="97.2824" fill="white" transform="translate(374.718)"/>
</clipPath>
<clipPath id="clip1">
<rect width="97.2824" height="97.2824" fill="white" transform="translate(281.038)"/>
</clipPath>
<clipPath id="clip2">
<rect width="97.2824" height="97.2824" fill="white" transform="translate(187.359)"/>
</clipPath>
<clipPath id="clip3">
<rect width="97.2824" height="97.2824" fill="white" transform="translate(93.6794)"/>
</clipPath>
<clipPath id="clip4">
<rect width="97.2824" height="97.2824" fill="white"/>
</clipPath>
</defs>
</svg>
