<svg width="120" height="120" viewBox="0 0 120 120" fill="none" xmlns="http://www.w3.org/2000/svg">
<path d="M86 12C84.8954 12 84 11.1046 84 10V2C84 0.895431 84.8954 0 86 0C87.1046 0 88 0.895431 88 2V10C88 11.1046 87.1046 12 86 12Z" fill="#E47E25"/>
<path d="M73.9999 15.2141C73.2846 15.2148 72.6235 14.8335 72.2659 14.2141L68.2658 7.2881C67.9029 6.66896 67.8995 5.9028 68.2569 5.28047C68.6144 4.65813 69.2779 4.27504 69.9956 4.27662C70.7133 4.27819 71.3751 4.6642 71.7299 5.2881L75.7299 12.2141C76.0869 12.8326 76.0871 13.5945 75.7304 14.2132C75.3736 14.8319 74.714 15.2134 73.9999 15.2141Z" fill="#E47E25"/>
<path d="M65.2119 24C64.8608 24 64.5159 23.9076 64.2119 23.732L57.2859 19.732C56.662 19.3773 56.276 18.7155 56.2744 17.9978C56.2728 17.2801 56.6559 16.6166 57.2783 16.2591C57.9006 15.9017 58.6668 15.9051 59.2859 16.268L66.2119 20.268C66.9958 20.7207 67.378 21.6434 67.1437 22.5177C66.9094 23.392 66.1171 24 65.2119 24Z" fill="#E47E25"/>
<path d="M62 36H54C52.8954 36 52 35.1046 52 34C52 32.8954 52.8954 32 54 32H62C63.1046 32 64 32.8954 64 34C64 35.1046 63.1046 36 62 36Z" fill="#E47E25"/>
<path d="M58.2901 52C57.385 52 56.5926 51.392 56.3584 50.5177C56.1241 49.6434 56.5062 48.7207 57.2901 48.268L64.2161 44.268C64.8353 43.9051 65.6014 43.9017 66.2238 44.2591C66.8461 44.6166 67.2292 45.2801 67.2276 45.9978C67.226 46.7155 66.84 47.3773 66.2161 47.732L59.2901 51.732C58.9861 51.9076 58.6412 52 58.2901 52Z" fill="#E47E25"/>
<path d="M69.9999 63.7119C69.2857 63.7112 68.6262 63.3297 68.2694 62.711C67.9126 62.0923 67.9128 61.3304 68.2699 60.7119L72.2699 53.7859C72.6246 53.162 73.2864 52.776 74.0041 52.7744C74.7218 52.7728 75.3853 53.1559 75.7428 53.7783C76.1003 54.4006 76.0969 55.1668 75.7339 55.7859L71.7339 62.7119C71.3763 63.3313 70.7151 63.7126 69.9999 63.7119Z" fill="#E47E25"/>
<path d="M86 68C84.8954 68 84 67.1046 84 66V58C84 56.8954 84.8954 56 86 56C87.1046 56 88 56.8954 88 58V66C88 67.1046 87.1046 68 86 68Z" fill="#E47E25"/>
<path d="M102 63.7119C101.285 63.7126 100.623 63.3313 100.266 62.7119L96.2658 55.7859C95.9029 55.1668 95.8995 54.4006 96.2569 53.7783C96.6144 53.1559 97.2779 52.7728 97.9956 52.7744C98.7133 52.776 99.3751 53.162 99.7299 53.7859L103.73 60.7119C104.087 61.3304 104.087 62.0923 103.73 62.711C103.374 63.3297 102.714 63.7112 102 63.7119Z" fill="#E47E25"/>
<path d="M113.71 52C113.359 52 113.014 51.9076 112.71 51.732L105.784 47.732C105.16 47.3773 104.774 46.7155 104.772 45.9978C104.771 45.2801 105.154 44.6166 105.776 44.2591C106.399 43.9017 107.165 43.9051 107.784 44.268L114.71 48.268C115.494 48.7207 115.876 49.6434 115.642 50.5177C115.407 51.392 114.615 52 113.71 52Z" fill="#E47E25"/>
<path d="M118 36H110C108.895 36 108 35.1046 108 34C108 32.8954 108.895 32 110 32H118C119.105 32 120 32.8954 120 34C120 35.1046 119.105 36 118 36Z" fill="#E47E25"/>
<path d="M106.788 24C105.883 24 105.091 23.392 104.856 22.5177C104.622 21.6434 105.004 20.7207 105.788 20.268L112.714 16.268C113.333 15.9051 114.099 15.9017 114.722 16.2591C115.344 16.6166 115.727 17.2801 115.726 17.9978C115.724 18.7155 115.338 19.3773 114.714 19.732L107.788 23.732C107.484 23.9076 107.139 24 106.788 24Z" fill="#E47E25"/>
<path d="M97.9999 15.2141C97.2857 15.2134 96.6262 14.8319 96.2694 14.2132C95.9126 13.5945 95.9128 12.8326 96.2699 12.2141L100.27 5.2881C100.625 4.6642 101.286 4.27819 102.004 4.27662C102.722 4.27504 103.385 4.65813 103.743 5.28047C104.1 5.9028 104.097 6.66896 103.734 7.2881L99.7339 14.2141C99.3763 14.8335 98.7151 15.2148 97.9999 15.2141Z" fill="#E47E25"/>
<path d="M34 52C32.8954 52 32 51.1046 32 50V42C32 40.8954 32.8954 40 34 40C35.1046 40 36 40.8954 36 42V50C36 51.1046 35.1046 52 34 52Z" fill="#00829F"/>
<path d="M21.9998 55.2141C21.2846 55.2148 20.6235 54.8335 20.2658 54.2141L16.2658 47.2881C15.9029 46.669 15.8995 45.9028 16.2569 45.2805C16.6144 44.6581 17.2779 44.275 17.9956 44.2766C18.7133 44.2782 19.3751 44.6642 19.7298 45.2881L23.7298 52.2141C24.0869 52.8326 24.0871 53.5945 23.7304 54.2132C23.3736 54.8319 22.714 55.2134 21.9998 55.2141Z" fill="#00829F"/>
<path d="M13.2119 64C12.8608 64 12.5159 63.9076 12.2119 63.732L5.2859 59.732C4.662 59.3773 4.276 58.7155 4.27442 57.9978C4.27284 57.2801 4.65593 56.6166 5.27827 56.2591C5.9006 55.9017 6.66676 55.9051 7.2859 56.268L14.2119 60.268C14.9958 60.7207 15.3779 61.6434 15.1437 62.5177C14.9094 63.392 14.1171 64 13.2119 64Z" fill="#00829F"/>
<path d="M10 76H2C0.895431 76 0 75.1046 0 74C0 72.8954 0.895431 72 2 72H10C11.1046 72 12 72.8954 12 74C12 75.1046 11.1046 76 10 76Z" fill="#00829F"/>
<path d="M6.29013 92C5.38496 92 4.59265 91.392 4.35837 90.5177C4.12409 89.6434 4.50625 88.7207 5.29013 88.268L12.2161 84.268C12.8353 83.9051 13.6014 83.9017 14.2238 84.2591C14.8461 84.6166 15.2292 85.2801 15.2276 85.9978C15.226 86.7155 14.84 87.3773 14.2161 87.732L7.29013 91.732C6.9861 91.9076 6.64121 92 6.29013 92Z" fill="#00829F"/>
<path d="M17.9999 103.712C17.2857 103.711 16.6262 103.33 16.2694 102.711C15.9126 102.092 15.9128 101.33 16.2699 100.712L20.2699 93.7859C20.6246 93.162 21.2864 92.776 22.0041 92.7744C22.7218 92.7728 23.3853 93.1559 23.7428 93.7783C24.1003 94.4006 24.0969 95.1668 23.7339 95.7859L19.7339 102.712C19.3763 103.331 18.7151 103.713 17.9999 103.712Z" fill="#00829F"/>
<path d="M34 108C32.8954 108 32 107.105 32 106V98C32 96.8954 32.8954 96 34 96C35.1046 96 36 96.8954 36 98V106C36 107.105 35.1046 108 34 108Z" fill="#00829F"/>
<path d="M49.9998 103.712C49.2846 103.713 48.6235 103.331 48.2658 102.712L44.2658 95.7859C43.9029 95.1668 43.8995 94.4006 44.2569 93.7783C44.6144 93.1559 45.2779 92.7728 45.9956 92.7744C46.7133 92.776 47.3751 93.162 47.7298 93.7859L51.7298 100.712C52.0869 101.33 52.0871 102.092 51.7304 102.711C51.3736 103.33 50.714 103.711 49.9998 103.712Z" fill="#00829F"/>
<path d="M61.7099 92C61.3589 92 61.014 91.9076 60.7099 91.732L53.784 87.732C53.1601 87.3773 52.774 86.7155 52.7725 85.9978C52.7709 85.2801 53.154 84.6166 53.7763 84.2591C54.3987 83.9017 55.1648 83.9051 55.784 84.268L62.7099 88.268C63.4938 88.7207 63.876 89.6434 63.6417 90.5177C63.4074 91.392 62.6151 92 61.7099 92Z" fill="#00829F"/>
<path d="M66 76H58C56.8954 76 56 75.1046 56 74C56 72.8954 56.8954 72 58 72H66C67.1046 72 68 72.8954 68 74C68 75.1046 67.1046 76 66 76Z" fill="#00829F"/>
<path d="M54.7882 64C53.883 64 53.0907 63.392 52.8564 62.5177C52.6221 61.6434 53.0043 60.7207 53.7882 60.268L60.7142 56.268C61.3333 55.9051 62.0995 55.9017 62.7218 56.2591C63.3441 56.6166 63.7272 57.2801 63.7256 57.9978C63.7241 58.7155 63.3381 59.3773 62.7142 59.732L55.7882 63.732C55.4841 63.9076 55.1393 64 54.7882 64Z" fill="#00829F"/>
<path d="M45.9999 55.2141C45.2857 55.2134 44.6262 54.8319 44.2694 54.2132C43.9126 53.5945 43.9128 52.8326 44.2699 52.2141L48.2699 45.2881C48.6246 44.6642 49.2865 44.2782 50.0041 44.2766C50.7218 44.275 51.3853 44.6581 51.7428 45.2805C52.1003 45.9028 52.0969 46.669 51.7339 47.2881L47.7339 54.2141C47.3763 54.8335 46.7151 55.2148 45.9999 55.2141Z" fill="#00829F"/>
<path d="M86 58C99.2548 58 110 47.2548 110 34C110 20.7452 99.2548 10 86 10C72.7452 10 62 20.7452 62 34C62 47.2548 72.7452 58 86 58Z" fill="#F19B1F"/>
<path d="M34 98C47.2548 98 58 87.2548 58 74C58 60.7452 47.2548 50 34 50C20.7452 50 10 60.7452 10 74C10 87.2548 20.7452 98 34 98Z" fill="#00829F"/>
<path d="M26 72C28.2091 72 30 70.2091 30 68C30 65.7909 28.2091 64 26 64C23.7909 64 22 65.7909 22 68C22 70.2091 23.7909 72 26 72Z" fill="#F4EEC9"/>
<path d="M42 86C45.3137 86 48 83.3137 48 80C48 76.6863 45.3137 74 42 74C38.6863 74 36 76.6863 36 80C36 83.3137 38.6863 86 42 86Z" fill="#F4EEC9"/>
<path d="M94 78C92.8954 78 92 77.1046 92 76V70C92 68.8954 92.8954 68 94 68C95.1046 68 96 68.8954 96 70V76C96 77.1046 95.1046 78 94 78Z" fill="#DE4D60"/>
<path d="M84.9999 80.4122C84.2846 80.4129 83.6235 80.0316 83.2659 79.4122L80.2658 74.2122C79.9029 73.593 79.8995 72.8269 80.2569 72.2045C80.6144 71.5822 81.2779 71.1991 81.9956 71.2007C82.7133 71.2023 83.3751 71.5883 83.7299 72.2122L86.7299 77.4122C87.0869 78.0307 87.0871 78.7926 86.7304 79.4113C86.3736 80.03 85.714 80.4115 84.9999 80.4122Z" fill="#DE4D60"/>
<path d="M78.4095 87C78.0584 87.0008 77.7133 86.9083 77.4095 86.732L72.2095 83.732C71.2611 83.176 70.9393 81.9588 71.489 81.0067C72.0387 80.0546 73.2538 79.7247 74.2095 80.268L79.4095 83.268C80.1934 83.7207 80.5756 84.6434 80.3413 85.5177C80.107 86.392 79.3147 87 78.4095 87Z" fill="#DE4D60"/>
<path d="M76 96H70C68.8954 96 68 95.1046 68 94C68 92.8954 68.8954 92 70 92H76C77.1046 92 78 92.8954 78 94C78 95.1046 77.1046 96 76 96Z" fill="#DE4D60"/>
<path d="M73.2159 108C72.3107 108 71.5184 107.392 71.2842 106.518C71.0499 105.643 71.432 104.721 72.2159 104.268L77.4159 101.268C78.3716 100.725 79.5867 101.055 80.1365 102.007C80.6862 102.959 80.3643 104.176 79.4159 104.732L74.2159 107.732C73.9122 107.908 73.5671 108.001 73.2159 108Z" fill="#DE4D60"/>
<path d="M81.9999 116.786C81.2857 116.785 80.6262 116.404 80.2694 115.785C79.9126 115.166 79.9128 114.404 80.2699 113.786L83.2699 108.586C83.6246 107.962 84.2865 107.576 85.0041 107.574C85.7218 107.573 86.3854 107.956 86.7428 108.578C87.1003 109.201 87.0969 109.967 86.7339 110.586L83.7339 115.786C83.3763 116.405 82.7151 116.787 81.9999 116.786Z" fill="#DE4D60"/>
<path d="M94 120C92.8954 120 92 119.105 92 118V112C92 110.895 92.8954 110 94 110C95.1046 110 96 110.895 96 112V118C96 119.105 95.1046 120 94 120Z" fill="#DE4D60"/>
<path d="M106 116.786C105.285 116.787 104.623 116.405 104.266 115.786L101.266 110.586C100.903 109.967 100.899 109.201 101.257 108.578C101.614 107.956 102.278 107.573 102.996 107.574C103.713 107.576 104.375 107.962 104.73 108.586L107.73 113.786C108.087 114.404 108.087 115.166 107.73 115.785C107.374 116.404 106.714 116.785 106 116.786Z" fill="#DE4D60"/>
<path d="M114.785 108C114.434 108.001 114.088 107.908 113.785 107.732L108.585 104.732C107.961 104.377 107.575 103.716 107.573 102.998C107.572 102.28 107.955 101.617 108.577 101.259C109.199 100.902 109.966 100.905 110.585 101.268L115.785 104.268C116.569 104.721 116.951 105.643 116.716 106.518C116.482 107.392 115.69 108 114.785 108Z" fill="#DE4D60"/>
<path d="M118 96H112C110.895 96 110 95.1046 110 94C110 92.8954 110.895 92 112 92H118C119.105 92 120 92.8954 120 94C120 95.1046 119.105 96 118 96Z" fill="#DE4D60"/>
<path d="M109.6 87C108.695 87 107.902 86.392 107.668 85.5177C107.434 84.6434 107.816 83.7207 108.6 83.268L113.8 80.268C114.755 79.7247 115.971 80.0546 116.52 81.0067C117.07 81.9588 116.748 83.176 115.8 83.732L110.6 86.732C110.296 86.9083 109.951 87.0008 109.6 87Z" fill="#DE4D60"/>
<path d="M103 80.412C102.286 80.4113 101.626 80.0298 101.269 79.4111C100.913 78.7924 100.913 78.0305 101.27 77.412L104.27 72.212C104.826 71.2636 106.043 70.9417 106.995 71.4914C107.947 72.0411 108.277 73.2563 107.734 74.212L104.734 79.412C104.376 80.0314 103.715 80.4127 103 80.412Z" fill="#DE4D60"/>
<path d="M94 112C103.941 112 112 103.941 112 94C112 84.0589 103.941 76 94 76C84.0589 76 76 84.0589 76 94C76 103.941 84.0589 112 94 112Z" fill="#FF5364"/>
<path d="M96 88C97.1046 88 98 87.1046 98 86C98 84.8954 97.1046 84 96 84C94.8954 84 94 84.8954 94 86C94 87.1046 94.8954 88 96 88Z" fill="#F4EEC9"/>
<path d="M86 90C87.1046 90 88 89.1046 88 88C88 86.8954 87.1046 86 86 86C84.8954 86 84 86.8954 84 88C84 89.1046 84.8954 90 86 90Z" fill="#F4EEC9"/>
<path d="M102 100C103.105 100 104 99.1046 104 98C104 96.8954 103.105 96 102 96C100.895 96 100 96.8954 100 98C100 99.1046 100.895 100 102 100Z" fill="#F4EEC9"/>
<path d="M88 102C89.1046 102 90 101.105 90 100C90 98.8954 89.1046 98 88 98C86.8954 98 86 98.8954 86 100C86 101.105 86.8954 102 88 102Z" fill="#F4EEC9"/>
<path d="M90 24C91.1046 24 92 23.1046 92 22C92 20.8954 91.1046 20 90 20C88.8954 20 88 20.8954 88 22C88 23.1046 88.8954 24 90 24Z" fill="#F8E9AF"/>
<path d="M78 44C79.1046 44 80 43.1046 80 42C80 40.8954 79.1046 40 78 40C76.8954 40 76 40.8954 76 42C76 43.1046 76.8954 44 78 44Z" fill="#F8E9AF"/>
<path d="M78 32C80.2091 32 82 30.2091 82 28C82 25.7909 80.2091 24 78 24C75.7909 24 74 25.7909 74 28C74 30.2091 75.7909 32 78 32Z" fill="#F8E9AF"/>
<path d="M94 46C97.3137 46 100 43.3137 100 40C100 36.6863 97.3137 34 94 34C90.6863 34 88 36.6863 88 40C88 43.3137 90.6863 46 94 46Z" fill="#F8E9AF"/>
<path d="M38 64C39.1046 64 40 63.1046 40 62C40 60.8954 39.1046 60 38 60C36.8954 60 36 60.8954 36 62C36 63.1046 36.8954 64 38 64Z" fill="#F8E9AF"/>
<path d="M26 84C27.1046 84 28 83.1046 28 82C28 80.8954 27.1046 80 26 80C24.8954 80 24 80.8954 24 82C24 83.1046 24.8954 84 26 84Z" fill="#F8E9AF"/>
</svg>
